<?xml version="1.0" encoding="utf-8"?>
<!-- Generator: Adobe Illustrator 16.0.0, SVG Export Plug-In . SVG Version: 6.00 Build 0)  -->
<!DOCTYPE svg PUBLIC "-//W3C//DTD SVG 1.1//EN" "http://www.w3.org/Graphics/SVG/1.1/DTD/svg11.dtd">
<svg version="1.1" id="Layer_1" xmlns="http://www.w3.org/2000/svg" xmlns:xlink="http://www.w3.org/1999/xlink" x="0px" y="0px"
	 width="256px" height="292px" viewBox="384 366 256 292" enable-background="new 384 366 256 292" xml:space="preserve">
<path fill="#FFFFFF" d="M599.112,376H424.889C411.2,376,400,387.2,400,400.889v174.223C400,588.8,411.2,600,424.889,600h174.223
	C612.8,600,624,588.8,624,575.111V400.889C624,387.2,612.8,376,599.112,376 M449.778,425.778h24.889v24.889h-24.889V425.778
	 M449.778,475.556h24.889v24.889h-24.889V475.556 M449.778,525.334h24.889v24.889h-24.889V525.334 M574.222,550.223h-74.667v-24.889
	h74.667V550.223 M574.222,500.444h-74.667v-24.889h74.667V500.444 M574.222,450.667h-74.667v-24.889h74.667V450.667z"/>
<g>
	<path fill="#FFFFFF" d="M494.912,623.116c0.984,0.743,1.477,1.771,1.477,3.084c0,0.96-0.272,1.771-0.816,2.436
		s-1.288,1.108-2.232,1.332c1.168,0.177,2.084,0.645,2.748,1.404s0.996,1.708,0.996,2.844c0,1.44-0.54,2.564-1.62,3.372
		s-2.571,1.212-4.476,1.212h-7.296V622h7.176C492.58,622,493.929,622.372,494.912,623.116z M493.16,628.468
		c0.567-0.439,0.853-1.068,0.853-1.884c0-0.8-0.285-1.416-0.853-1.849c-0.568-0.432-1.372-0.64-2.412-0.624h-4.752v5.017h4.752
		C491.788,629.128,492.592,628.908,493.16,628.468z M493.676,635.979c0.704-0.487,1.057-1.172,1.057-2.052
		c0-0.848-0.353-1.512-1.057-1.992c-0.704-0.479-1.68-0.72-2.928-0.72h-4.752v5.472h4.752
		C491.996,636.704,492.972,636.468,493.676,635.979z"/>
	<path fill="#FFFFFF" d="M511.796,626.104V638.8h-2.256v-2.688c-0.832,1.809-2.4,2.729-4.704,2.761
		c-1.472,0-2.624-0.436-3.456-1.309c-0.832-0.871-1.248-2.075-1.248-3.611v-7.849h2.256v7.248c0,1.072,0.292,1.908,0.876,2.508
		c0.584,0.601,1.389,0.9,2.412,0.9c1.185-0.016,2.124-0.436,2.82-1.26s1.044-1.876,1.044-3.156v-6.24H511.796z"/>
	<path fill="#FFFFFF" d="M514.7,626.104h2.592l3.144,4.656l3.192-4.656h2.472l-4.176,6.192l4.488,6.504h-2.616l-3.36-4.992
		l-3.527,4.992h-2.521l4.561-6.504L514.7,626.104z"/>
	<path fill="#FFFFFF" d="M537.176,626.848c0.984,0.544,1.752,1.3,2.305,2.269c0.552,0.968,0.827,2.075,0.827,3.323
		s-0.275,2.36-0.827,3.336c-0.553,0.977-1.32,1.736-2.305,2.28c-0.983,0.544-2.108,0.816-3.372,0.816
		c-1.28,0-2.412-0.272-3.396-0.816c-0.984-0.544-1.752-1.3-2.304-2.268c-0.553-0.968-0.828-2.084-0.828-3.349
		c0-1.248,0.275-2.355,0.828-3.323c0.552-0.969,1.319-1.725,2.304-2.269c0.983-0.544,2.115-0.815,3.396-0.815
		C535.068,626.032,536.193,626.304,537.176,626.848z M531.584,628.552c-0.647,0.384-1.152,0.916-1.512,1.596
		c-0.36,0.681-0.54,1.452-0.54,2.316c0,0.88,0.18,1.664,0.54,2.352c0.359,0.688,0.864,1.221,1.512,1.597
		c0.648,0.376,1.388,0.563,2.22,0.563c0.816,0,1.549-0.188,2.196-0.563c0.648-0.376,1.152-0.908,1.512-1.597
		c0.36-0.688,0.54-1.472,0.54-2.352c0-0.864-0.18-1.636-0.54-2.316c-0.359-0.68-0.863-1.212-1.512-1.596
		c-0.647-0.384-1.38-0.576-2.196-0.576C532.972,627.976,532.233,628.168,531.584,628.552z"/>
</g>
</svg>
