<?xml version="1.0" encoding="utf-8"?>
<!-- Generator: Adobe Illustrator 16.0.0, SVG Export Plug-In . SVG Version: 6.00 Build 0)  -->
<!DOCTYPE svg PUBLIC "-//W3C//DTD SVG 1.1//EN" "http://www.w3.org/Graphics/SVG/1.1/DTD/svg11.dtd">
<svg version="1.1" id="Layer_1" xmlns="http://www.w3.org/2000/svg" xmlns:xlink="http://www.w3.org/1999/xlink" x="0px" y="0px"
	 width="1024px" height="1024px" viewBox="0 0 1024 1024" enable-background="new 0 0 1024 1024" xml:space="preserve">
<path fill="#0090ED" d="M810.666,128H213.333C166.4,128,128,166.4,128,213.333v597.333C128,857.6,166.4,896,213.333,896h597.333
	C857.6,896,896,857.6,896,810.667V213.333C896,166.4,857.6,128,810.666,128 M298.666,298.667H384V384h-85.334V298.667
	 M298.666,469.333H384v85.334h-85.334V469.333 M298.666,640H384v85.333h-85.334V640 M725.333,725.333h-256V640h256V725.333
	 M725.333,554.667h-256v-85.334h256V554.667 M725.333,384h-256v-85.333h256V384z"/>
</svg>
