<?xml version="1.0" encoding="utf-8"?>
<!-- Generator: Adobe Illustrator 16.0.0, SVG Export Plug-In . SVG Version: 6.00 Build 0)  -->
<!DOCTYPE svg PUBLIC "-//W3C//DTD SVG 1.1//EN" "http://www.w3.org/Graphics/SVG/1.1/DTD/svg11.dtd">
<svg version="1.1" id="Layer_1" xmlns="http://www.w3.org/2000/svg" xmlns:xlink="http://www.w3.org/1999/xlink" x="0px" y="0px"
	 width="1024px" height="1024px" viewBox="0 0 1024 1024" enable-background="new 0 0 1024 1024" xml:space="preserve">
<path fill="#0090ED" d="M962.003,360.694c-17.032-14.833-37.62-22.674-59.538-22.674c-4.479,0-9.056,0.33-13.553,0.975
	l-250.41,34.565c49.027-53.576,58.393-90.633,57.363-193.156l73.85-108.36c8.224-12.125,5.066-28.736-7.039-37.028
	c-0.033-0.023-0.066-0.045-0.101-0.068c-4.454-2.973-9.626-4.544-14.955-4.544c-8.873,0-17.129,4.38-22.062,11.682l-76.985,112.931
	c-4.132,6.109-6.201,13.005-6.149,20.563c1.328,100.57-5.733,124.377-52.509,172.045c-1.958-43.003-23.525-78.755-54.558-90.957
	l-2.039-157.538c-0.028-13.781-8.687-23.399-21.073-23.399c-12.394,0-21.057,9.596-21.092,23.348l-2.49,157.588
	c-31.016,12.214-52.569,47.973-54.523,90.968c-46.807-47.673-53.875-71.496-52.545-172.193c0.052-7.503-2.053-14.399-6.226-20.453
	L298.435,42.085c-4.963-7.317-13.227-11.686-22.105-11.686c-5.324,0-10.485,1.567-14.925,4.531
	c-0.032,0.021-0.065,0.043-0.097,0.065c-12.108,8.291-15.267,24.902-7.028,37.048l73.836,108.34
	c-1.031,102.551,8.332,139.613,57.353,193.157l-250.372-34.543c-4.517-0.637-9.059-0.959-13.499-0.959
	c-21.887,0-42.496,7.828-59.629,22.663c-20.314,17.731-31.231,41.271-31.569,68.075c-0.001,0.042-0.001,0.084-0.001,0.126v14.11
	c0,0.042,0,0.083,0.001,0.125c0.339,27.027,11.397,50.68,31.993,68.414c17.003,14.584,37.509,22.293,59.299,22.293
	c4.728,0,9.58-0.359,14.463-1.075l279.895-42.222l-59.053,47.966c-6.82,5.612-11.173,13.181-12.59,21.893
	c-13.228,81.582-40.921,145.29-87.162,200.505c-4.592,5.499-6.764,12.441-6.114,19.549c0.647,7.077,4.02,13.479,9.507,18.033
	c4.821,3.988,10.902,6.186,17.123,6.186c7.899,0,15.338-3.482,20.403-9.544c51.48-61.455,82.614-131.307,97.811-219.558
	l44.795-36.384c0.997,1.754,2.022,3.456,3.082,5.111l-65.99,114.399c-3.22,5.47-4.853,11.531-4.853,18.051
	c0.499,136.28-20.694,227.697-62.982,271.704c-4.943,5.133-7.589,11.884-7.45,19.008c0.139,7.117,3.044,13.753,8.179,18.684
	c5.003,4.804,11.577,7.45,18.512,7.45c7.347,0,14.179-2.927,19.2-8.2c52.403-54.443,77.897-153.918,77.914-304.065l22.612-39.178
	v88.21c0,34.722,28.282,62.97,63.045,62.97c34.753,0,63.027-28.248,63.027-62.97v-88.173l22.592,39.14
	c-0.002,150.144,25.486,249.617,77.867,304.037c5.063,5.302,11.895,8.223,19.237,8.223c6.934,0,13.505-2.644,18.512-7.453
	c5.125-4.936,8.024-11.572,8.163-18.688c0.138-7.121-2.505-13.867-7.435-18.986c-42.296-44.015-63.489-135.457-62.99-271.824
	c0-6.35-1.596-12.348-4.753-17.844l-66.044-114.491c1.056-1.655,2.077-3.353,3.063-5.088l44.788,36.379
	c15.243,88.309,46.382,158.163,97.799,219.522c5.055,6.085,12.491,9.575,20.403,9.575c6.223,0,12.306-2.195,17.144-6.193
	c5.477-4.546,8.849-10.947,9.496-18.025c0.648-7.106-1.522-14.049-6.125-19.559c-46.245-55.199-73.938-118.906-87.153-200.496
	c-1.413-8.705-5.811-16.299-12.751-21.987l-58.855-47.812l279.905,42.19c4.784,0.7,9.589,1.055,14.281,1.055
	c21.841,0,42.39-7.701,59.472-22.311c20.882-18.086,31.919-42.187,31.919-69.696v-11.828
	C993.6,402.656,982.673,378.677,962.003,360.694z M940.229,430.035v11.828c0,11.894-4.387,21.454-13.379,29.201
	c-7.447,6.364-15.515,9.457-24.664,9.457c-2.071,0-4.228-0.163-6.379-0.48l-296.855-44.763c-0.157-0.791-0.32-1.582-0.49-2.373
	l297.846-41.112c2.066-0.297,4.116-0.448,6.091-0.448c9.171,0,17.199,3.113,24.537,9.511
	C935.88,408.672,940.229,418.217,940.229,430.035z M502.305,663.102c6.854,0.806,13.299,0.722,19.388-0.087v9.496
	c-6.127,1.259-13.032,1.194-19.388-0.207V663.102z M502.305,726.876c3.465,0.444,6.694,0.664,9.732,0.664
	c3.31,0,6.548-0.26,9.656-0.669v3.478c0,5.314-4.332,9.638-9.656,9.638c-5.366,0-9.732-4.323-9.732-9.638V726.876z M529.148,524.137
	c-0.374,0.391-0.716,0.812-1.022,1.258c-4.019,5.859-4.992,8.664-6.254,15.268c-0.118,0.619-0.178,1.247-0.178,1.877v66.156
	c-6.207,1.361-13.206,1.366-19.388,0.011v-66.167c0-0.59-0.052-1.178-0.156-1.758c-1.275-7.142-2.097-8.886-5.723-14.615
	l-0.291-0.459c-0.356-0.563-0.767-1.089-1.228-1.57c-12.153-12.699-19.409-34.324-19.409-57.846c0-21.307,6.286-41.773,16.82-54.781
	c6.782-7.872,13.415-11.863,19.717-11.863c6.297,0,12.943,4.017,19.758,11.939c10.462,13.03,16.704,33.466,16.704,54.705
	C548.499,489.85,541.265,511.475,529.148,524.137z M512.037,346.333c-8.416,0-16.675,1.518-24.685,4.527
	c1.006-25.407,13.919-45.383,24.685-45.383c9.453,0,23.566,17.962,24.594,45.364C528.625,347.845,520.398,346.333,512.037,346.333z
	 M425.586,432.924c-0.17,0.793-0.333,1.583-0.489,2.372L128.24,480.054c-2.169,0.321-4.318,0.483-6.387,0.483
	c-9.209,0-17.28-3.079-24.651-9.39c-9.025-7.779-13.413-17.353-13.413-29.267v-11.828c0-11.835,4.335-21.355,13.247-29.098
	c7.387-6.407,15.544-9.521,24.938-9.521c1.91,0,3.898,0.133,5.833,0.384L425.586,432.924z"/>
</svg>
