<?xml version="1.0" encoding="utf-8"?>
<!-- Generator: Adobe Illustrator 16.0.0, SVG Export Plug-In . SVG Version: 6.00 Build 0)  -->
<!DOCTYPE svg PUBLIC "-//W3C//DTD SVG 1.1//EN" "http://www.w3.org/Graphics/SVG/1.1/DTD/svg11.dtd">
<svg version="1.1" id="Layer_1" xmlns="http://www.w3.org/2000/svg" xmlns:xlink="http://www.w3.org/1999/xlink" x="0px" y="0px"
	 width="256px" height="292px" viewBox="384 366 256 292" enable-background="new 384 366 256 292" xml:space="preserve">
<path fill="#FFFFFF" d="M616.653,452.813c-3.961-3.449-8.75-5.273-13.847-5.273c-1.042,0-2.106,0.077-3.151,0.227l-58.235,8.038
	c11.401-12.459,13.579-21.078,13.341-44.92l17.174-25.2c1.912-2.82,1.178-6.683-1.637-8.611c-0.008-0.005-0.016-0.01-0.023-0.016
	c-1.036-0.691-2.238-1.057-3.479-1.057c-2.063,0-3.983,1.019-5.131,2.717l-17.902,26.263c-0.961,1.42-1.443,3.024-1.431,4.782
	c0.309,23.388-1.333,28.925-12.212,40.01c-0.455-10.001-5.471-18.315-12.688-21.153l-0.475-36.637
	c-0.006-3.205-2.02-5.441-4.9-5.441c-2.882,0-4.896,2.231-4.905,5.43l-0.579,36.648c-7.213,2.84-12.225,11.156-12.68,21.155
	c-10.885-11.086-12.529-16.626-12.22-40.044c0.012-1.745-0.478-3.349-1.448-4.756l-17.892-26.257
	c-1.154-1.702-3.076-2.718-5.141-2.718c-1.238,0-2.438,0.364-3.471,1.054c-0.007,0.005-0.015,0.01-0.022,0.015
	c-2.816,1.928-3.55,5.791-1.634,8.616l17.171,25.195c-0.24,23.849,1.938,32.468,13.338,44.92l-58.226-8.033
	c-1.05-0.148-2.106-0.223-3.139-0.223c-5.09,0-9.883,1.82-13.867,5.271c-4.724,4.124-7.263,9.598-7.342,15.831
	c0,0.01,0,0.02,0,0.029v3.281c0,0.01,0,0.02,0,0.029c0.079,6.285,2.651,11.786,7.44,15.91c3.954,3.392,8.723,5.185,13.791,5.185
	c1.1,0,2.228-0.083,3.363-0.25l65.092-9.819l-13.733,11.155c-1.586,1.305-2.598,3.065-2.928,5.092
	c-3.076,18.973-9.517,33.788-20.27,46.629c-1.068,1.278-1.573,2.893-1.422,4.546c0.15,1.646,0.935,3.134,2.211,4.193
	c1.121,0.928,2.535,1.438,3.982,1.438c1.837,0,3.567-0.81,4.745-2.219c11.972-14.293,19.213-30.537,22.747-51.061l10.417-8.461
	c0.232,0.408,0.47,0.804,0.717,1.188l-15.347,26.605c-0.749,1.271-1.128,2.682-1.128,4.197c0.116,31.693-4.813,52.953-14.647,63.188
	c-1.149,1.193-1.765,2.764-1.733,4.42c0.033,1.655,0.708,3.199,1.902,4.346c1.164,1.117,2.692,1.732,4.305,1.732
	c1.708,0,3.297-0.682,4.465-1.907c12.187-12.661,18.116-35.795,18.12-70.712l5.258-9.111v20.514c0,8.074,6.578,14.645,14.662,14.645
	c8.082,0,14.657-6.57,14.657-14.645v-20.506l5.254,9.103c0,34.917,5.928,58.05,18.109,70.706c1.178,1.232,2.766,1.912,4.474,1.912
	c1.612,0,3.141-0.615,4.305-1.732c1.192-1.148,1.866-2.691,1.898-4.347s-0.583-3.225-1.729-4.415
	c-9.836-10.236-14.764-31.502-14.648-63.215c0-1.477-0.371-2.871-1.105-4.15l-15.359-26.625c0.246-0.385,0.484-0.779,0.713-1.183
	l10.416,8.46c3.545,20.538,10.786,36.782,22.744,51.051c1.176,1.415,2.904,2.227,4.744,2.227c1.447,0,2.862-0.51,3.987-1.439
	c1.274-1.058,2.058-2.547,2.208-4.192c0.15-1.652-0.354-3.267-1.424-4.548c-10.755-12.838-17.195-27.653-20.268-46.627
	c-0.329-2.024-1.352-3.791-2.966-5.113l-13.688-11.119l65.095,9.812c1.111,0.163,2.229,0.246,3.32,0.246
	c5.08,0,9.858-1.791,13.831-5.189c4.856-4.206,7.423-9.811,7.423-16.208v-2.751C624,462.571,621.459,456.995,616.653,452.813z
	 M611.588,468.938v2.75c0,2.766-1.02,4.989-3.111,6.791c-1.732,1.48-3.608,2.199-5.736,2.199c-0.481,0-0.982-0.038-1.482-0.111
	l-69.037-10.41c-0.035-0.184-0.074-0.368-0.113-0.552l69.267-9.561c0.479-0.069,0.957-0.104,1.416-0.104
	c2.133,0,4,0.724,5.706,2.212C610.576,463.97,611.588,466.19,611.588,468.938z M509.746,523.14c1.594,0.188,3.092,0.169,4.508-0.021
	v2.209c-1.425,0.293-3.03,0.277-4.508-0.049V523.14z M509.746,537.971c0.806,0.104,1.556,0.154,2.263,0.154
	c0.77,0,1.523-0.061,2.246-0.155v0.81c0,1.235-1.008,2.24-2.246,2.24c-1.248,0-2.263-1.005-2.263-2.24V537.971z M515.989,490.822
	c-0.088,0.091-0.167,0.189-0.238,0.293c-0.935,1.362-1.16,2.015-1.454,3.551c-0.027,0.144-0.042,0.29-0.042,0.436v15.385
	c-1.443,0.316-3.071,0.318-4.508,0.002v-15.388c0-0.137-0.012-0.273-0.036-0.409c-0.296-1.661-0.488-2.066-1.331-3.399l-0.068-0.106
	c-0.083-0.131-0.178-0.253-0.286-0.365c-2.826-2.953-4.513-7.982-4.513-13.453c0-4.955,1.461-9.715,3.911-12.74
	c1.577-1.831,3.12-2.759,4.585-2.759c1.464,0,3.01,0.934,4.595,2.776c2.433,3.03,3.885,7.783,3.885,12.722
	C520.489,482.849,518.806,487.878,515.989,490.822z M512.009,449.473c-1.957,0-3.877,0.353-5.74,1.053
	c0.234-5.908,3.237-10.554,5.74-10.554c2.199,0,5.481,4.177,5.72,10.549C515.866,449.825,513.953,449.473,512.009,449.473z
	 M491.904,469.61c-0.04,0.184-0.078,0.368-0.114,0.551l-69.036,10.409c-0.505,0.075-1.004,0.112-1.485,0.112
	c-2.142,0-4.019-0.716-5.733-2.184c-2.099-1.809-3.119-4.036-3.119-6.807v-2.75c0-2.752,1.008-4.966,3.081-6.767
	c1.718-1.49,3.615-2.214,5.799-2.214c0.444,0,0.907,0.031,1.356,0.089L491.904,469.61z"/>
<g>
	<path fill="#FFFFFF" d="M478.041,623.092c1.32,0.729,2.356,1.732,3.108,3.012c0.752,1.28,1.128,2.712,1.128,4.296
		s-0.38,3.017-1.14,4.297c-0.76,1.279-1.804,2.283-3.132,3.012s-2.816,1.092-4.464,1.092h-6.768V622h6.84
		C475.245,622,476.721,622.364,478.041,623.092z M476.841,635.896c0.952-0.543,1.704-1.296,2.256-2.256
		c0.552-0.96,0.828-2.031,0.828-3.216c0-1.2-0.28-2.28-0.84-3.24s-1.324-1.716-2.292-2.268c-0.968-0.552-2.044-0.828-3.228-0.828
		h-4.488v12.624h4.584C474.828,636.712,475.889,636.439,476.841,635.896z"/>
	<path fill="#FFFFFF" d="M494.9,627.771c1.008,1.16,1.512,2.772,1.512,4.836c0,0.32-0.008,0.561-0.024,0.721h-10.032
		c0.176,1.136,0.652,2.04,1.428,2.712c0.776,0.672,1.731,1.008,2.868,1.008c0.752,0,1.452-0.136,2.1-0.408
		c0.648-0.271,1.212-0.655,1.692-1.151l1.224,1.271c-0.624,0.672-1.376,1.192-2.256,1.56c-0.88,0.369-1.856,0.553-2.928,0.553
		c-1.248,0-2.356-0.268-3.324-0.805c-0.968-0.535-1.72-1.291-2.256-2.268c-0.537-0.976-0.804-2.088-0.804-3.336
		s0.268-2.355,0.804-3.324c0.536-0.968,1.284-1.728,2.244-2.28c0.96-0.552,2.056-0.827,3.288-0.827
		C492.405,626.032,493.892,626.612,494.9,627.771z M494.396,631.6c-0.064-1.151-0.448-2.06-1.152-2.724
		c-0.704-0.664-1.632-0.996-2.784-0.996c-1.12,0-2.052,0.336-2.796,1.008s-1.188,1.576-1.332,2.712H494.396z"/>
	<path fill="#FFFFFF" d="M510.021,627.34c0.848,0.872,1.272,2.076,1.272,3.612v7.848h-2.232v-7.248c0-1.071-0.3-1.908-0.9-2.508
		c-0.6-0.601-1.428-0.9-2.484-0.9c-1.136,0.017-2.06,0.381-2.772,1.092c-0.712,0.713-1.116,1.637-1.212,2.772v6.792h-2.232v-12.696
		h2.232v2.688c0.848-1.808,2.456-2.728,4.824-2.76C508.005,626.032,509.172,626.468,510.021,627.34z"/>
	<path fill="#FFFFFF" d="M526.508,626.104v11.4c0,1.216-0.268,2.28-0.804,3.192c-0.536,0.911-1.292,1.611-2.268,2.1
		c-0.977,0.487-2.112,0.731-3.408,0.731c-1.872,0-3.616-0.592-5.231-1.775l0.983-1.632c0.624,0.512,1.272,0.892,1.944,1.14
		s1.407,0.372,2.207,0.372c1.313,0,2.36-0.368,3.145-1.104c0.783-0.735,1.176-1.72,1.176-2.951V635.8
		c-0.447,0.768-1.056,1.364-1.824,1.788c-0.768,0.424-1.647,0.636-2.64,0.636c-1.136,0-2.14-0.26-3.012-0.78
		c-0.872-0.52-1.548-1.243-2.028-2.172c-0.48-0.928-0.72-1.991-0.72-3.191c0-1.185,0.239-2.232,0.72-3.145s1.156-1.623,2.028-2.136
		c0.872-0.512,1.876-0.768,3.012-0.768c1.009,0,1.892,0.208,2.652,0.624c0.76,0.416,1.364,1.008,1.812,1.775v-2.328H526.508z
		 M522.309,635.872c0.607-0.368,1.084-0.876,1.428-1.524c0.344-0.647,0.516-1.38,0.516-2.196c0-0.831-0.172-1.571-0.516-2.22
		c-0.344-0.647-0.82-1.155-1.428-1.523c-0.608-0.368-1.305-0.553-2.088-0.553c-0.785,0-1.484,0.185-2.101,0.553
		s-1.101,0.876-1.452,1.523c-0.352,0.648-0.527,1.389-0.527,2.22c0.016,1.248,0.399,2.272,1.152,3.072
		c0.751,0.801,1.728,1.2,2.928,1.2C521.004,636.424,521.7,636.24,522.309,635.872z"/>
	<path fill="#FFFFFF" d="M541.821,626.104V638.8h-2.256v-2.688c-0.833,1.809-2.4,2.729-4.705,2.761
		c-1.472,0-2.624-0.436-3.455-1.309c-0.832-0.871-1.248-2.075-1.248-3.611v-7.849h2.256v7.248c0,1.072,0.291,1.908,0.875,2.508
		c0.584,0.601,1.389,0.9,2.412,0.9c1.185-0.016,2.125-0.436,2.82-1.26c0.696-0.824,1.045-1.876,1.045-3.156v-6.24H541.821z"/>
	<path fill="#FFFFFF" d="M555.715,627.771c1.009,1.16,1.513,2.772,1.513,4.836c0,0.32-0.009,0.561-0.024,0.721h-10.031
		c0.176,1.136,0.651,2.04,1.428,2.712c0.775,0.672,1.731,1.008,2.867,1.008c0.752,0,1.453-0.136,2.101-0.408
		c0.647-0.271,1.212-0.655,1.692-1.151l1.224,1.271c-0.624,0.672-1.376,1.192-2.256,1.56c-0.88,0.369-1.856,0.553-2.929,0.553
		c-1.248,0-2.355-0.268-3.323-0.805c-0.968-0.535-1.72-1.291-2.256-2.268c-0.536-0.976-0.804-2.088-0.804-3.336
		s0.268-2.355,0.804-3.324c0.536-0.968,1.284-1.728,2.243-2.28c0.961-0.552,2.057-0.827,3.289-0.827
		C553.22,626.032,554.707,626.612,555.715,627.771z M555.211,631.6c-0.063-1.151-0.447-2.06-1.151-2.724s-1.632-0.996-2.784-0.996
		c-1.12,0-2.052,0.336-2.796,1.008s-1.188,1.576-1.332,2.712H555.211z"/>
</g>
</svg>
