<?xml version="1.0" encoding="utf-8"?>
<!-- Generator: Adobe Illustrator 16.0.0, SVG Export Plug-In . SVG Version: 6.00 Build 0)  -->
<!DOCTYPE svg PUBLIC "-//W3C//DTD SVG 1.1//EN" "http://www.w3.org/Graphics/SVG/1.1/DTD/svg11.dtd">
<svg version="1.1" id="Layer_1" xmlns="http://www.w3.org/2000/svg" xmlns:xlink="http://www.w3.org/1999/xlink" x="0px" y="0px"
	 width="256px" height="292px" viewBox="-116 -134 256 292" enable-background="new -116 -134 256 292" xml:space="preserve">
<path fill="#FFFFFF" d="M122.938-35.467c0-46.934-38.396-85.335-85.335-85.335v85.335H122.938 M39.738-24.8h83.199
	c0,19.198-6.396,37.334-18.136,52.272c7.47,6.396,11.74,16,12.803,25.573L39.738-24.8 M110.136,100.005L124,86.141L-86.135-124
	L-100-110.135L-14.664-24.8H-32.8l-9.6-21.334h-37.334V-24.8h23.47c0,0,20.266,43.73,22.396,46.938
	c-10.667,5.334-18.13,16.001-19.198,27.729c-3.197,20.271,11.734,39.47,32.001,42.668s39.47-11.729,42.668-32.001h22.396
	c1.094,4.271,2.135,8.532,4.271,12.803c9.604,18.136,33.063,24.532,50.137,14.928L110.136,100.005 M0.269,55.202
	c0,8.531-7.469,16-16.001,16c-8.531,0-16-7.469-16-16s7.469-16,16-16C-7.2,39.202,0.269,46.671,0.269,55.202 M81.333,71.202
	c-9.573,0-17.063-7.469-17.063-16V54.14L81.333,71.202z"/>
<g>
	<path fill="#FFFFFF" d="M-59.95,123.488c1.144,0.992,1.716,2.384,1.716,4.176c0,1.872-0.576,3.324-1.729,4.355
		c-1.151,1.032-2.768,1.548-4.848,1.548h-4.176v5.232h-2.305V122h6.48C-62.715,122-61.095,122.496-59.95,123.488z M-61.595,130.532
		c0.768-0.632,1.152-1.564,1.152-2.797c0-1.199-0.385-2.107-1.152-2.724c-0.768-0.615-1.872-0.924-3.312-0.924l-4.08,0.023v7.368
		h4.08C-63.467,131.479-62.362,131.164-61.595,130.532z"/>
	<path fill="#FFFFFF" d="M-47.651,138.8v-1.776c-0.944,1.248-2.424,1.872-4.439,1.872c-0.881,0-1.652-0.168-2.316-0.504
		s-1.176-0.8-1.536-1.392c-0.359-0.592-0.54-1.256-0.54-1.992c0-1.136,0.42-2.036,1.26-2.7c0.841-0.663,2.013-1.004,3.517-1.02
		h4.032v-0.601c0-0.896-0.276-1.588-0.828-2.076c-0.552-0.487-1.356-0.731-2.412-0.731c-1.28,0-2.584,0.456-3.912,1.368
		l-0.936-1.536c0.911-0.592,1.755-1.021,2.531-1.284s1.7-0.396,2.772-0.396c1.584,0,2.808,0.388,3.672,1.164
		c0.864,0.775,1.304,1.859,1.32,3.252l0.023,8.352H-47.651z M-48.983,136.292c0.729-0.504,1.164-1.172,1.309-2.004v-1.272h-3.721
		c-1.008,0-1.756,0.152-2.243,0.456c-0.488,0.305-0.732,0.784-0.732,1.44s0.248,1.176,0.744,1.56
		c0.495,0.384,1.16,0.576,1.992,0.576C-50.596,137.048-49.711,136.796-48.983,136.292z"/>
	<path fill="#FFFFFF" d="M-36.263,128.144c-0.633-0.191-1.236-0.288-1.813-0.288c-0.672,0-1.212,0.124-1.619,0.372
		c-0.408,0.248-0.612,0.628-0.612,1.141c0,0.512,0.228,0.899,0.684,1.164c0.456,0.264,1.148,0.531,2.076,0.804
		c0.88,0.256,1.6,0.512,2.16,0.768c0.56,0.257,1.036,0.633,1.428,1.128c0.392,0.496,0.588,1.152,0.588,1.969
		c0,1.199-0.452,2.111-1.355,2.735c-0.904,0.624-2.028,0.937-3.372,0.937c-0.944,0-1.86-0.152-2.748-0.456s-1.637-0.736-2.244-1.296
		l0.84-1.632c0.528,0.479,1.18,0.863,1.956,1.151s1.532,0.433,2.269,0.433c0.735,0,1.327-0.136,1.775-0.408s0.672-0.688,0.672-1.248
		c0-0.576-0.236-1.008-0.708-1.296s-1.188-0.576-2.147-0.864c-0.849-0.24-1.54-0.483-2.076-0.732
		c-0.536-0.247-0.992-0.611-1.368-1.092c-0.376-0.479-0.563-1.104-0.563-1.872c0-1.184,0.432-2.071,1.296-2.664
		c0.863-0.592,1.943-0.888,3.239-0.888c0.769,0,1.524,0.108,2.269,0.324s1.388,0.508,1.932,0.876l-0.815,1.704
		C-35.051,128.592-35.631,128.336-36.263,128.144z"/>
	<path fill="#FFFFFF" d="M-25.224,128.144c-0.632-0.191-1.235-0.288-1.812-0.288c-0.672,0-1.212,0.124-1.62,0.372
		s-0.612,0.628-0.612,1.141c0,0.512,0.229,0.899,0.685,1.164c0.456,0.264,1.147,0.531,2.076,0.804
		c0.879,0.256,1.6,0.512,2.159,0.768c0.561,0.257,1.036,0.633,1.429,1.128c0.392,0.496,0.588,1.152,0.588,1.969
		c0,1.199-0.452,2.111-1.356,2.735s-2.027,0.937-3.372,0.937c-0.944,0-1.859-0.152-2.748-0.456
		c-0.888-0.304-1.636-0.736-2.244-1.296l0.841-1.632c0.527,0.479,1.18,0.863,1.956,1.151c0.775,0.288,1.531,0.433,2.268,0.433
		c0.735,0,1.328-0.136,1.776-0.408c0.447-0.272,0.672-0.688,0.672-1.248c0-0.576-0.236-1.008-0.708-1.296
		c-0.473-0.288-1.188-0.576-2.148-0.864c-0.848-0.24-1.54-0.483-2.076-0.732c-0.536-0.247-0.992-0.611-1.367-1.092
		c-0.377-0.479-0.564-1.104-0.564-1.872c0-1.184,0.432-2.071,1.296-2.664c0.864-0.592,1.944-0.888,3.24-0.888
		c0.768,0,1.523,0.108,2.268,0.324s1.389,0.508,1.933,0.876l-0.816,1.704C-24.012,128.592-24.592,128.336-25.224,128.144z"/>
	<path fill="#FFFFFF" d="M-11.628,138.8v-1.776c-0.944,1.248-2.424,1.872-4.439,1.872c-0.881,0-1.652-0.168-2.316-0.504
		s-1.176-0.8-1.536-1.392c-0.359-0.592-0.54-1.256-0.54-1.992c0-1.136,0.42-2.036,1.26-2.7c0.841-0.663,2.013-1.004,3.517-1.02
		h4.032v-0.601c0-0.896-0.276-1.588-0.828-2.076c-0.552-0.487-1.356-0.731-2.412-0.731c-1.28,0-2.584,0.456-3.912,1.368
		l-0.936-1.536c0.911-0.592,1.755-1.021,2.531-1.284s1.7-0.396,2.772-0.396c1.584,0,2.808,0.388,3.672,1.164
		c0.864,0.775,1.304,1.859,1.32,3.252l0.023,8.352H-11.628z M-12.96,136.292c0.729-0.504,1.164-1.172,1.309-2.004v-1.272h-3.721
		c-1.008,0-1.756,0.152-2.243,0.456c-0.488,0.305-0.732,0.784-0.732,1.44s0.248,1.176,0.744,1.56
		c0.495,0.384,1.16,0.576,1.992,0.576C-14.572,137.048-13.688,136.796-12.96,136.292z"/>
	<path fill="#FFFFFF" d="M5.797,126.104v11.4c0,1.216-0.269,2.28-0.805,3.192c-0.536,0.911-1.292,1.611-2.268,2.1
		c-0.977,0.487-2.112,0.731-3.408,0.731c-1.872,0-3.616-0.592-5.231-1.775l0.983-1.632c0.624,0.512,1.272,0.892,1.944,1.14
		s1.407,0.372,2.208,0.372c1.312,0,2.359-0.368,3.144-1.104c0.784-0.735,1.177-1.72,1.177-2.951V135.8
		c-0.448,0.768-1.057,1.364-1.824,1.788c-0.769,0.424-1.648,0.636-2.641,0.636c-1.136,0-2.14-0.26-3.012-0.78
		c-0.872-0.52-1.548-1.243-2.028-2.172c-0.479-0.928-0.72-1.991-0.72-3.191c0-1.185,0.24-2.232,0.72-3.145
		c0.48-0.912,1.156-1.623,2.028-2.136c0.872-0.512,1.876-0.768,3.012-0.768c1.009,0,1.893,0.208,2.652,0.624
		s1.364,1.008,1.813,1.775v-2.328H5.797z M1.597,135.872c0.607-0.368,1.084-0.876,1.428-1.524c0.344-0.647,0.517-1.38,0.517-2.196
		c0-0.831-0.173-1.571-0.517-2.22c-0.344-0.647-0.82-1.155-1.428-1.523c-0.608-0.368-1.305-0.553-2.088-0.553
		c-0.784,0-1.484,0.185-2.101,0.553c-0.615,0.368-1.1,0.876-1.451,1.523c-0.353,0.648-0.528,1.389-0.528,2.22
		c0.016,1.248,0.399,2.272,1.152,3.072c0.751,0.801,1.728,1.2,2.928,1.2C0.292,136.424,0.988,136.24,1.597,135.872z"/>
	<path fill="#FFFFFF" d="M19.428,127.771c1.009,1.16,1.513,2.772,1.513,4.836c0,0.32-0.009,0.561-0.024,0.721H10.884
		c0.176,1.136,0.652,2.04,1.429,2.712c0.775,0.672,1.731,1.008,2.867,1.008c0.752,0,1.452-0.136,2.101-0.408
		c0.647-0.271,1.212-0.655,1.691-1.151l1.225,1.271c-0.624,0.672-1.376,1.192-2.256,1.56c-0.881,0.369-1.856,0.553-2.929,0.553
		c-1.248,0-2.355-0.268-3.323-0.805c-0.969-0.535-1.721-1.291-2.256-2.268c-0.537-0.976-0.805-2.088-0.805-3.336
		s0.268-2.355,0.805-3.324c0.535-0.968,1.283-1.728,2.243-2.28c0.96-0.552,2.056-0.827,3.288-0.827
		C16.933,126.032,18.42,126.612,19.428,127.771z M18.924,131.6c-0.063-1.151-0.448-2.06-1.151-2.724
		c-0.704-0.664-1.632-0.996-2.784-0.996c-1.12,0-2.052,0.336-2.796,1.008s-1.188,1.576-1.332,2.712H18.924z"/>
	<path fill="#FFFFFF" d="M43.813,127.352c0.832,0.88,1.248,2.08,1.248,3.601v7.848h-2.256v-7.248c0-1.071-0.293-1.912-0.877-2.52
		c-0.584-0.608-1.389-0.912-2.412-0.912c-1.199,0.032-2.145,0.456-2.832,1.271c-0.688,0.816-1.031,1.864-1.031,3.145v6.264h-2.256
		v-7.248c0-1.071-0.289-1.912-0.865-2.52c-0.574-0.608-1.383-0.912-2.424-0.912c-1.199,0.032-2.146,0.456-2.844,1.271
		c-0.695,0.816-1.043,1.864-1.043,3.145v6.264h-2.232v-12.696h2.232v2.664c0.832-1.792,2.408-2.703,4.727-2.735
		c1.168,0,2.141,0.279,2.916,0.84c0.777,0.56,1.301,1.344,1.572,2.352c0.785-2.096,2.432-3.159,4.945-3.191
		C41.836,126.032,42.98,126.472,43.813,127.352z"/>
	<path fill="#FFFFFF" d="M66.815,123.092c1.32,0.729,2.355,1.732,3.108,3.012c0.752,1.28,1.128,2.712,1.128,4.296
		s-0.381,3.017-1.141,4.297c-0.76,1.279-1.804,2.283-3.132,3.012s-2.816,1.092-4.464,1.092h-6.768V122h6.84
		C64.02,122,65.495,122.364,66.815,123.092z M65.615,135.896c0.952-0.543,1.704-1.296,2.256-2.256
		c0.553-0.96,0.828-2.031,0.828-3.216c0-1.2-0.28-2.28-0.84-3.24c-0.561-0.96-1.324-1.716-2.292-2.268s-2.044-0.828-3.228-0.828
		h-4.488v12.624h4.584C63.604,136.712,64.663,136.439,65.615,135.896z"/>
	<path fill="#FFFFFF" d="M74.34,122h2.304v16.8H74.34V122z"/>
	<path fill="#FFFFFF" d="M84.671,135.572c0.855,0.872,2.036,1.308,3.54,1.308c1.488,0,2.656-0.436,3.504-1.308
		s1.272-2.084,1.272-3.637V122h2.304v9.936c0,2.192-0.628,3.912-1.884,5.16c-1.257,1.248-2.988,1.872-5.196,1.872
		c-2.224,0-3.968-0.624-5.232-1.872c-1.264-1.248-1.896-2.968-1.896-5.16V122h2.304v9.936
		C83.387,133.488,83.814,134.7,84.671,135.572z"/>
</g>
</svg>
