<?xml version="1.0" encoding="utf-8"?>
<!-- Generator: Adobe Illustrator 16.0.0, SVG Export Plug-In . SVG Version: 6.00 Build 0)  -->
<!DOCTYPE svg PUBLIC "-//W3C//DTD SVG 1.1//EN" "http://www.w3.org/Graphics/SVG/1.1/DTD/svg11.dtd">
<svg version="1.1" id="Layer_1" xmlns="http://www.w3.org/2000/svg" xmlns:xlink="http://www.w3.org/1999/xlink" x="0px" y="0px"
	 width="24px" height="24px" viewBox="0 0 24 24" enable-background="new 0 0 24 24" xml:space="preserve">
<path fill="#0090ED" d="M2,22V7c0-0.552,0.448-1,1-1h4V2h10v4h4c0.553,0,1,0.448,1,1v15h-8v-5h-4v5H2 M9,4v6h2V8h2v2h2V4h-2v2h-2V4
	H9 M4,20h4v-3H4V20 M4,15h4v-3H4V15 M16,20h4v-3h-4V20 M16,15h4v-3h-4V15 M10,15h4v-3h-4V15z"/>
</svg>
