<?xml version="1.0" encoding="utf-8"?>
<!-- Generator: Adobe Illustrator 16.0.0, SVG Export Plug-In . SVG Version: 6.00 Build 0)  -->
<!DOCTYPE svg PUBLIC "-//W3C//DTD SVG 1.1//EN" "http://www.w3.org/Graphics/SVG/1.1/DTD/svg11.dtd">
<svg version="1.1" id="Layer_1" xmlns="http://www.w3.org/2000/svg" xmlns:xlink="http://www.w3.org/1999/xlink" x="0px" y="0px"
	 width="256px" height="292px" viewBox="-116 -134 256 292" enable-background="new -116 -134 256 292" xml:space="preserve">
<path fill="#FFFFFF" d="M-100,100V-68c0-6.18,5.015-11.2,11.2-11.2H-44V-124H68v44.8h44.8c6.19,0,11.2,5.021,11.2,11.2v168H34.4V44
	H-10.4v56H-100 M-21.6-101.6V-34.4H0.8V-56.8h22.4V-34.4H45.6V-101.6H23.2V-79.2H0.8V-101.6H-21.6 M-77.6,77.6h44.8V44h-44.8V77.6
	 M-77.6,21.6h44.8V-12h-44.8V21.6 M56.8,77.6h44.8V44H56.8V77.6 M56.8,21.6h44.8V-12H56.8V21.6 M-10.4,21.6H34.4V-12H-10.4V21.6z"/>
<g>
	<path fill="#FFFFFF" d="M-62.855,123.248h11.664v2.088h-9.359v5.184h8.376v2.088h-8.376v5.353h9.647v2.088h-11.952V123.248z"/>
	<path fill="#FFFFFF" d="M-48.839,127.352h2.592l3.144,4.656l3.192-4.656h2.472l-4.176,6.192l4.488,6.504h-2.616l-3.36-4.992
		l-3.527,4.992h-2.521l4.561-6.504L-48.839,127.352z"/>
	<path fill="#FFFFFF" d="M-27.335,140.048v-1.776c-0.944,1.248-2.424,1.872-4.44,1.872c-0.88,0-1.652-0.168-2.315-0.504
		c-0.664-0.336-1.177-0.8-1.536-1.392c-0.36-0.592-0.54-1.256-0.54-1.992c0-1.136,0.42-2.036,1.26-2.7
		c0.84-0.663,2.012-1.004,3.516-1.02h4.032v-0.601c0-0.896-0.275-1.588-0.828-2.076c-0.552-0.487-1.355-0.731-2.412-0.731
		c-1.28,0-2.584,0.456-3.912,1.368l-0.936-1.536c0.912-0.592,1.756-1.021,2.532-1.284c0.775-0.264,1.699-0.396,2.771-0.396
		c1.584,0,2.809,0.388,3.672,1.164c0.864,0.775,1.305,1.859,1.32,3.252l0.024,8.352H-27.335z M-28.667,137.54
		c0.728-0.504,1.164-1.172,1.308-2.004v-1.272h-3.72c-1.008,0-1.756,0.152-2.244,0.456c-0.488,0.305-0.732,0.784-0.732,1.44
		s0.248,1.176,0.744,1.56s1.16,0.576,1.992,0.576C-30.279,138.296-29.396,138.044-28.667,137.54z"/>
	<path fill="#FFFFFF" d="M-1.319,128.6c0.832,0.88,1.248,2.08,1.248,3.601v7.848h-2.256V132.8c0-1.071-0.292-1.912-0.876-2.52
		c-0.585-0.608-1.389-0.912-2.412-0.912c-1.2,0.032-2.145,0.456-2.832,1.271c-0.688,0.816-1.032,1.864-1.032,3.145v6.264h-2.256
		V132.8c0-1.071-0.288-1.912-0.864-2.52c-0.576-0.608-1.384-0.912-2.424-0.912c-1.2,0.032-2.148,0.456-2.844,1.271
		c-0.696,0.816-1.044,1.864-1.044,3.145v6.264h-2.232v-12.696h2.232v2.664c0.831-1.792,2.407-2.703,4.728-2.735
		c1.168,0,2.14,0.279,2.916,0.84c0.776,0.56,1.3,1.344,1.572,2.352c0.783-2.096,2.432-3.159,4.944-3.191
		C-3.296,127.28-2.151,127.72-1.319,128.6z"/>
	<path fill="#FFFFFF" d="M13.464,129.02c1.009,1.16,1.513,2.772,1.513,4.836c0,0.32-0.009,0.561-0.024,0.721H4.92
		c0.176,1.136,0.652,2.04,1.429,2.712c0.775,0.672,1.731,1.008,2.867,1.008c0.752,0,1.452-0.136,2.101-0.408
		c0.647-0.271,1.212-0.655,1.691-1.151l1.225,1.271c-0.624,0.672-1.376,1.192-2.256,1.56c-0.881,0.369-1.856,0.553-2.929,0.553
		c-1.248,0-2.355-0.268-3.323-0.805c-0.969-0.535-1.721-1.291-2.256-2.268c-0.537-0.976-0.805-2.088-0.805-3.336
		s0.268-2.355,0.805-3.324c0.535-0.968,1.283-1.728,2.243-2.28c0.96-0.552,2.056-0.827,3.288-0.827
		C10.969,127.28,12.456,127.86,13.464,129.02z M12.96,132.848c-0.063-1.151-0.448-2.06-1.151-2.724
		c-0.704-0.664-1.632-0.996-2.784-0.996c-1.12,0-2.052,0.336-2.796,1.008s-1.188,1.576-1.332,2.712H12.96z"/>
	<path fill="#FFFFFF" d="M24.528,123.248h10.944l-0.024,2.088h-8.616v5.52h7.752v2.089h-7.752v7.104h-2.304V123.248z"/>
	<path fill="#FFFFFF" d="M40.368,122l2.305,1.008l-2.977,2.352L37.8,125.12L40.368,122z M37.944,127.352h2.231v12.696h-2.231
		V127.352z"/>
	<path fill="#FFFFFF" d="M49.716,129.392c-0.632-0.191-1.236-0.288-1.812-0.288c-0.672,0-1.212,0.124-1.62,0.372
		s-0.612,0.628-0.612,1.141c0,0.512,0.229,0.899,0.684,1.164c0.456,0.264,1.148,0.531,2.076,0.804c0.88,0.256,1.6,0.512,2.16,0.768
		c0.56,0.257,1.036,0.633,1.428,1.128c0.393,0.496,0.589,1.152,0.589,1.969c0,1.199-0.453,2.111-1.356,2.735
		c-0.904,0.624-2.028,0.937-3.372,0.937c-0.944,0-1.86-0.152-2.748-0.456s-1.636-0.736-2.244-1.296l0.84-1.632
		c0.528,0.479,1.18,0.863,1.956,1.151s1.532,0.433,2.269,0.433c0.735,0,1.328-0.136,1.775-0.408
		c0.448-0.272,0.673-0.688,0.673-1.248c0-0.576-0.236-1.008-0.708-1.296c-0.473-0.288-1.188-0.576-2.148-0.864
		c-0.849-0.24-1.54-0.483-2.076-0.732c-0.536-0.247-0.992-0.611-1.368-1.092c-0.376-0.479-0.563-1.104-0.563-1.872
		c0-1.184,0.432-2.071,1.296-2.664c0.864-0.592,1.944-0.888,3.24-0.888c0.768,0,1.523,0.108,2.268,0.324s1.388,0.508,1.932,0.876
		l-0.815,1.704C50.928,129.84,50.348,129.584,49.716,129.392z"/>
	<path fill="#FFFFFF" d="M57.66,122.696c0.264,0.271,0.396,0.615,0.396,1.031c0,0.417-0.132,0.761-0.396,1.032
		c-0.265,0.272-0.597,0.408-0.996,0.408c-0.4,0-0.732-0.136-0.996-0.408c-0.264-0.271-0.396-0.615-0.396-1.032
		c0-0.416,0.132-0.76,0.396-1.031c0.264-0.272,0.596-0.408,0.996-0.408C57.063,122.288,57.396,122.424,57.66,122.696z
		 M55.56,127.352h2.232v12.696H55.56V127.352z"/>
	<path fill="#FFFFFF" d="M67.415,129.271c-0.832,0-1.572,0.185-2.22,0.553c-0.648,0.368-1.156,0.888-1.524,1.56
		s-0.552,1.448-0.552,2.328s0.18,1.656,0.54,2.328s0.855,1.196,1.488,1.572c0.632,0.376,1.355,0.563,2.172,0.563
		c0.815,0,1.552-0.136,2.208-0.408c0.655-0.271,1.2-0.663,1.632-1.176l1.272,1.296c-0.576,0.72-1.309,1.272-2.196,1.656
		s-1.893,0.576-3.012,0.576c-1.232,0-2.328-0.272-3.288-0.816s-1.709-1.3-2.244-2.268c-0.536-0.968-0.805-2.076-0.805-3.324
		s0.269-2.36,0.805-3.336c0.535-0.976,1.284-1.736,2.244-2.28s2.056-0.815,3.288-0.815c1.071,0,2.035,0.164,2.892,0.491
		c0.855,0.328,1.572,0.805,2.147,1.429l-1.224,1.536C70.031,129.76,68.823,129.271,67.415,129.271z"/>
	<path fill="#FFFFFF" d="M83.724,128.096c0.984,0.544,1.752,1.3,2.304,2.269c0.553,0.968,0.828,2.075,0.828,3.323
		s-0.275,2.36-0.828,3.336c-0.552,0.977-1.319,1.736-2.304,2.28s-2.108,0.816-3.372,0.816c-1.28,0-2.412-0.272-3.396-0.816
		c-0.984-0.544-1.752-1.3-2.305-2.268c-0.552-0.968-0.828-2.084-0.828-3.349c0-1.248,0.276-2.355,0.828-3.323
		c0.553-0.969,1.32-1.725,2.305-2.269c0.983-0.544,2.115-0.815,3.396-0.815C81.615,127.28,82.739,127.552,83.724,128.096z
		 M78.132,129.8c-0.648,0.384-1.152,0.916-1.512,1.596c-0.36,0.681-0.54,1.452-0.54,2.316c0,0.88,0.18,1.664,0.54,2.352
		c0.359,0.688,0.863,1.221,1.512,1.597c0.647,0.376,1.388,0.563,2.22,0.563c0.816,0,1.548-0.188,2.196-0.563
		c0.647-0.376,1.151-0.908,1.512-1.597c0.36-0.688,0.54-1.472,0.54-2.352c0-0.864-0.18-1.636-0.54-2.316
		c-0.36-0.68-0.864-1.212-1.512-1.596c-0.648-0.384-1.38-0.576-2.196-0.576C79.52,129.224,78.779,129.416,78.132,129.8z"/>
</g>
</svg>
