<?xml version="1.0" encoding="utf-8"?>
<!-- Generator: Adobe Illustrator 16.0.0, SVG Export Plug-In . SVG Version: 6.00 Build 0)  -->
<!DOCTYPE svg PUBLIC "-//W3C//DTD SVG 1.1//EN" "http://www.w3.org/Graphics/SVG/1.1/DTD/svg11.dtd">
<svg version="1.1" id="Layer_1" xmlns="http://www.w3.org/2000/svg" xmlns:xlink="http://www.w3.org/1999/xlink" x="0px" y="0px"
	 width="256px" height="292px" viewBox="-116 -134 256 292" enable-background="new -116 -134 256 292" xml:space="preserve">
<path fill="#FFFFFF" d="M42.58-121.307c4.688-4.027,11.77-3.473,15.78,1.226c3.603,4.185,3.603,10.375,0,14.572l-35.164,34.61
	l8.517,10.64L53.424-4.26c2.259,6.032,0.768,12.821-3.795,17.351L15.013,47.7c-6.664,6.258-17.063,6.258-23.738,0L-60.233-3.808
	c-2.972-2.977-4.581-7.015-4.485-11.2l-5.603-72.146h11.985c3.135-0.113,6.189,1.112,8.398,3.366l1.575,1.909l11.759,38.981
	 M-36.614,99.446L-100,36.28l23.749-23.755l63.386,63.392 M95.986-96.558c0,0-27.991,30.905-27.991,50.396
	c0,15.47,12.538,28.008,27.991,28.008c15.475,0,28.014-12.527,28.014-28.008C124-65.653,95.986-96.558,95.986-96.558z"/>
<g>
	<path fill="#FFFFFF" d="M-56.939,123.008h11.664v2.088h-9.359v5.184h8.376v2.088h-8.376v5.353h9.647v2.088h-11.952V123.008z"/>
	<path fill="#FFFFFF" d="M-42.923,127.111h2.592l3.144,4.656l3.192-4.656h2.472l-4.176,6.192l4.488,6.504h-2.616l-3.36-4.992
		l-3.527,4.992h-2.521l4.561-6.504L-42.923,127.111z"/>
	<path fill="#FFFFFF" d="M-21.419,139.808v-1.776c-0.944,1.248-2.424,1.872-4.44,1.872c-0.88,0-1.652-0.168-2.315-0.504
		c-0.664-0.336-1.177-0.8-1.536-1.392c-0.36-0.592-0.54-1.256-0.54-1.992c0-1.136,0.42-2.036,1.26-2.7
		c0.84-0.663,2.012-1.004,3.516-1.02h4.032v-0.601c0-0.896-0.275-1.588-0.828-2.076c-0.552-0.487-1.355-0.731-2.412-0.731
		c-1.28,0-2.584,0.456-3.912,1.368l-0.936-1.536c0.912-0.592,1.756-1.021,2.532-1.284c0.775-0.264,1.699-0.396,2.771-0.396
		c1.584,0,2.809,0.388,3.672,1.164c0.864,0.775,1.305,1.859,1.32,3.252l0.024,8.352H-21.419z M-22.751,137.3
		c0.728-0.504,1.164-1.172,1.308-2.004v-1.272h-3.72c-1.008,0-1.756,0.152-2.244,0.456c-0.488,0.305-0.732,0.784-0.732,1.44
		s0.248,1.176,0.744,1.56s1.16,0.576,1.992,0.576C-24.363,138.056-23.479,137.804-22.751,137.3z"/>
	<path fill="#FFFFFF" d="M4.597,128.359c0.832,0.88,1.248,2.08,1.248,3.601v7.848H3.589v-7.248c0-1.071-0.292-1.912-0.876-2.52
		c-0.585-0.608-1.389-0.912-2.412-0.912c-1.2,0.032-2.145,0.456-2.832,1.271c-0.688,0.816-1.032,1.864-1.032,3.145v6.264h-2.256
		v-7.248c0-1.071-0.288-1.912-0.864-2.52c-0.576-0.608-1.384-0.912-2.424-0.912c-1.2,0.032-2.148,0.456-2.844,1.271
		c-0.696,0.816-1.044,1.864-1.044,3.145v6.264h-2.232v-12.696h2.232v2.664c0.831-1.792,2.407-2.703,4.728-2.735
		c1.168,0,2.14,0.279,2.916,0.84c0.776,0.56,1.3,1.344,1.572,2.352c0.783-2.096,2.432-3.159,4.944-3.191
		C2.62,127.04,3.765,127.479,4.597,128.359z"/>
	<path fill="#FFFFFF" d="M19.38,128.779c1.009,1.16,1.513,2.772,1.513,4.836c0,0.32-0.009,0.561-0.024,0.721H10.836
		c0.176,1.136,0.652,2.04,1.429,2.712c0.775,0.672,1.731,1.008,2.867,1.008c0.752,0,1.452-0.136,2.101-0.408
		c0.647-0.271,1.212-0.655,1.691-1.151l1.225,1.271c-0.624,0.672-1.376,1.192-2.256,1.56c-0.881,0.369-1.856,0.553-2.929,0.553
		c-1.248,0-2.355-0.268-3.323-0.805c-0.969-0.535-1.721-1.291-2.256-2.268c-0.537-0.976-0.805-2.088-0.805-3.336
		s0.268-2.355,0.805-3.324c0.535-0.968,1.283-1.728,2.243-2.28c0.96-0.552,2.056-0.827,3.288-0.827
		C16.885,127.04,18.372,127.62,19.38,128.779z M18.876,132.607c-0.063-1.151-0.448-2.06-1.151-2.724
		c-0.704-0.664-1.632-0.996-2.784-0.996c-1.12,0-2.052,0.336-2.796,1.008s-1.188,1.576-1.332,2.712H18.876z"/>
	<path fill="#FFFFFF" d="M29.137,129.151c-0.633-0.191-1.236-0.288-1.813-0.288c-0.672,0-1.212,0.124-1.619,0.372
		c-0.408,0.248-0.612,0.628-0.612,1.141c0,0.512,0.228,0.899,0.684,1.164c0.456,0.264,1.148,0.531,2.076,0.804
		c0.88,0.256,1.6,0.512,2.16,0.768c0.56,0.257,1.036,0.633,1.428,1.128c0.392,0.496,0.588,1.152,0.588,1.969
		c0,1.199-0.452,2.111-1.355,2.735c-0.904,0.624-2.028,0.937-3.372,0.937c-0.944,0-1.86-0.152-2.748-0.456s-1.637-0.736-2.244-1.296
		l0.84-1.632c0.528,0.479,1.18,0.863,1.956,1.151s1.532,0.433,2.269,0.433c0.735,0,1.327-0.136,1.775-0.408s0.672-0.688,0.672-1.248
		c0-0.576-0.236-1.008-0.708-1.296s-1.188-0.576-2.147-0.864c-0.849-0.24-1.54-0.483-2.076-0.732
		c-0.536-0.247-0.992-0.611-1.368-1.092c-0.376-0.479-0.563-1.104-0.563-1.872c0-1.184,0.432-2.071,1.296-2.664
		c0.863-0.592,1.943-0.888,3.239-0.888c0.769,0,1.524,0.108,2.269,0.324s1.388,0.508,1.932,0.876l-0.815,1.704
		C30.349,129.6,29.769,129.344,29.137,129.151z"/>
	<path fill="#FFFFFF" d="M41.484,123.008h2.305v14.712h7.344v2.088h-9.648V123.008z"/>
	<path fill="#FFFFFF" d="M61.596,139.808v-1.776c-0.943,1.248-2.424,1.872-4.439,1.872c-0.88,0-1.652-0.168-2.316-0.504
		s-1.176-0.8-1.536-1.392c-0.359-0.592-0.54-1.256-0.54-1.992c0-1.136,0.421-2.036,1.261-2.7c0.84-0.663,2.012-1.004,3.516-1.02
		h4.032v-0.601c0-0.896-0.276-1.588-0.828-2.076c-0.552-0.487-1.356-0.731-2.412-0.731c-1.28,0-2.584,0.456-3.912,1.368
		l-0.936-1.536c0.912-0.592,1.756-1.021,2.532-1.284c0.775-0.264,1.699-0.396,2.771-0.396c1.584,0,2.808,0.388,3.672,1.164
		c0.864,0.775,1.304,1.859,1.32,3.252l0.023,8.352H61.596z M60.264,137.3c0.729-0.504,1.164-1.172,1.309-2.004v-1.272h-3.72
		c-1.009,0-1.757,0.152-2.244,0.456c-0.488,0.305-0.732,0.784-0.732,1.44s0.248,1.176,0.744,1.56s1.16,0.576,1.992,0.576
		C58.652,138.056,59.536,137.804,60.264,137.3z"/>
	<path fill="#FFFFFF" d="M78.012,127.855c0.928,0.544,1.647,1.305,2.16,2.28c0.512,0.976,0.768,2.096,0.768,3.36
		c0,1.247-0.252,2.355-0.756,3.323c-0.504,0.969-1.216,1.721-2.136,2.256c-0.921,0.537-1.973,0.805-3.156,0.805
		c-1.072,0-2.016-0.225-2.832-0.672c-0.816-0.448-1.456-1.088-1.92-1.92v2.52h-2.232V122h2.232v7.632
		c0.464-0.832,1.1-1.472,1.908-1.92c0.808-0.448,1.739-0.672,2.796-0.672C76.027,127.04,77.083,127.312,78.012,127.855z
		 M76.607,137.359c0.648-0.384,1.152-0.92,1.512-1.607c0.36-0.688,0.54-1.464,0.54-2.328c0-0.848-0.184-1.616-0.552-2.305
		c-0.368-0.688-0.872-1.224-1.512-1.607c-0.641-0.384-1.368-0.576-2.185-0.576c-0.815,0-1.548,0.192-2.195,0.576
		c-0.648,0.384-1.156,0.92-1.524,1.607c-0.368,0.688-0.552,1.457-0.552,2.305c0,0.88,0.184,1.66,0.552,2.34
		c0.368,0.681,0.876,1.212,1.524,1.596c0.647,0.384,1.38,0.576,2.195,0.576C75.228,137.936,75.96,137.743,76.607,137.359z"/>
</g>
</svg>
