<?xml version="1.0" encoding="utf-8"?>
<!-- Generator: Adobe Illustrator 16.0.0, SVG Export Plug-In . SVG Version: 6.00 Build 0)  -->
<!DOCTYPE svg PUBLIC "-//W3C//DTD SVG 1.1//EN" "http://www.w3.org/Graphics/SVG/1.1/DTD/svg11.dtd">
<svg version="1.1" id="Layer_1" xmlns="http://www.w3.org/2000/svg" xmlns:xlink="http://www.w3.org/1999/xlink" x="0px" y="0px"
	 width="24px" height="24px" viewBox="0 0 24 24" enable-background="new 0 0 24 24" xml:space="preserve">
<path fill="#0090ED" d="M14.644,2.574c0.406-0.348,1.018-0.3,1.365,0.106c0.311,0.362,0.311,0.897,0,1.26l-3.04,2.992l0.736,0.92
	l1.877,4.841c0.196,0.522,0.067,1.109-0.328,1.501l-2.993,2.992c-0.576,0.541-1.475,0.541-2.052,0l-4.453-4.454
	c-0.257-0.257-0.396-0.606-0.388-0.968L4.884,5.527H5.92c0.271-0.01,0.535,0.096,0.726,0.291l0.136,0.165l1.017,3.37 M7.798,21.659
	l-5.48-5.461l2.053-2.053l5.48,5.48 M19.262,4.714c0,0-2.42,2.672-2.42,4.357c0,1.337,1.084,2.421,2.42,2.421
	c1.337,0,2.421-1.083,2.421-2.421C21.683,7.386,19.262,4.714,19.262,4.714z"/>
</svg>
