<?xml version="1.0" encoding="utf-8"?>
<!-- Generator: Adobe Illustrator 16.0.0, SVG Export Plug-In . SVG Version: 6.00 Build 0)  -->
<!DOCTYPE svg PUBLIC "-//W3C//DTD SVG 1.1//EN" "http://www.w3.org/Graphics/SVG/1.1/DTD/svg11.dtd">
<svg version="1.1" id="Layer_1" xmlns="http://www.w3.org/2000/svg" xmlns:xlink="http://www.w3.org/1999/xlink" x="0px" y="0px"
	 width="256px" height="292px" viewBox="-116 -134 256 292" enable-background="new -116 -134 256 292" xml:space="preserve">
<path fill="#FFFFFF" d="M83.263-69.899H1.818V1.373h-81.456v-91.629H-100V62.455h20.362V31.908h183.269v30.547H124v-91.629
	C124-51.669,105.77-69.899,83.263-69.899 M-38.907-8.822c16.863,0,30.547-13.667,30.547-30.53c0-16.869-13.684-30.547-30.547-30.547
	c-16.869,0-30.535,13.678-30.535,30.547C-69.442-22.489-55.776-8.822-38.907-8.822z"/>
<g>
	<path fill="#FFFFFF" d="M-80.015,139.808l-3.336-5.28c-0.384,0.032-0.696,0.048-0.936,0.048h-4.272v5.232h-2.304v-16.8h6.576
		c2.127,0,3.771,0.492,4.932,1.476c1.16,0.984,1.74,2.38,1.74,4.188c0,1.36-0.316,2.504-0.948,3.432
		c-0.632,0.929-1.54,1.601-2.724,2.016l3.912,5.688H-80.015z M-84.286,132.487c1.439,0,2.544-0.315,3.312-0.947
		c0.769-0.632,1.152-1.564,1.152-2.797c0-1.199-0.384-2.107-1.152-2.724c-0.768-0.615-1.872-0.924-3.312-0.924h-4.272v7.392H-84.286
		z"/>
	<path fill="#FFFFFF" d="M-64.175,128.779c1.008,1.16,1.512,2.772,1.512,4.836c0,0.32-0.008,0.561-0.023,0.721h-10.032
		c0.176,1.136,0.651,2.04,1.428,2.712s1.731,1.008,2.868,1.008c0.752,0,1.452-0.136,2.1-0.408c0.648-0.271,1.212-0.655,1.692-1.151
		l1.224,1.271c-0.624,0.672-1.376,1.192-2.256,1.56c-0.88,0.369-1.856,0.553-2.928,0.553c-1.248,0-2.356-0.268-3.324-0.805
		c-0.968-0.535-1.72-1.291-2.256-2.268c-0.536-0.976-0.804-2.088-0.804-3.336s0.268-2.355,0.804-3.324
		c0.536-0.968,1.284-1.728,2.244-2.28c0.96-0.552,2.056-0.827,3.288-0.827C-66.671,127.04-65.183,127.62-64.175,128.779z
		 M-64.679,132.607c-0.064-1.151-0.448-2.06-1.152-2.724s-1.632-0.996-2.784-0.996c-1.12,0-2.052,0.336-2.796,1.008
		s-1.188,1.576-1.332,2.712H-64.679z"/>
	<path fill="#FFFFFF" d="M-49.391,127.855c0.928,0.544,1.647,1.305,2.16,2.28c0.512,0.976,0.768,2.096,0.768,3.36
		c0,1.247-0.252,2.355-0.756,3.323c-0.504,0.969-1.216,1.721-2.136,2.256c-0.92,0.537-1.973,0.805-3.156,0.805
		c-1.072,0-2.016-0.225-2.832-0.672c-0.815-0.448-1.456-1.088-1.92-1.92v7.176h-2.231v-17.353h2.231v2.521
		c0.464-0.832,1.1-1.472,1.908-1.92c0.808-0.448,1.74-0.672,2.796-0.672C-51.375,127.04-50.318,127.312-49.391,127.855z
		 M-50.795,137.359c0.648-0.384,1.152-0.92,1.513-1.607c0.359-0.688,0.54-1.464,0.54-2.328c0-0.848-0.185-1.616-0.553-2.305
		c-0.368-0.688-0.872-1.224-1.512-1.607s-1.368-0.576-2.184-0.576c-0.816,0-1.549,0.192-2.196,0.576
		c-0.648,0.384-1.156,0.92-1.524,1.607c-0.368,0.688-0.552,1.457-0.552,2.305c0,0.88,0.184,1.66,0.552,2.34
		c0.368,0.681,0.876,1.212,1.524,1.596c0.647,0.384,1.38,0.576,2.196,0.576C-52.175,137.936-51.442,137.743-50.795,137.359z"/>
	<path fill="#FFFFFF" d="M-34.691,127.855c0.984,0.544,1.752,1.3,2.305,2.269c0.552,0.968,0.827,2.075,0.827,3.323
		s-0.275,2.36-0.827,3.336c-0.553,0.977-1.32,1.736-2.305,2.28c-0.983,0.544-2.108,0.816-3.372,0.816
		c-1.28,0-2.412-0.272-3.396-0.816c-0.984-0.544-1.752-1.3-2.304-2.268c-0.553-0.968-0.828-2.084-0.828-3.349
		c0-1.248,0.275-2.355,0.828-3.323c0.552-0.969,1.319-1.725,2.304-2.269c0.983-0.544,2.115-0.815,3.396-0.815
		C-36.8,127.04-35.675,127.312-34.691,127.855z M-40.283,129.56c-0.647,0.384-1.152,0.916-1.512,1.596
		c-0.36,0.681-0.54,1.452-0.54,2.316c0,0.88,0.18,1.664,0.54,2.352c0.359,0.688,0.864,1.221,1.512,1.597
		c0.648,0.376,1.388,0.563,2.22,0.563c0.816,0,1.549-0.188,2.196-0.563c0.648-0.376,1.152-0.908,1.512-1.597
		c0.36-0.688,0.54-1.472,0.54-2.352c0-0.864-0.18-1.636-0.54-2.316c-0.359-0.68-0.863-1.212-1.512-1.596
		c-0.647-0.384-1.38-0.576-2.196-0.576C-38.896,128.983-39.635,129.176-40.283,129.56z"/>
	<path fill="#FFFFFF" d="M-17.207,127.111v12.696h-2.256v-2.688c-0.833,1.809-2.4,2.729-4.704,2.761
		c-1.473,0-2.625-0.436-3.456-1.309c-0.832-0.871-1.248-2.075-1.248-3.611v-7.849h2.256v7.248c0,1.072,0.292,1.908,0.876,2.508
		c0.584,0.601,1.388,0.9,2.412,0.9c1.184-0.016,2.124-0.436,2.82-1.26c0.695-0.824,1.044-1.876,1.044-3.156v-6.24H-17.207z"/>
	<path fill="#FFFFFF" d="M-7.668,129.151c-0.632-0.191-1.235-0.288-1.812-0.288c-0.672,0-1.212,0.124-1.62,0.372
		s-0.612,0.628-0.612,1.141c0,0.512,0.229,0.899,0.685,1.164c0.456,0.264,1.147,0.531,2.076,0.804
		c0.879,0.256,1.6,0.512,2.159,0.768c0.561,0.257,1.036,0.633,1.429,1.128c0.392,0.496,0.588,1.152,0.588,1.969
		c0,1.199-0.452,2.111-1.356,2.735s-2.027,0.937-3.372,0.937c-0.944,0-1.859-0.152-2.748-0.456
		c-0.888-0.304-1.636-0.736-2.244-1.296l0.841-1.632c0.527,0.479,1.18,0.863,1.956,1.151c0.775,0.288,1.531,0.433,2.268,0.433
		c0.735,0,1.328-0.136,1.776-0.408c0.447-0.272,0.672-0.688,0.672-1.248c0-0.576-0.236-1.008-0.708-1.296
		c-0.473-0.288-1.188-0.576-2.148-0.864c-0.848-0.24-1.54-0.483-2.076-0.732c-0.536-0.247-0.992-0.611-1.367-1.092
		c-0.377-0.479-0.564-1.104-0.564-1.872c0-1.184,0.432-2.071,1.296-2.664c0.864-0.592,1.944-0.888,3.24-0.888
		c0.768,0,1.523,0.108,2.268,0.324s1.389,0.508,1.933,0.876l-0.816,1.704C-6.456,129.6-7.036,129.344-7.668,129.151z"/>
	<path fill="#FFFFFF" d="M6.828,127.855c0.984,0.544,1.752,1.3,2.304,2.269c0.553,0.968,0.828,2.075,0.828,3.323
		s-0.275,2.36-0.828,3.336c-0.552,0.977-1.319,1.736-2.304,2.28c-0.983,0.544-2.108,0.816-3.372,0.816
		c-1.28,0-2.412-0.272-3.396-0.816c-0.984-0.544-1.752-1.3-2.304-2.268c-0.553-0.968-0.828-2.084-0.828-3.349
		c0-1.248,0.275-2.355,0.828-3.323c0.552-0.969,1.319-1.725,2.304-2.269c0.983-0.544,2.115-0.815,3.396-0.815
		C4.72,127.04,5.845,127.312,6.828,127.855z M1.236,129.56c-0.647,0.384-1.152,0.916-1.512,1.596c-0.36,0.681-0.54,1.452-0.54,2.316
		c0,0.88,0.18,1.664,0.54,2.352c0.359,0.688,0.864,1.221,1.512,1.597c0.648,0.376,1.388,0.563,2.22,0.563
		c0.816,0,1.549-0.188,2.196-0.563c0.648-0.376,1.152-0.908,1.512-1.597c0.36-0.688,0.54-1.472,0.54-2.352
		c0-0.864-0.18-1.636-0.54-2.316c-0.359-0.68-0.863-1.212-1.512-1.596c-0.647-0.384-1.38-0.576-2.196-0.576
		C2.624,128.983,1.885,129.176,1.236,129.56z"/>
	<path fill="#FFFFFF" d="M26.964,125.396c-0.84-0.248-1.612-0.372-2.316-0.372c-0.976,0-1.756,0.188-2.34,0.564
		s-0.876,0.892-0.876,1.548c0,0.592,0.176,1.076,0.528,1.452c0.352,0.376,0.783,0.672,1.296,0.888
		c0.512,0.216,1.224,0.468,2.136,0.756c1.136,0.353,2.056,0.688,2.76,1.008c0.704,0.32,1.304,0.797,1.8,1.429
		s0.744,1.468,0.744,2.508c0,0.96-0.26,1.8-0.779,2.52c-0.521,0.721-1.248,1.276-2.185,1.668c-0.936,0.393-2.012,0.588-3.228,0.588
		c-1.232,0-2.433-0.239-3.601-0.72c-1.168-0.479-2.176-1.119-3.023-1.92l1.031-1.992c0.801,0.784,1.7,1.389,2.7,1.813
		s1.972,0.636,2.916,0.636c1.12,0,2.004-0.22,2.652-0.66c0.647-0.439,0.972-1.035,0.972-1.788c0-0.592-0.176-1.08-0.527-1.464
		c-0.353-0.384-0.797-0.688-1.332-0.912c-0.537-0.224-1.261-0.472-2.173-0.744c-1.12-0.336-2.031-0.663-2.735-0.983
		s-1.301-0.792-1.788-1.416c-0.488-0.624-0.732-1.448-0.732-2.473c0-0.896,0.248-1.688,0.744-2.376
		c0.496-0.688,1.192-1.215,2.088-1.584c0.896-0.367,1.936-0.552,3.12-0.552c1.008,0,1.996,0.148,2.964,0.444s1.828,0.692,2.58,1.188
		l-0.96,2.064C28.615,126.016,27.804,125.644,26.964,125.396z"/>
	<path fill="#FFFFFF" d="M43.704,128.779c1.008,1.16,1.512,2.772,1.512,4.836c0,0.32-0.008,0.561-0.024,0.721H35.16
		c0.176,1.136,0.651,2.04,1.428,2.712c0.775,0.672,1.731,1.008,2.868,1.008c0.752,0,1.452-0.136,2.1-0.408
		c0.648-0.271,1.212-0.655,1.692-1.151l1.224,1.271c-0.624,0.672-1.376,1.192-2.256,1.56c-0.88,0.369-1.856,0.553-2.928,0.553
		c-1.248,0-2.356-0.268-3.324-0.805c-0.969-0.535-1.721-1.291-2.256-2.268c-0.536-0.976-0.805-2.088-0.805-3.336
		s0.269-2.355,0.805-3.324c0.535-0.968,1.284-1.728,2.244-2.28c0.96-0.552,2.056-0.827,3.288-0.827
		C41.208,127.04,42.695,127.62,43.704,128.779z M43.2,132.607c-0.064-1.151-0.448-2.06-1.152-2.724s-1.632-0.996-2.784-0.996
		c-1.12,0-2.052,0.336-2.796,1.008s-1.188,1.576-1.332,2.712H43.2z"/>
	<path fill="#FFFFFF" d="M52.271,127.771c0.768-0.472,1.68-0.716,2.735-0.731v2.159c-1.296-0.048-2.344,0.288-3.144,1.009
		c-0.801,0.72-1.257,1.688-1.368,2.903v6.696h-2.232v-12.696h2.232v2.736C50.911,128.936,51.503,128.244,52.271,127.771z"/>
	<path fill="#FFFFFF" d="M55.968,127.111h2.376l3.815,10.488l3.792-10.488h2.256l-4.943,12.696h-2.328L55.968,127.111z"/>
	<path fill="#FFFFFF" d="M72.419,122.456c0.264,0.271,0.396,0.615,0.396,1.031c0,0.417-0.132,0.761-0.396,1.032
		c-0.265,0.272-0.597,0.408-0.996,0.408c-0.4,0-0.732-0.136-0.996-0.408c-0.264-0.271-0.396-0.615-0.396-1.032
		c0-0.416,0.132-0.76,0.396-1.031c0.264-0.272,0.596-0.408,0.996-0.408C71.822,122.048,72.154,122.184,72.419,122.456z
		 M70.318,127.111h2.232v12.696h-2.232V127.111z"/>
	<path fill="#FFFFFF" d="M88.727,122v17.808h-2.231v-2.52c-0.48,0.848-1.124,1.5-1.933,1.955c-0.808,0.456-1.748,0.685-2.819,0.685
		c-1.2,0-2.261-0.276-3.181-0.828s-1.636-1.32-2.147-2.304c-0.513-0.984-0.769-2.108-0.769-3.372c0-1.248,0.256-2.356,0.769-3.324
		c0.512-0.968,1.228-1.724,2.147-2.268s1.973-0.816,3.156-0.816c1.088,0,2.04,0.225,2.856,0.672c0.815,0.448,1.455,1.097,1.92,1.944
		V122H88.727z M84.419,137.432c0.648-0.384,1.155-0.92,1.524-1.608c0.367-0.688,0.552-1.464,0.552-2.327
		c0-0.88-0.185-1.664-0.552-2.353c-0.369-0.688-0.876-1.224-1.524-1.608c-0.648-0.384-1.389-0.575-2.22-0.575
		c-0.832,0-1.572,0.195-2.221,0.588c-0.647,0.392-1.155,0.932-1.523,1.62c-0.368,0.688-0.552,1.464-0.552,2.328
		c0,0.863,0.184,1.64,0.552,2.327c0.368,0.688,0.876,1.225,1.523,1.608c0.648,0.384,1.389,0.576,2.221,0.576
		C83.03,138.008,83.771,137.815,84.419,137.432z"/>
	<path fill="#FFFFFF" d="M101.866,127.855c0.984,0.544,1.752,1.3,2.304,2.269c0.553,0.968,0.828,2.075,0.828,3.323
		s-0.275,2.36-0.828,3.336c-0.552,0.977-1.319,1.736-2.304,2.28s-2.108,0.816-3.372,0.816c-1.28,0-2.412-0.272-3.396-0.816
		c-0.984-0.544-1.752-1.3-2.305-2.268c-0.552-0.968-0.828-2.084-0.828-3.349c0-1.248,0.276-2.355,0.828-3.323
		c0.553-0.969,1.32-1.725,2.305-2.269c0.983-0.544,2.115-0.815,3.396-0.815C99.758,127.04,100.882,127.312,101.866,127.855z
		 M96.274,129.56c-0.648,0.384-1.152,0.916-1.512,1.596c-0.36,0.681-0.54,1.452-0.54,2.316c0,0.88,0.18,1.664,0.54,2.352
		c0.359,0.688,0.863,1.221,1.512,1.597c0.647,0.376,1.388,0.563,2.22,0.563c0.816,0,1.548-0.188,2.196-0.563
		c0.647-0.376,1.151-0.908,1.512-1.597c0.36-0.688,0.54-1.472,0.54-2.352c0-0.864-0.18-1.636-0.54-2.316
		c-0.36-0.68-0.864-1.212-1.512-1.596c-0.648-0.384-1.38-0.576-2.196-0.576C97.662,128.983,96.922,129.176,96.274,129.56z"/>
	<path fill="#FFFFFF" d="M112.127,127.771c0.768-0.472,1.68-0.716,2.735-0.731v2.159c-1.296-0.048-2.344,0.288-3.144,1.009
		c-0.801,0.72-1.257,1.688-1.368,2.903v6.696h-2.232v-12.696h2.232v2.736C110.767,128.936,111.358,128.244,112.127,127.771z"/>
</g>
</svg>
