<?xml version="1.0" encoding="utf-8"?>
<!-- Generator: Adobe Illustrator 16.0.0, SVG Export Plug-In . SVG Version: 6.00 Build 0)  -->
<!DOCTYPE svg PUBLIC "-//W3C//DTD SVG 1.1//EN" "http://www.w3.org/Graphics/SVG/1.1/DTD/svg11.dtd">
<svg version="1.1" id="Layer_1" xmlns="http://www.w3.org/2000/svg" xmlns:xlink="http://www.w3.org/1999/xlink" x="0px" y="0px"
	 width="256px" height="292px" viewBox="-116 -134 256 292" enable-background="new -116 -134 256 292" xml:space="preserve">
<path fill="#FFFFFF" d="M-79.383-20.337l83.044-83.049c27.61-27.485,72.118-27.485,99.717,0c27.495,27.49,27.495,72.124,0,99.728
	L20.34,79.379c-27.605,27.495-72.238,27.495-99.723,0C-106.873,51.779-106.873,7.273-79.383-20.337 M-62.704-3.659
	C-75.041,8.557-79.147,26.062-74.92,41.686l70.356-70.248l49.808,49.807l41.455-41.583c18.446-18.325,18.446-48.04,0-66.365
	c-18.331-18.445-48.04-18.445-66.359,0L-62.704-3.659z"/>
<g>
	<path fill="#FFFFFF" d="M-66.274,124.448c1.144,0.992,1.716,2.384,1.716,4.176c0,1.872-0.576,3.324-1.728,4.355
		c-1.152,1.032-2.769,1.548-4.849,1.548h-4.176v5.232h-2.304v-16.8h6.479C-69.038,122.96-67.419,123.456-66.274,124.448z
		 M-67.918,131.492c0.768-0.632,1.151-1.564,1.151-2.797c0-1.199-0.384-2.107-1.151-2.724c-0.769-0.615-1.872-0.924-3.313-0.924
		l-4.08,0.023v7.368h4.08C-69.79,132.439-68.687,132.124-67.918,131.492z"/>
	<path fill="#FFFFFF" d="M-57.719,127.724c0.768-0.472,1.68-0.716,2.736-0.731v2.159c-1.297-0.048-2.345,0.288-3.145,1.009
		c-0.8,0.72-1.256,1.688-1.368,2.903v6.696h-2.231v-12.696h2.231v2.736C-59.079,128.888-58.487,128.196-57.719,127.724z"/>
	<path fill="#FFFFFF" d="M-43.007,128.731c1.008,1.16,1.512,2.772,1.512,4.836c0,0.32-0.008,0.561-0.023,0.721h-10.032
		c0.176,1.136,0.651,2.04,1.428,2.712s1.731,1.008,2.868,1.008c0.752,0,1.452-0.136,2.1-0.408c0.648-0.271,1.212-0.655,1.692-1.151
		l1.224,1.271c-0.624,0.672-1.376,1.192-2.256,1.56c-0.88,0.369-1.856,0.553-2.928,0.553c-1.248,0-2.356-0.268-3.324-0.805
		c-0.968-0.535-1.72-1.291-2.256-2.268c-0.536-0.976-0.804-2.088-0.804-3.336s0.268-2.355,0.804-3.324
		c0.536-0.968,1.284-1.728,2.244-2.28c0.96-0.552,2.056-0.827,3.288-0.827C-45.503,126.992-44.015,127.572-43.007,128.731z
		 M-43.511,132.56c-0.064-1.151-0.448-2.06-1.152-2.724s-1.632-0.996-2.784-0.996c-1.12,0-2.052,0.336-2.796,1.008
		s-1.188,1.576-1.332,2.712H-43.511z"/>
	<path fill="#FFFFFF" d="M-33.251,129.104c-0.633-0.191-1.236-0.288-1.813-0.288c-0.672,0-1.212,0.124-1.619,0.372
		c-0.408,0.248-0.612,0.628-0.612,1.141c0,0.512,0.228,0.899,0.684,1.164c0.456,0.264,1.148,0.531,2.076,0.804
		c0.88,0.256,1.6,0.512,2.16,0.768c0.56,0.257,1.036,0.633,1.428,1.128c0.392,0.496,0.588,1.152,0.588,1.969
		c0,1.199-0.452,2.111-1.355,2.735c-0.904,0.624-2.028,0.937-3.372,0.937c-0.944,0-1.86-0.152-2.748-0.456s-1.637-0.736-2.244-1.296
		l0.84-1.632c0.528,0.479,1.18,0.863,1.956,1.151s1.532,0.433,2.269,0.433c0.735,0,1.327-0.136,1.775-0.408s0.672-0.688,0.672-1.248
		c0-0.576-0.236-1.008-0.708-1.296s-1.188-0.576-2.147-0.864c-0.849-0.24-1.54-0.483-2.076-0.732
		c-0.536-0.247-0.992-0.611-1.368-1.092c-0.376-0.479-0.563-1.104-0.563-1.872c0-1.184,0.432-2.071,1.296-2.664
		c0.863-0.592,1.943-0.888,3.239-0.888c0.769,0,1.524,0.108,2.269,0.324s1.388,0.508,1.932,0.876l-0.815,1.704
		C-32.039,129.552-32.619,129.296-33.251,129.104z"/>
	<path fill="#FFFFFF" d="M-22.127,128.983c-0.832,0-1.572,0.185-2.22,0.553c-0.648,0.368-1.156,0.888-1.524,1.56
		s-0.552,1.448-0.552,2.328s0.18,1.656,0.54,2.328c0.359,0.672,0.855,1.196,1.487,1.572s1.356,0.563,2.173,0.563
		c0.815,0,1.552-0.136,2.208-0.408c0.655-0.271,1.199-0.663,1.632-1.176l1.271,1.296c-0.576,0.72-1.308,1.272-2.195,1.656
		c-0.889,0.384-1.893,0.576-3.013,0.576c-1.232,0-2.328-0.272-3.288-0.816s-1.708-1.3-2.243-2.268
		c-0.537-0.968-0.805-2.076-0.805-3.324s0.268-2.36,0.805-3.336c0.535-0.976,1.283-1.736,2.243-2.28s2.056-0.815,3.288-0.815
		c1.072,0,2.036,0.164,2.893,0.491c0.855,0.328,1.571,0.805,2.147,1.429l-1.224,1.536C-19.511,129.472-20.72,128.983-22.127,128.983
		z"/>
	<path fill="#FFFFFF" d="M-9.911,127.724c0.768-0.472,1.68-0.716,2.736-0.731v2.159c-1.297-0.048-2.345,0.288-3.145,1.009
		c-0.8,0.72-1.256,1.688-1.368,2.903v6.696h-2.231v-12.696h2.231v2.736C-11.271,128.888-10.68,128.196-9.911,127.724z"/>
	<path fill="#FFFFFF" d="M-2.651,122.408c0.264,0.271,0.396,0.615,0.396,1.031c0,0.417-0.133,0.761-0.396,1.032
		c-0.264,0.272-0.596,0.408-0.996,0.408s-0.731-0.136-0.996-0.408c-0.264-0.271-0.396-0.615-0.396-1.032
		c0-0.416,0.132-0.76,0.396-1.031C-4.379,122.136-4.048,122-3.647,122S-2.915,122.136-2.651,122.408z M-4.751,127.063h2.231v12.696
		h-2.231V127.063z"/>
	<path fill="#FFFFFF" d="M10.188,139.136c-0.775,0.384-1.652,0.608-2.628,0.672l-0.407,1.2c0.64,0.096,1.123,0.315,1.451,0.66
		c0.328,0.344,0.492,0.747,0.492,1.212c0,0.64-0.248,1.147-0.744,1.523s-1.128,0.564-1.896,0.564c-0.752,0-1.488-0.168-2.208-0.504
		l0.479-1.368c0.513,0.208,1,0.313,1.464,0.313c0.353,0,0.628-0.076,0.828-0.229s0.301-0.324,0.301-0.516
		c0-0.208-0.108-0.381-0.324-0.517s-0.517-0.204-0.9-0.204H5.328L6,139.784c-1.072-0.128-2.016-0.477-2.832-1.044
		c-0.816-0.568-1.452-1.313-1.908-2.232s-0.684-1.948-0.684-3.084c0-1.248,0.268-2.36,0.804-3.336s1.284-1.736,2.244-2.28
		s2.056-0.815,3.288-0.815c1.071,0,2.036,0.164,2.892,0.491c0.855,0.328,1.572,0.805,2.148,1.429l-1.225,1.536
		c-1.008-0.977-2.216-1.465-3.624-1.465c-0.832,0-1.571,0.185-2.22,0.553c-0.647,0.368-1.156,0.888-1.523,1.56
		c-0.369,0.672-0.553,1.448-0.553,2.328s0.181,1.656,0.54,2.328c0.36,0.672,0.856,1.196,1.488,1.572s1.355,0.563,2.172,0.563
		s1.552-0.136,2.208-0.408c0.656-0.271,1.2-0.663,1.632-1.176l1.272,1.296C11.607,138.24,10.964,138.752,10.188,139.136z"/>
	<path fill="#FFFFFF" d="M22.44,139.76v-1.776c-0.944,1.248-2.424,1.872-4.44,1.872c-0.88,0-1.652-0.168-2.315-0.504
		c-0.664-0.336-1.177-0.8-1.536-1.392c-0.36-0.592-0.54-1.256-0.54-1.992c0-1.136,0.42-2.036,1.26-2.7
		c0.84-0.663,2.012-1.004,3.516-1.02h4.032v-0.601c0-0.896-0.275-1.588-0.828-2.076c-0.552-0.487-1.355-0.731-2.412-0.731
		c-1.28,0-2.584,0.456-3.912,1.368l-0.936-1.536c0.912-0.592,1.756-1.021,2.532-1.284c0.775-0.264,1.699-0.396,2.771-0.396
		c1.584,0,2.809,0.388,3.672,1.164c0.864,0.775,1.305,1.859,1.32,3.252l0.024,8.352H22.44z M22.62,124.34
		c-0.312,0.552-0.804,0.828-1.476,0.828c-0.336,0-0.652-0.063-0.948-0.192c-0.297-0.128-0.645-0.319-1.044-0.576
		c-0.288-0.176-0.517-0.304-0.685-0.384s-0.323-0.12-0.468-0.12c-0.512,0-0.768,0.393-0.768,1.176h-1.561
		c0-0.848,0.156-1.548,0.469-2.1c0.312-0.552,0.804-0.828,1.476-0.828c0.336,0,0.644,0.061,0.924,0.181
		c0.28,0.119,0.636,0.308,1.068,0.563c0.288,0.177,0.516,0.304,0.684,0.384s0.324,0.12,0.468,0.12c0.513,0,0.769-0.384,0.769-1.151
		h1.56C23.088,123.088,22.933,123.788,22.62,124.34z M21.108,137.252c0.728-0.504,1.164-1.172,1.308-2.004v-1.272h-3.72
		c-1.008,0-1.756,0.152-2.244,0.456c-0.488,0.305-0.732,0.784-0.732,1.44s0.248,1.176,0.744,1.56s1.16,0.576,1.992,0.576
		C19.496,138.008,20.38,137.756,21.108,137.252z"/>
	<path fill="#FFFFFF" d="M37.284,127.808c0.984,0.544,1.752,1.3,2.304,2.269c0.553,0.968,0.828,2.075,0.828,3.323
		s-0.275,2.36-0.828,3.336c-0.552,0.977-1.319,1.736-2.304,2.28s-2.108,0.816-3.372,0.816c-1.28,0-2.412-0.272-3.396-0.816
		c-0.984-0.544-1.752-1.3-2.304-2.268c-0.553-0.968-0.828-2.084-0.828-3.349c0-1.248,0.275-2.355,0.828-3.323
		c0.552-0.969,1.319-1.725,2.304-2.269c0.983-0.544,2.115-0.815,3.396-0.815C35.176,126.992,36.3,127.264,37.284,127.808z
		 M31.692,129.512c-0.647,0.384-1.152,0.916-1.512,1.596c-0.36,0.681-0.54,1.452-0.54,2.316c0,0.88,0.18,1.664,0.54,2.352
		c0.359,0.688,0.864,1.221,1.512,1.597c0.648,0.376,1.388,0.563,2.22,0.563c0.816,0,1.548-0.188,2.196-0.563
		c0.647-0.376,1.151-0.908,1.512-1.597c0.36-0.688,0.54-1.472,0.54-2.352c0-0.864-0.18-1.636-0.54-2.316
		c-0.36-0.68-0.864-1.212-1.512-1.596c-0.648-0.384-1.38-0.576-2.196-0.576C33.08,128.936,32.341,129.128,31.692,129.512z"/>
	<path fill="#FFFFFF" d="M50.04,122.96h2.304v14.712h7.344v2.088H50.04V122.96z"/>
	<path fill="#FFFFFF" d="M64.499,122.408c0.264,0.271,0.396,0.615,0.396,1.031c0,0.417-0.132,0.761-0.396,1.032
		c-0.265,0.272-0.597,0.408-0.996,0.408c-0.4,0-0.732-0.136-0.996-0.408c-0.264-0.271-0.396-0.615-0.396-1.032
		c0-0.416,0.132-0.76,0.396-1.031c0.264-0.272,0.596-0.408,0.996-0.408C63.902,122,64.234,122.136,64.499,122.408z M62.398,127.063
		h2.232v12.696h-2.232V127.063z"/>
	<path fill="#FFFFFF" d="M66.863,127.063h2.376l3.815,10.488l3.792-10.488h2.256l-4.943,12.696h-2.328L66.863,127.063z"/>
	<path fill="#FFFFFF" d="M85.391,127.724c0.768-0.472,1.68-0.716,2.735-0.731v2.159c-1.296-0.048-2.344,0.288-3.144,1.009
		c-0.801,0.72-1.257,1.688-1.368,2.903v6.696h-2.232v-12.696h2.232v2.736C84.03,128.888,84.622,128.196,85.391,127.724z"/>
	<path fill="#FFFFFF" d="M100.103,128.731c1.008,1.16,1.512,2.772,1.512,4.836c0,0.32-0.008,0.561-0.024,0.721H91.559
		c0.176,1.136,0.651,2.04,1.428,2.712c0.775,0.672,1.731,1.008,2.868,1.008c0.752,0,1.452-0.136,2.1-0.408
		c0.648-0.271,1.212-0.655,1.692-1.151l1.224,1.271c-0.624,0.672-1.376,1.192-2.256,1.56c-0.88,0.369-1.856,0.553-2.928,0.553
		c-1.248,0-2.356-0.268-3.324-0.805c-0.969-0.535-1.721-1.291-2.256-2.268c-0.536-0.976-0.805-2.088-0.805-3.336
		s0.269-2.355,0.805-3.324c0.535-0.968,1.284-1.728,2.244-2.28c0.96-0.552,2.056-0.827,3.288-0.827
		C97.606,126.992,99.094,127.572,100.103,128.731z M99.599,132.56c-0.064-1.151-0.448-2.06-1.152-2.724s-1.632-0.996-2.784-0.996
		c-1.12,0-2.052,0.336-2.796,1.008s-1.188,1.576-1.332,2.712H99.599z"/>
</g>
</svg>
