<?xml version="1.0" encoding="utf-8"?>
<!-- Generator: Adobe Illustrator 16.0.0, SVG Export Plug-In . SVG Version: 6.00 Build 0)  -->
<!DOCTYPE svg PUBLIC "-//W3C//DTD SVG 1.1//EN" "http://www.w3.org/Graphics/SVG/1.1/DTD/svg11.dtd">
<svg version="1.1" id="Layer_1" xmlns="http://www.w3.org/2000/svg" xmlns:xlink="http://www.w3.org/1999/xlink" x="0px" y="0px"
	 width="256px" height="292px" viewBox="0 0 256 292" enable-background="new 0 0 256 292" xml:space="preserve">
<path fill="#FFFFFF" stroke="#FFFFFF" stroke-miterlimit="10" d="M213.332,116.666h-16V74c0-11.84-9.6-21.333-21.332-21.333h-42.668
	v-16c0-14.728-11.938-26.667-26.666-26.667S79.999,21.938,79.999,36.666v16H37.333C25.551,52.666,16,62.217,16,73.999v40.534h16
	c16,0,28.8,12.8,28.8,28.8s-12.8,28.8-28.8,28.8H16v40.534c0,11.781,9.551,21.332,21.333,21.332h40.533v-16
	c0-16,12.8-28.799,28.8-28.799s28.8,12.799,28.8,28.799v16H176c11.781,0,21.332-9.551,21.332-21.332v-42.668h16
	c14.729,0,26.668-11.938,26.668-26.666C240,128.605,228.061,116.666,213.332,116.666z"/>
<g>
	<path fill="#FFFFFF" d="M48.646,257.498h2.262v16.8h-2.31l-9.524-13.008v13.008h-2.286v-16.8h2.31l9.549,13.031L48.646,257.498
		L48.646,257.498z"/>
	<path fill="#FFFFFF" d="M64.064,262.346c0.977,0.545,1.738,1.301,2.286,2.27c0.548,0.968,0.821,2.074,0.821,3.322
		s-0.273,2.36-0.821,3.336c-0.548,0.978-1.31,1.736-2.286,2.281c-0.976,0.543-2.092,0.815-3.346,0.815
		c-1.271,0-2.393-0.272-3.369-0.815c-0.976-0.545-1.738-1.301-2.286-2.269s-0.821-2.084-0.821-3.349
		c0-1.248,0.273-2.355,0.821-3.323c0.548-0.97,1.31-1.726,2.286-2.269c0.976-0.545,2.099-0.816,3.369-0.816
		C61.973,261.529,63.088,261.802,64.064,262.346z M58.517,264.05c-0.644,0.384-1.144,0.916-1.501,1.597
		c-0.356,0.681-0.535,1.451-0.535,2.315c0,0.88,0.179,1.664,0.535,2.353c0.357,0.688,0.857,1.221,1.501,1.597
		c0.643,0.376,1.377,0.563,2.202,0.563c0.81,0,1.536-0.188,2.179-0.563c0.644-0.376,1.144-0.908,1.501-1.597
		c0.356-0.688,0.535-1.473,0.535-2.353c0-0.864-0.179-1.636-0.535-2.315c-0.357-0.681-0.857-1.213-1.501-1.597
		c-0.643-0.384-1.369-0.575-2.179-0.575C59.894,263.475,59.159,263.666,58.517,264.05z"/>
	<path fill="#FFFFFF" d="M67.743,261.602H70.1l3.786,10.488l3.763-10.488h2.238l-4.905,12.696h-2.31L67.743,261.602z"/>
	<path fill="#FFFFFF" d="M90.139,262.346c0.977,0.545,1.738,1.301,2.286,2.27c0.548,0.968,0.821,2.074,0.821,3.322
		s-0.273,2.36-0.821,3.336c-0.548,0.978-1.31,1.736-2.286,2.281c-0.976,0.543-2.092,0.815-3.346,0.815
		c-1.271,0-2.393-0.272-3.369-0.815c-0.976-0.545-1.738-1.301-2.286-2.269c-0.548-0.968-0.821-2.084-0.821-3.349
		c0-1.248,0.273-2.355,0.821-3.323c0.548-0.97,1.31-1.726,2.286-2.269c0.976-0.545,2.099-0.816,3.369-0.816
		C88.047,261.529,89.162,261.802,90.139,262.346z M84.591,264.05c-0.644,0.384-1.144,0.916-1.501,1.597
		c-0.356,0.681-0.535,1.451-0.535,2.315c0,0.88,0.179,1.664,0.535,2.353c0.357,0.688,0.857,1.221,1.501,1.597
		c0.643,0.376,1.377,0.563,2.202,0.563c0.81,0,1.536-0.188,2.179-0.563c0.644-0.376,1.144-0.908,1.501-1.597
		c0.356-0.688,0.535-1.473,0.535-2.353c0-0.864-0.179-1.636-0.535-2.315c-0.357-0.681-0.857-1.213-1.501-1.597
		c-0.643-0.384-1.369-0.575-2.179-0.575C85.968,263.475,85.233,263.666,84.591,264.05z"/>
	<path fill="#FFFFFF" d="M101.497,263.643c-0.628-0.191-1.227-0.289-1.798-0.289c-0.667,0-1.203,0.125-1.607,0.373
		c-0.405,0.248-0.607,0.627-0.607,1.141c0,0.512,0.227,0.898,0.679,1.164c0.452,0.264,1.139,0.531,2.06,0.804
		c0.873,0.256,1.588,0.513,2.144,0.769c0.556,0.256,1.027,0.633,1.417,1.127c0.389,0.496,0.583,1.152,0.583,1.97
		c0,1.198-0.448,2.11-1.346,2.735c-0.896,0.623-2.012,0.937-3.346,0.937c-0.937,0-1.845-0.152-2.727-0.456
		c-0.881-0.305-1.623-0.736-2.226-1.296l0.833-1.632c0.523,0.479,1.171,0.863,1.94,1.15c0.771,0.288,1.521,0.434,2.251,0.434
		c0.729,0,1.317-0.137,1.762-0.408c0.445-0.271,0.667-0.688,0.667-1.248c0-0.576-0.234-1.008-0.703-1.296
		c-0.468-0.288-1.179-0.576-2.131-0.864c-0.842-0.24-1.528-0.482-2.06-0.732c-0.532-0.246-0.984-0.61-1.357-1.092
		c-0.373-0.479-0.56-1.104-0.56-1.871c0-1.185,0.429-2.071,1.286-2.664c0.857-0.592,1.929-0.889,3.215-0.889
		c0.762,0,1.512,0.108,2.25,0.324c0.738,0.216,1.377,0.508,1.917,0.876l-0.81,1.704C102.699,264.09,102.124,263.834,101.497,263.643
		z"/>
	<path fill="#FFFFFF" d="M133.203,262.85c0.824,0.881,1.238,2.08,1.238,3.602v7.848h-2.238v-7.248c0-1.07-0.291-1.912-0.869-2.52
		c-0.58-0.608-1.377-0.912-2.395-0.912c-1.189,0.031-2.127,0.456-2.81,1.271c-0.684,0.815-1.024,1.863-1.024,3.145v6.264h-2.238
		v-7.248c0-1.07-0.285-1.912-0.857-2.52c-0.571-0.608-1.373-0.912-2.404-0.912c-1.191,0.031-2.132,0.456-2.822,1.271
		s-1.036,1.863-1.036,3.145v6.264h-2.214v-12.695h2.214v2.664c0.825-1.793,2.39-2.703,4.691-2.735c1.158,0,2.123,0.278,2.893,0.84
		c0.771,0.56,1.29,1.344,1.561,2.353c0.777-2.097,2.412-3.16,4.904-3.191C131.242,261.529,132.377,261.971,133.203,262.85z"/>
	<path fill="#FFFFFF" d="M146.979,262.346c0.978,0.545,1.738,1.301,2.287,2.27c0.547,0.968,0.82,2.074,0.82,3.322
		s-0.273,2.36-0.82,3.336c-0.549,0.978-1.311,1.736-2.287,2.281c-0.976,0.543-2.092,0.815-3.346,0.815
		c-1.27,0-2.393-0.272-3.369-0.815c-0.976-0.545-1.738-1.301-2.285-2.269c-0.549-0.968-0.821-2.084-0.821-3.349
		c0-1.248,0.272-2.355,0.821-3.323c0.547-0.97,1.31-1.726,2.285-2.269c0.977-0.545,2.1-0.816,3.369-0.816
		C144.887,261.529,146.003,261.802,146.979,262.346z M141.432,264.05c-0.644,0.384-1.145,0.916-1.5,1.597
		c-0.357,0.681-0.537,1.451-0.537,2.315c0,0.88,0.18,1.664,0.537,2.353c0.355,0.688,0.856,1.221,1.5,1.597
		c0.643,0.376,1.377,0.563,2.201,0.563c0.811,0,1.536-0.188,2.18-0.563c0.644-0.376,1.144-0.908,1.5-1.597
		c0.357-0.688,0.535-1.473,0.535-2.353c0-0.864-0.178-1.636-0.535-2.315c-0.356-0.681-0.856-1.213-1.5-1.597
		s-1.369-0.575-2.18-0.575C142.809,263.475,142.072,263.666,141.432,264.05z M144.943,256.25l2.285,1.008l-2.953,2.352l-1.881-0.238
		L144.943,256.25z"/>
	<path fill="#FFFFFF" d="M164.921,256.49v17.808h-2.214v-2.521c-0.477,0.849-1.116,1.5-1.917,1.955
		c-0.802,0.457-1.735,0.686-2.798,0.686c-1.191,0-2.243-0.275-3.155-0.828c-0.913-0.552-1.624-1.32-2.132-2.304
		c-0.508-0.984-0.762-2.108-0.762-3.372c0-1.248,0.254-2.355,0.762-3.324c0.508-0.968,1.219-1.724,2.132-2.268
		c0.912-0.545,1.956-0.816,3.131-0.816c1.079,0,2.024,0.225,2.834,0.672c0.81,0.448,1.444,1.098,1.905,1.944v-7.632H164.921z
		 M160.646,271.922c0.644-0.384,1.146-0.92,1.513-1.607c0.364-0.688,0.548-1.465,0.548-2.328c0-0.879-0.184-1.663-0.548-2.353
		c-0.365-0.688-0.869-1.224-1.513-1.608c-0.644-0.383-1.377-0.574-2.203-0.574c-0.825,0-1.56,0.195-2.202,0.588
		c-0.644,0.393-1.146,0.932-1.513,1.62c-0.365,0.688-0.547,1.464-0.547,2.327s0.182,1.641,0.547,2.328s0.869,1.225,1.513,1.607
		c0.644,0.385,1.377,0.576,2.202,0.576C159.27,272.498,160.004,272.307,160.646,271.922z"/>
	<path fill="#FFFFFF" d="M180.52,261.602v12.696h-2.238v-2.688c-0.826,1.81-2.383,2.729-4.668,2.762
		c-1.461,0-2.604-0.436-3.43-1.309c-0.824-0.871-1.238-2.076-1.238-3.611v-7.85h2.238v7.248c0,1.072,0.291,1.908,0.869,2.508
		c0.579,0.602,1.377,0.9,2.395,0.9c1.175-0.016,2.107-0.436,2.798-1.26s1.036-1.876,1.036-3.156v-6.24H180.52z"/>
	<path fill="#FFFFFF" d="M184.947,256.49h2.215v17.808h-2.215V256.49z"/>
	<path fill="#FFFFFF" d="M200.197,262.346c0.978,0.545,1.738,1.301,2.287,2.27c0.548,0.968,0.82,2.074,0.82,3.322
		s-0.272,2.36-0.82,3.336c-0.549,0.978-1.311,1.736-2.287,2.281c-0.975,0.543-2.092,0.815-3.346,0.815
		c-1.27,0-2.393-0.272-3.369-0.815c-0.976-0.545-1.737-1.301-2.285-2.269c-0.549-0.968-0.821-2.084-0.821-3.349
		c0-1.248,0.272-2.355,0.821-3.323c0.548-0.97,1.31-1.726,2.285-2.269c0.977-0.545,2.101-0.816,3.369-0.816
		C198.105,261.529,199.223,261.802,200.197,262.346z M194.65,264.05c-0.644,0.384-1.145,0.916-1.5,1.597
		c-0.357,0.681-0.537,1.451-0.537,2.315c0,0.88,0.18,1.664,0.537,2.353c0.355,0.688,0.856,1.221,1.5,1.597
		c0.643,0.376,1.377,0.563,2.201,0.563c0.811,0,1.537-0.188,2.18-0.563c0.644-0.376,1.144-0.908,1.5-1.597
		c0.357-0.688,0.535-1.473,0.535-2.353c0-0.864-0.178-1.636-0.535-2.315c-0.356-0.681-0.856-1.213-1.5-1.597
		c-0.643-0.384-1.369-0.575-2.18-0.575C196.027,263.475,195.293,263.666,194.65,264.05z"/>
	<path fill="#FFFFFF" d="M211.557,263.643c-0.627-0.191-1.227-0.289-1.798-0.289c-0.667,0-1.202,0.125-1.606,0.373
		s-0.607,0.627-0.607,1.141c0,0.512,0.227,0.898,0.68,1.164c0.453,0.264,1.139,0.531,2.061,0.804
		c0.872,0.256,1.587,0.513,2.143,0.769c0.557,0.256,1.027,0.633,1.418,1.127c0.389,0.496,0.582,1.152,0.582,1.97
		c0,1.198-0.447,2.11-1.345,2.735c-0.897,0.623-2.013,0.937-3.347,0.937c-0.938,0-1.846-0.152-2.727-0.456
		c-0.881-0.305-1.623-0.736-2.227-1.296l0.833-1.632c0.524,0.479,1.171,0.863,1.94,1.15c0.771,0.288,1.521,0.434,2.25,0.434
		s1.317-0.137,1.762-0.408c0.445-0.271,0.668-0.688,0.668-1.248c0-0.576-0.234-1.008-0.702-1.296
		c-0.47-0.288-1.179-0.576-2.132-0.864c-0.842-0.24-1.527-0.482-2.061-0.732c-0.531-0.246-0.984-0.61-1.357-1.092
		c-0.373-0.479-0.56-1.104-0.56-1.871c0-1.185,0.429-2.071,1.286-2.664c0.857-0.592,1.93-0.889,3.215-0.889
		c0.762,0,1.512,0.108,2.25,0.324s1.377,0.508,1.918,0.876l-0.811,1.704C212.759,264.09,212.184,263.834,211.557,263.643z"/>
	<path fill="#FFFFFF" d="M218.843,272.139c0.246,0.256,0.369,0.584,0.369,0.983s-0.123,0.731-0.369,0.996
		c-0.245,0.264-0.552,0.396-0.917,0.396s-0.675-0.132-0.929-0.396c-0.254-0.265-0.381-0.597-0.381-0.996s0.127-0.729,0.381-0.983
		c0.254-0.256,0.563-0.385,0.929-0.385C218.292,271.754,218.598,271.882,218.843,272.139z M216.854,257.738h2.144v4.104
		l-0.356,7.297h-1.453l-0.332-7.297v-4.104H216.854z"/>
</g>
</svg>
