<?xml version="1.0" encoding="utf-8"?>
<!-- Generator: Adobe Illustrator 16.0.0, SVG Export Plug-In . SVG Version: 6.00 Build 0)  -->
<!DOCTYPE svg PUBLIC "-//W3C//DTD SVG 1.1//EN" "http://www.w3.org/Graphics/SVG/1.1/DTD/svg11.dtd">
<svg version="1.1" id="Layer_1" xmlns="http://www.w3.org/2000/svg" xmlns:xlink="http://www.w3.org/1999/xlink" x="0px" y="0px"
	 width="256px" height="292px" viewBox="-116 -134 256 292" enable-background="new -116 -134 256 292" xml:space="preserve">
<path fill="#FFFFFF" d="M-21.6-101.6c0-12.431,9.97-22.4,22.399-22.4c12.431,0,22.4,9.97,22.4,22.4C23.2-89.17,13.23-79.2,0.8-79.2
	C-11.63-79.2-21.6-89.17-21.6-101.6 M56.8-0.8c0-15.007-9.297-28-22.399-33.601C34.4-52.961,19.351-68,0.8-68
	c-18.561,0-33.6,15.039-33.6,33.6V44h22.4v56h33.6V44h33.6V-0.8z"/>
<g>
	<path fill="#FFFFFF" d="M-30.047,124.736c1.144,0.992,1.716,2.384,1.716,4.176c0,1.872-0.576,3.324-1.729,4.355
		c-1.151,1.032-2.768,1.548-4.848,1.548h-4.176v5.232h-2.305v-16.8h6.48C-32.812,123.248-31.191,123.744-30.047,124.736z
		 M-31.691,131.78c0.768-0.632,1.152-1.564,1.152-2.797c0-1.199-0.385-2.107-1.152-2.724c-0.768-0.615-1.872-0.924-3.312-0.924
		l-4.08,0.023v7.368h4.08C-33.563,132.728-32.459,132.412-31.691,131.78z"/>
	<path fill="#FFFFFF" d="M-21.491,128.012c0.768-0.472,1.68-0.716,2.736-0.731v2.159c-1.297-0.048-2.345,0.288-3.145,1.009
		c-0.8,0.72-1.256,1.688-1.368,2.903v6.696h-2.231v-12.696h2.231v2.736C-22.852,129.176-22.26,128.484-21.491,128.012z"/>
	<path fill="#FFFFFF" d="M-6.78,129.02c1.009,1.16,1.513,2.772,1.513,4.836c0,0.32-0.009,0.561-0.024,0.721h-10.032
		c0.176,1.136,0.652,2.04,1.429,2.712c0.775,0.672,1.731,1.008,2.867,1.008c0.752,0,1.452-0.136,2.101-0.408
		c0.647-0.271,1.212-0.655,1.691-1.151l1.225,1.271c-0.624,0.672-1.376,1.192-2.256,1.56c-0.881,0.369-1.856,0.553-2.929,0.553
		c-1.248,0-2.355-0.268-3.323-0.805c-0.969-0.535-1.721-1.291-2.256-2.268c-0.537-0.976-0.805-2.088-0.805-3.336
		s0.268-2.355,0.805-3.324c0.535-0.968,1.283-1.728,2.243-2.28c0.96-0.552,2.056-0.827,3.288-0.827
		C-9.275,127.28-7.788,127.86-6.78,129.02z M-7.284,132.848c-0.063-1.151-0.448-2.06-1.151-2.724
		c-0.704-0.664-1.632-0.996-2.784-0.996c-1.12,0-2.052,0.336-2.796,1.008s-1.188,1.576-1.332,2.712H-7.284z M-10.044,122
		l2.304,1.008l-2.976,2.352l-1.896-0.239L-10.044,122z"/>
	<path fill="#FFFFFF" d="M-2.892,131.96h5.735v1.607h-5.735V131.96z"/>
	<path fill="#FFFFFF" d="M18.732,123.248h2.279v16.8h-2.327L9.084,127.04v13.008H6.78v-16.8h2.328l9.624,13.032V123.248z"/>
	<path fill="#FFFFFF" d="M33.372,140.048v-1.776c-0.944,1.248-2.424,1.872-4.44,1.872c-0.88,0-1.652-0.168-2.315-0.504
		c-0.664-0.336-1.177-0.8-1.536-1.392c-0.36-0.592-0.54-1.256-0.54-1.992c0-1.136,0.42-2.036,1.26-2.7
		c0.84-0.663,2.012-1.004,3.516-1.02h4.032v-0.601c0-0.896-0.275-1.588-0.828-2.076c-0.552-0.487-1.355-0.731-2.412-0.731
		c-1.28,0-2.584,0.456-3.912,1.368l-0.936-1.536c0.912-0.592,1.756-1.021,2.532-1.284c0.775-0.264,1.699-0.396,2.771-0.396
		c1.584,0,2.809,0.388,3.672,1.164c0.864,0.775,1.305,1.859,1.32,3.252l0.024,8.352H33.372z M32.04,137.54
		c0.728-0.504,1.164-1.172,1.308-2.004v-1.272h-3.72c-1.008,0-1.756,0.152-2.244,0.456c-0.488,0.305-0.732,0.784-0.732,1.44
		s0.248,1.176,0.744,1.56s1.16,0.576,1.992,0.576C30.428,138.296,31.312,138.044,32.04,137.54z"/>
	<path fill="#FFFFFF" d="M46.38,139.208c-0.977,0.624-1.968,0.936-2.977,0.936c-1.008,0-1.823-0.3-2.447-0.899
		c-0.624-0.601-0.937-1.508-0.937-2.725v-7.031h-1.8v-1.704h1.8v-3.408h2.256v3.408h3.889v1.704h-3.889v6.624
		c0,0.704,0.128,1.208,0.384,1.512s0.641,0.456,1.152,0.456c0.608,0,1.264-0.2,1.968-0.601L46.38,139.208z"/>
	<path fill="#FFFFFF" d="M56.844,140.048v-1.776c-0.944,1.248-2.424,1.872-4.44,1.872c-0.88,0-1.652-0.168-2.315-0.504
		c-0.664-0.336-1.177-0.8-1.536-1.392c-0.36-0.592-0.54-1.256-0.54-1.992c0-1.136,0.42-2.036,1.26-2.7
		c0.84-0.663,2.012-1.004,3.516-1.02h4.032v-0.601c0-0.896-0.275-1.588-0.828-2.076c-0.552-0.487-1.355-0.731-2.412-0.731
		c-1.28,0-2.584,0.456-3.912,1.368l-0.936-1.536c0.912-0.592,1.756-1.021,2.532-1.284c0.775-0.264,1.699-0.396,2.771-0.396
		c1.584,0,2.809,0.388,3.672,1.164c0.864,0.775,1.305,1.859,1.32,3.252l0.024,8.352H56.844z M55.512,137.54
		c0.728-0.504,1.164-1.172,1.308-2.004v-1.272H53.1c-1.008,0-1.756,0.152-2.244,0.456c-0.488,0.305-0.732,0.784-0.732,1.44
		s0.248,1.176,0.744,1.56s1.16,0.576,1.992,0.576C53.899,138.296,54.783,138.044,55.512,137.54z"/>
	<path fill="#FFFFFF" d="M63.155,122.24h2.232v17.808h-2.232V122.24z"/>
</g>
</svg>
