<?xml version="1.0" encoding="utf-8"?>
<!-- Generator: Adobe Illustrator 16.0.0, SVG Export Plug-In . SVG Version: 6.00 Build 0)  -->
<!DOCTYPE svg PUBLIC "-//W3C//DTD SVG 1.1//EN" "http://www.w3.org/Graphics/SVG/1.1/DTD/svg11.dtd">
<svg version="1.1" id="Layer_1" xmlns="http://www.w3.org/2000/svg" xmlns:xlink="http://www.w3.org/1999/xlink" x="0px" y="0px"
	 width="256px" height="292px" viewBox="-116 -134 256 292" enable-background="new -116 -134 256 292" xml:space="preserve">
<path fill="#FFFFFF" d="M22.074-103.637c39.714,0,71.273,31.565,71.273,71.273c0,28.507-16.287,52.947-40.728,64.144v47.856h-71.273
	V49.091h-10.182c-11.201,0-20.364-9.167-20.364-20.363V-1.818h-15.272c-4.072,0-7.129-5.091-4.072-8.144l19.345-25.454
	C-47.161-74.11-16.615-103.637,22.074-103.637 M22.074-124c-46.837,0-85.526,34.617-90.618,80.436l-16.292,21.383
	c-6.11,8.144-6.11,18.325-2.038,26.469c4.077,7.129,10.181,12.22,17.311,13.244v11.196c0,19.35,13.234,34.622,30.546,39.713V100h112
	V44c25.454-17.311,40.727-44.804,40.727-76.363C113.711-83.272,72.984-124,22.074-124 M-8.471-32.363
	c-6.11,0-10.182-4.072-10.182-10.182c0-6.11,4.071-10.183,10.182-10.183S1.71-48.655,1.71-42.545
	C1.71-36.436-2.361-32.363-8.471-32.363 M22.074-32.363c-6.109,0-10.182-4.072-10.182-10.182c0-6.11,4.073-10.183,10.182-10.183
	c6.105,0,10.183,4.072,10.183,10.183C32.257-36.436,28.18-32.363,22.074-32.363 M52.62-32.363c-5.091,0-10.182-4.072-10.182-10.182
	c0-6.11,5.091-10.183,10.182-10.183s10.182,4.072,10.182,10.183C62.802-36.436,57.711-32.363,52.62-32.363z"/>
<g>
	<path fill="#FFFFFF" d="M-80.039,123.248h11.664v2.088h-9.36v5.184h8.376v2.088h-8.376v5.353h9.648v2.088h-11.952V123.248z"/>
	<path fill="#FFFFFF" d="M-66.023,127.352h2.592l3.144,4.656l3.192-4.656h2.472l-4.176,6.192l4.488,6.504h-2.616l-3.36-4.992
		l-3.528,4.992h-2.52l4.56-6.504L-66.023,127.352z"/>
	<path fill="#FFFFFF" d="M-44.519,140.048v-1.776c-0.944,1.248-2.424,1.872-4.44,1.872c-0.88,0-1.652-0.168-2.316-0.504
		c-0.664-0.336-1.176-0.8-1.536-1.392s-0.54-1.256-0.54-1.992c0-1.136,0.42-2.036,1.26-2.7c0.84-0.663,2.012-1.004,3.516-1.02h4.032
		v-0.601c0-0.896-0.276-1.588-0.828-2.076c-0.552-0.487-1.356-0.731-2.412-0.731c-1.28,0-2.584,0.456-3.912,1.368l-0.936-1.536
		c0.912-0.592,1.755-1.021,2.532-1.284c0.776-0.264,1.7-0.396,2.772-0.396c1.584,0,2.808,0.388,3.672,1.164
		c0.864,0.775,1.304,1.859,1.32,3.252l0.024,8.352H-44.519z M-45.851,137.54c0.728-0.504,1.164-1.172,1.308-2.004v-1.272h-3.72
		c-1.008,0-1.756,0.152-2.244,0.456c-0.488,0.305-0.732,0.784-0.732,1.44s0.248,1.176,0.744,1.56
		c0.496,0.384,1.16,0.576,1.992,0.576C-47.463,138.296-46.579,138.044-45.851,137.54z"/>
	<path fill="#FFFFFF" d="M-18.503,128.6c0.832,0.88,1.248,2.08,1.248,3.601v7.848h-2.256V132.8c0-1.071-0.292-1.912-0.876-2.52
		c-0.584-0.608-1.388-0.912-2.412-0.912c-1.2,0.032-2.144,0.456-2.832,1.271c-0.688,0.816-1.032,1.864-1.032,3.145v6.264h-2.256
		V132.8c0-1.071-0.288-1.912-0.864-2.52c-0.576-0.608-1.384-0.912-2.424-0.912c-1.2,0.032-2.148,0.456-2.844,1.271
		c-0.696,0.816-1.044,1.864-1.044,3.145v6.264h-2.232v-12.696h2.232v2.664c0.832-1.792,2.408-2.703,4.728-2.735
		c1.167,0,2.14,0.279,2.916,0.84c0.776,0.56,1.3,1.344,1.572,2.352c0.784-2.096,2.432-3.159,4.944-3.191
		C-20.479,127.28-19.335,127.72-18.503,128.6z"/>
	<path fill="#FFFFFF" d="M-3.719,129.02c1.008,1.16,1.512,2.772,1.512,4.836c0,0.32-0.008,0.561-0.024,0.721h-10.032
		c0.176,1.136,0.652,2.04,1.428,2.712c0.776,0.672,1.731,1.008,2.868,1.008c0.752,0,1.452-0.136,2.1-0.408
		c0.648-0.271,1.212-0.655,1.692-1.151l1.224,1.271c-0.624,0.672-1.376,1.192-2.256,1.56c-0.88,0.369-1.856,0.553-2.928,0.553
		c-1.248,0-2.356-0.268-3.324-0.805c-0.968-0.535-1.72-1.291-2.256-2.268c-0.537-0.976-0.804-2.088-0.804-3.336
		s0.268-2.355,0.804-3.324c0.536-0.968,1.284-1.728,2.244-2.28c0.96-0.552,2.056-0.827,3.288-0.827
		C-6.215,127.28-4.727,127.86-3.719,129.02z M-4.223,132.848c-0.064-1.151-0.448-2.06-1.152-2.724
		c-0.704-0.664-1.632-0.996-2.784-0.996c-1.12,0-2.052,0.336-2.796,1.008s-1.188,1.576-1.332,2.712H-4.223z"/>
	<path fill="#FFFFFF" d="M18.685,124.736c1.144,0.992,1.716,2.384,1.716,4.176c0,1.872-0.576,3.324-1.729,4.355
		c-1.151,1.032-2.768,1.548-4.848,1.548H9.648v5.232H7.344v-16.8h6.48C15.92,123.248,17.54,123.744,18.685,124.736z M17.041,131.78
		c0.768-0.632,1.151-1.564,1.151-2.797c0-1.199-0.384-2.107-1.151-2.724c-0.769-0.615-1.873-0.924-3.313-0.924l-4.08,0.023v7.368
		h4.08C15.168,132.728,16.272,132.412,17.041,131.78z"/>
	<path fill="#FFFFFF" d="M28.428,129.392c-0.632-0.191-1.235-0.288-1.812-0.288c-0.672,0-1.212,0.124-1.62,0.372
		s-0.611,0.628-0.611,1.141c0,0.512,0.228,0.899,0.684,1.164c0.456,0.264,1.148,0.531,2.076,0.804c0.879,0.256,1.6,0.512,2.16,0.768
		c0.56,0.257,1.035,0.633,1.428,1.128c0.392,0.496,0.588,1.152,0.588,1.969c0,1.199-0.452,2.111-1.355,2.735
		c-0.904,0.624-2.028,0.937-3.373,0.937c-0.943,0-1.859-0.152-2.748-0.456c-0.887-0.304-1.636-0.736-2.244-1.296l0.841-1.632
		c0.528,0.479,1.18,0.863,1.956,1.151c0.775,0.288,1.531,0.433,2.268,0.433s1.328-0.136,1.776-0.408s0.672-0.688,0.672-1.248
		c0-0.576-0.236-1.008-0.708-1.296c-0.473-0.288-1.188-0.576-2.148-0.864c-0.848-0.24-1.539-0.483-2.076-0.732
		c-0.535-0.247-0.992-0.611-1.367-1.092c-0.377-0.479-0.564-1.104-0.564-1.872c0-1.184,0.432-2.071,1.297-2.664
		c0.863-0.592,1.943-0.888,3.239-0.888c0.769,0,1.524,0.108,2.269,0.324s1.388,0.508,1.932,0.876l-0.816,1.704
		C29.641,129.84,29.061,129.584,28.428,129.392z"/>
	<path fill="#FFFFFF" d="M36.696,122L39,123.008l-2.977,2.352l-1.896-0.239L36.696,122z M34.271,127.352h2.232v12.696h-2.232
		V127.352z"/>
	<path fill="#FFFFFF" d="M52.68,127.352v17.353h-2.231v-7.176c-0.48,0.848-1.124,1.5-1.933,1.955
		c-0.808,0.456-1.748,0.685-2.819,0.685c-1.2,0-2.261-0.276-3.181-0.828s-1.636-1.32-2.147-2.304
		c-0.513-0.984-0.769-2.108-0.769-3.372c0-1.248,0.256-2.356,0.769-3.324c0.512-0.968,1.228-1.724,2.147-2.268
		s1.973-0.816,3.156-0.816c1.088,0,2.04,0.225,2.856,0.672c0.815,0.448,1.455,1.097,1.92,1.944v-2.521H52.68z M48.372,137.672
		c0.648-0.384,1.155-0.92,1.524-1.608c0.367-0.688,0.552-1.464,0.552-2.327c0-0.88-0.185-1.664-0.552-2.353
		c-0.369-0.688-0.876-1.224-1.524-1.608c-0.648-0.384-1.389-0.575-2.22-0.575c-0.832,0-1.572,0.195-2.221,0.588
		c-0.647,0.392-1.155,0.932-1.523,1.62c-0.368,0.688-0.552,1.464-0.552,2.328c0,0.863,0.184,1.64,0.552,2.327
		c0.368,0.688,0.876,1.225,1.523,1.608c0.648,0.384,1.389,0.576,2.221,0.576C46.983,138.248,47.724,138.056,48.372,137.672z"/>
	<path fill="#FFFFFF" d="M68.399,127.352v12.696h-2.256v-2.688c-0.832,1.809-2.4,2.729-4.704,2.761
		c-1.473,0-2.624-0.436-3.456-1.309c-0.832-0.871-1.248-2.075-1.248-3.611v-7.849h2.256v7.248c0,1.072,0.292,1.908,0.876,2.508
		c0.584,0.601,1.388,0.9,2.412,0.9c1.184-0.016,2.124-0.436,2.82-1.26c0.695-0.824,1.044-1.876,1.044-3.156v-6.24H68.399z"/>
	<path fill="#FFFFFF" d="M74.844,122.696c0.264,0.271,0.396,0.615,0.396,1.031c0,0.417-0.132,0.761-0.396,1.032
		c-0.265,0.272-0.597,0.408-0.996,0.408c-0.4,0-0.732-0.136-0.996-0.408c-0.264-0.271-0.396-0.615-0.396-1.032
		c0-0.416,0.132-0.76,0.396-1.031c0.264-0.272,0.596-0.408,0.996-0.408C74.247,122.288,74.579,122.424,74.844,122.696z
		 M72.743,127.352h2.232v12.696h-2.232V127.352z"/>
	<path fill="#FFFFFF" d="M84.599,129.271c-0.832,0-1.572,0.185-2.22,0.553c-0.648,0.368-1.156,0.888-1.524,1.56
		s-0.552,1.448-0.552,2.328s0.18,1.656,0.54,2.328s0.855,1.196,1.488,1.572c0.632,0.376,1.355,0.563,2.172,0.563
		c0.815,0,1.552-0.136,2.208-0.408c0.655-0.271,1.2-0.663,1.632-1.176l1.272,1.296c-0.576,0.72-1.309,1.272-2.196,1.656
		s-1.893,0.576-3.012,0.576c-1.232,0-2.328-0.272-3.288-0.816s-1.709-1.3-2.244-2.268c-0.536-0.968-0.805-2.076-0.805-3.324
		s0.269-2.36,0.805-3.336c0.535-0.976,1.284-1.736,2.244-2.28s2.056-0.815,3.288-0.815c1.071,0,2.035,0.164,2.892,0.491
		c0.855,0.328,1.572,0.805,2.147,1.429l-1.224,1.536C87.215,129.76,86.007,129.271,84.599,129.271z"/>
	<path fill="#FFFFFF" d="M100.907,128.096c0.984,0.544,1.752,1.3,2.304,2.269c0.553,0.968,0.828,2.075,0.828,3.323
		s-0.275,2.36-0.828,3.336c-0.552,0.977-1.319,1.736-2.304,2.28s-2.108,0.816-3.372,0.816c-1.28,0-2.412-0.272-3.396-0.816
		c-0.984-0.544-1.752-1.3-2.305-2.268c-0.552-0.968-0.828-2.084-0.828-3.349c0-1.248,0.276-2.355,0.828-3.323
		c0.553-0.969,1.32-1.725,2.305-2.269c0.983-0.544,2.115-0.815,3.396-0.815C98.799,127.28,99.923,127.552,100.907,128.096z
		 M95.315,129.8c-0.648,0.384-1.152,0.916-1.512,1.596c-0.36,0.681-0.54,1.452-0.54,2.316c0,0.88,0.18,1.664,0.54,2.352
		c0.359,0.688,0.863,1.221,1.512,1.597c0.647,0.376,1.388,0.563,2.22,0.563c0.816,0,1.548-0.188,2.196-0.563
		c0.647-0.376,1.151-0.908,1.512-1.597c0.36-0.688,0.54-1.472,0.54-2.352c0-0.864-0.18-1.636-0.54-2.316
		c-0.36-0.68-0.864-1.212-1.512-1.596c-0.648-0.384-1.38-0.576-2.196-0.576C96.703,129.224,95.963,129.416,95.315,129.8z"/>
</g>
</svg>
