<?xml version="1.0" encoding="utf-8"?>
<!-- Generator: Adobe Illustrator 16.0.0, SVG Export Plug-In . SVG Version: 6.00 Build 0)  -->
<!DOCTYPE svg PUBLIC "-//W3C//DTD SVG 1.1//EN" "http://www.w3.org/Graphics/SVG/1.1/DTD/svg11.dtd">
<svg version="1.1" id="Layer_1" xmlns="http://www.w3.org/2000/svg" xmlns:xlink="http://www.w3.org/1999/xlink" x="0px" y="0px"
	 width="256px" height="292px" viewBox="-116 -134 256 292" enable-background="new -116 -134 256 292" xml:space="preserve">
<path fill="#FFFFFF" d="M28.801-124v89.6h89.6C118.4-83.881,78.281-124,28.801-124 M99.588,31.575
	C111.346,16.448,118.4-2.594,118.4-23.2H-44.672L-55.2-45.6h-39.2V-23.2h24.866c0,0,21.164,45.588,23.74,49.503
	C-58.109,32.8-66.4,45.903-66.4,60.8c0,21.656,17.549,39.2,39.2,39.2c19.709,0,36.066-14.558,38.751-33.6h23.296
	C37.527,85.442,53.891,100,73.6,100c21.656,0,39.201-17.544,39.201-39.2C112.801,49.151,107.648,38.729,99.588,31.575 M-27.2,77.6
	c-9.286,0-16.8-7.524-16.8-16.8c0-9.274,7.514-16.8,16.8-16.8s16.8,7.525,16.8,16.8C-10.4,70.075-17.914,77.6-27.2,77.6 M73.6,77.6
	c-9.275,0-16.799-7.524-16.799-16.8c0-9.274,7.523-16.8,16.799-16.8S90.4,51.525,90.4,60.8C90.4,70.075,82.875,77.6,73.6,77.6z"/>
<g>
	<path fill="#FFFFFF" d="M-47.11,124.496c1.144,0.992,1.716,2.384,1.716,4.176c0,1.872-0.576,3.324-1.728,4.355
		c-1.152,1.032-2.769,1.548-4.849,1.548h-4.176v5.232h-2.304v-16.8h6.479C-49.874,123.008-48.255,123.504-47.11,124.496z
		 M-48.754,131.54c0.768-0.632,1.151-1.564,1.151-2.797c0-1.199-0.384-2.107-1.151-2.724c-0.769-0.615-1.872-0.924-3.313-0.924
		l-4.08,0.023v7.368h4.08C-50.626,132.487-49.522,132.172-48.754,131.54z"/>
	<path fill="#FFFFFF" d="M-31.331,127.111v12.696h-2.256v-2.688c-0.832,1.809-2.4,2.729-4.704,2.761
		c-1.472,0-2.624-0.436-3.456-1.309c-0.832-0.871-1.248-2.075-1.248-3.611v-7.849h2.256v7.248c0,1.072,0.292,1.908,0.876,2.508
		c0.584,0.601,1.389,0.9,2.412,0.9c1.185-0.016,2.124-0.436,2.82-1.26s1.044-1.876,1.044-3.156v-6.24H-31.331z"/>
	<path fill="#FFFFFF" d="M-17.435,128.779c1.008,1.16,1.512,2.772,1.512,4.836c0,0.32-0.008,0.561-0.023,0.721h-10.032
		c0.176,1.136,0.651,2.04,1.428,2.712s1.731,1.008,2.868,1.008c0.752,0,1.452-0.136,2.1-0.408c0.648-0.271,1.212-0.655,1.692-1.151
		l1.224,1.271c-0.624,0.672-1.376,1.192-2.256,1.56c-0.88,0.369-1.856,0.553-2.928,0.553c-1.248,0-2.356-0.268-3.324-0.805
		c-0.968-0.535-1.72-1.291-2.256-2.268c-0.536-0.976-0.804-2.088-0.804-3.336s0.268-2.355,0.804-3.324
		c0.536-0.968,1.284-1.728,2.244-2.28c0.96-0.552,2.056-0.827,3.288-0.827C-19.931,127.04-18.442,127.62-17.435,128.779z
		 M-17.938,132.607c-0.064-1.151-0.448-2.06-1.152-2.724s-1.632-0.996-2.784-0.996c-1.12,0-2.052,0.336-2.796,1.008
		s-1.188,1.576-1.332,2.712H-17.938z"/>
	<path fill="#FFFFFF" d="M-8.867,127.771c0.769-0.472,1.681-0.716,2.736-0.731v2.159c-1.296-0.048-2.344,0.288-3.144,1.009
		c-0.801,0.72-1.257,1.688-1.368,2.903v6.696h-2.232v-12.696h2.232v2.736C-10.227,128.936-9.635,128.244-8.867,127.771z"/>
	<path fill="#FFFFFF" d="M-1.607,122.456c0.264,0.271,0.396,0.615,0.396,1.031c0,0.417-0.133,0.761-0.396,1.032
		c-0.264,0.272-0.596,0.408-0.996,0.408s-0.731-0.136-0.996-0.408c-0.264-0.271-0.396-0.615-0.396-1.032
		c0-0.416,0.132-0.76,0.396-1.031c0.265-0.272,0.596-0.408,0.996-0.408S-1.871,122.184-1.607,122.456z M-3.707,127.111h2.231v12.696
		h-2.231V127.111z"/>
	<path fill="#FFFFFF" d="M8.148,129.031c-0.832,0-1.572,0.185-2.22,0.553c-0.648,0.368-1.156,0.888-1.524,1.56
		s-0.552,1.448-0.552,2.328s0.18,1.656,0.54,2.328c0.359,0.672,0.855,1.196,1.487,1.572s1.356,0.563,2.173,0.563
		c0.815,0,1.552-0.136,2.208-0.408c0.655-0.271,1.199-0.663,1.632-1.176l1.271,1.296c-0.576,0.72-1.308,1.272-2.195,1.656
		c-0.889,0.384-1.893,0.576-3.013,0.576c-1.232,0-2.328-0.272-3.288-0.816s-1.708-1.3-2.243-2.268
		c-0.537-0.968-0.805-2.076-0.805-3.324s0.268-2.36,0.805-3.336c0.535-0.976,1.283-1.736,2.243-2.28s2.056-0.815,3.288-0.815
		c1.072,0,2.036,0.164,2.893,0.491c0.855,0.328,1.571,0.805,2.147,1.429l-1.224,1.536C10.765,129.52,9.556,129.031,8.148,129.031z"
		/>
	<path fill="#FFFFFF" d="M27.588,127.111v12.696h-2.256v-2.688c-0.832,1.809-2.4,2.729-4.704,2.761
		c-1.472,0-2.624-0.436-3.456-1.309c-0.832-0.871-1.248-2.075-1.248-3.611v-7.849h2.256v7.248c0,1.072,0.292,1.908,0.876,2.508
		c0.584,0.601,1.389,0.9,2.412,0.9c1.185-0.016,2.124-0.436,2.82-1.26s1.044-1.876,1.044-3.156v-6.24H27.588z"/>
	<path fill="#FFFFFF" d="M32.053,122h2.231v17.808h-2.231V122z"/>
	<path fill="#FFFFFF" d="M45.588,138.968c-0.977,0.624-1.968,0.936-2.977,0.936c-1.008,0-1.823-0.3-2.447-0.899
		c-0.624-0.601-0.937-1.508-0.937-2.725v-7.031h-1.8v-1.704h1.8v-3.408h2.256v3.408h3.889v1.704h-3.889v6.624
		c0,0.704,0.128,1.208,0.384,1.512s0.641,0.456,1.152,0.456c0.608,0,1.264-0.2,1.968-0.601L45.588,138.968z"/>
	<path fill="#FFFFFF" d="M59.531,127.111v12.696h-2.256v-2.688c-0.832,1.809-2.4,2.729-4.704,2.761
		c-1.472,0-2.624-0.436-3.456-1.309c-0.832-0.871-1.248-2.075-1.248-3.611v-7.849h2.256v7.248c0,1.072,0.292,1.908,0.876,2.508
		c0.584,0.601,1.389,0.9,2.412,0.9c1.184-0.016,2.124-0.436,2.82-1.26c0.695-0.824,1.044-1.876,1.044-3.156v-6.24H59.531z"/>
	<path fill="#FFFFFF" d="M67.883,127.771c0.768-0.472,1.68-0.716,2.735-0.731v2.159c-1.296-0.048-2.344,0.288-3.144,1.009
		c-0.801,0.72-1.257,1.688-1.368,2.903v6.696h-2.232v-12.696h2.232v2.736C66.522,128.936,67.114,128.244,67.883,127.771z"/>
	<path fill="#FFFFFF" d="M80.242,139.808v-1.776c-0.943,1.248-2.424,1.872-4.439,1.872c-0.88,0-1.652-0.168-2.316-0.504
		s-1.176-0.8-1.536-1.392c-0.359-0.592-0.54-1.256-0.54-1.992c0-1.136,0.421-2.036,1.261-2.7c0.84-0.663,2.012-1.004,3.516-1.02
		h4.032v-0.601c0-0.896-0.276-1.588-0.828-2.076c-0.552-0.487-1.356-0.731-2.412-0.731c-1.28,0-2.584,0.456-3.912,1.368
		l-0.936-1.536c0.912-0.592,1.756-1.021,2.532-1.284c0.775-0.264,1.699-0.396,2.771-0.396c1.584,0,2.808,0.388,3.672,1.164
		c0.864,0.775,1.304,1.859,1.32,3.252l0.023,8.352H80.242z M78.91,137.3c0.729-0.504,1.164-1.172,1.309-2.004v-1.272h-3.72
		c-1.009,0-1.757,0.152-2.244,0.456c-0.488,0.305-0.732,0.784-0.732,1.44s0.248,1.176,0.744,1.56s1.16,0.576,1.992,0.576
		C77.299,138.056,78.183,137.804,78.91,137.3z"/>
</g>
</svg>
