<?xml version="1.0" encoding="utf-8"?>
<!-- Generator: Adobe Illustrator 16.0.0, SVG Export Plug-In . SVG Version: 6.00 Build 0)  -->
<!DOCTYPE svg PUBLIC "-//W3C//DTD SVG 1.1//EN" "http://www.w3.org/Graphics/SVG/1.1/DTD/svg11.dtd">
<svg version="1.1" id="Layer_1" xmlns="http://www.w3.org/2000/svg" xmlns:xlink="http://www.w3.org/1999/xlink" x="0px" y="0px"
	 width="256px" height="292px" viewBox="-116 -134 256 292" enable-background="new -116 -134 256 292" xml:space="preserve">
<path fill="#FFFFFF" d="M99.119-124H-75.114C-88.915-124-100-112.933-100-99.12V75.113c0,13.819,11.085,24.904,24.886,24.904H99.119
	c13.807,0,24.881-11.085,24.881-24.904V-99.12C124-112.933,112.926-124,99.119-124 M75.477,0.449H24.442v12.44h49.784
	c0,0-0.759,37.344-18.678,37.344c-16.797,0-12.429-19.052-31.118-24.904v24.904c0,6.833-5.606,12.44-12.44,12.44
	c-6.839,0-12.439-5.607-12.439-12.44V25.329c-18.672,5.853-14.315,24.904-31.124,24.904c-17.919,0-18.66-37.344-18.66-37.344h49.784
	V0.449h-51.017c-0.631-3.866-0.754-8.101-1.256-12.44h52.284v-12.452h-52.15c0.252-4.1,1.256-8.334,2.366-12.452h49.784v-12.439
	h-45.562c1.997-4.352,3.866-8.586,6.103-12.44h39.459v-12.452c0-6.839,5.601-12.452,12.439-12.452c6.846,0,12.44,5.602,12.44,12.452
	v12.452h39.459c2.254,3.854,4.123,8.089,6.108,12.44H24.442v12.451h49.784c1.25,4.106,2.114,8.341,2.371,12.452H24.442v12.44h52.284
	C76.225-7.651,76.084-3.417,75.477,0.449z"/>
<g>
	<path fill="#FFFFFF" d="M-48.935,139.952l-3.336-5.28c-0.384,0.032-0.696,0.048-0.936,0.048h-4.272v5.232h-2.304v-16.8h6.576
		c2.127,0,3.771,0.492,4.932,1.476c1.16,0.984,1.74,2.38,1.74,4.188c0,1.36-0.316,2.504-0.948,3.432
		c-0.632,0.929-1.541,1.601-2.724,2.016l3.912,5.688H-48.935z M-53.207,132.632c1.44,0,2.544-0.315,3.312-0.947
		s1.152-1.564,1.152-2.797c0-1.199-0.384-2.107-1.152-2.724c-0.768-0.615-1.872-0.924-3.312-0.924h-4.272v7.392H-53.207z"/>
	<path fill="#FFFFFF" d="M-34.895,139.952v-1.776c-0.944,1.248-2.424,1.872-4.44,1.872c-0.88,0-1.652-0.168-2.316-0.504
		c-0.664-0.336-1.176-0.8-1.536-1.392s-0.54-1.256-0.54-1.992c0-1.136,0.42-2.036,1.26-2.7c0.84-0.663,2.012-1.004,3.516-1.02h4.032
		v-0.601c0-0.896-0.276-1.588-0.828-2.076c-0.552-0.487-1.356-0.731-2.412-0.731c-1.28,0-2.584,0.456-3.912,1.368l-0.936-1.536
		c0.912-0.592,1.755-1.021,2.532-1.284c0.776-0.264,1.7-0.396,2.772-0.396c1.584,0,2.808,0.388,3.672,1.164
		c0.864,0.775,1.304,1.859,1.32,3.252l0.024,8.352H-34.895z M-36.227,137.444c0.728-0.504,1.164-1.172,1.308-2.004v-1.272h-3.72
		c-1.008,0-1.756,0.152-2.244,0.456c-0.488,0.305-0.732,0.784-0.732,1.44s0.248,1.176,0.744,1.56
		c0.496,0.384,1.16,0.576,1.992,0.576C-37.839,138.2-36.955,137.948-36.227,137.444z"/>
	<path fill="#FFFFFF" d="M-16.872,122.145v17.808h-2.232v-2.52c-0.48,0.848-1.125,1.5-1.932,1.955
		c-0.808,0.456-1.749,0.685-2.82,0.685c-1.2,0-2.26-0.276-3.18-0.828c-0.92-0.552-1.636-1.32-2.148-2.304
		c-0.512-0.984-0.768-2.108-0.768-3.372c0-1.248,0.256-2.356,0.768-3.324c0.512-0.968,1.228-1.724,2.148-2.268
		c0.92-0.544,1.972-0.816,3.156-0.816c1.088,0,2.04,0.225,2.856,0.672c0.816,0.448,1.456,1.097,1.92,1.944v-7.632H-16.872z
		 M-21.18,137.576c0.648-0.384,1.156-0.92,1.524-1.608c0.368-0.688,0.552-1.464,0.552-2.327c0-0.88-0.184-1.664-0.552-2.353
		c-0.368-0.688-0.876-1.224-1.524-1.608c-0.648-0.384-1.388-0.575-2.22-0.575s-1.572,0.195-2.22,0.588
		c-0.648,0.392-1.156,0.932-1.524,1.62c-0.368,0.688-0.552,1.464-0.552,2.328c0,0.863,0.184,1.64,0.552,2.327
		c0.368,0.688,0.876,1.225,1.524,1.608s1.388,0.576,2.22,0.576S-21.828,137.96-21.18,137.576z"/>
	<path fill="#FFFFFF" d="M-10.283,122.601c0.264,0.271,0.396,0.615,0.396,1.031c0,0.417-0.132,0.761-0.396,1.032
		c-0.264,0.272-0.596,0.408-0.996,0.408c-0.4,0-0.732-0.136-0.996-0.408c-0.264-0.271-0.396-0.615-0.396-1.032
		c0-0.416,0.132-0.76,0.396-1.031c0.264-0.272,0.596-0.408,0.996-0.408C-10.879,122.192-10.547,122.328-10.283,122.601z
		 M-12.383,127.256h2.232v12.696h-2.232V127.256z"/>
	<path fill="#FFFFFF" d="M2.844,128c0.984,0.544,1.752,1.3,2.304,2.269c0.552,0.968,0.828,2.075,0.828,3.323
		s-0.276,2.36-0.828,3.336c-0.552,0.977-1.32,1.736-2.304,2.28s-2.108,0.816-3.372,0.816c-1.28,0-2.412-0.272-3.396-0.816
		s-1.752-1.3-2.304-2.268c-0.552-0.968-0.828-2.084-0.828-3.349c0-1.248,0.276-2.355,0.828-3.323
		c0.552-0.969,1.32-1.725,2.304-2.269s2.116-0.815,3.396-0.815C0.735,127.185,1.86,127.456,2.844,128z M-2.748,129.704
		c-0.648,0.384-1.152,0.916-1.512,1.596c-0.36,0.681-0.54,1.452-0.54,2.316c0,0.88,0.18,1.664,0.54,2.352
		c0.36,0.688,0.864,1.221,1.512,1.597s1.388,0.563,2.22,0.563c0.816,0,1.548-0.188,2.196-0.563s1.152-0.908,1.512-1.597
		c0.36-0.688,0.54-1.472,0.54-2.352c0-0.864-0.18-1.636-0.54-2.316c-0.36-0.68-0.864-1.212-1.512-1.596s-1.38-0.576-2.196-0.576
		C-1.36,129.128-2.1,129.32-2.748,129.704z"/>
	<path fill="#FFFFFF" d="M20.328,127.256v11.4c0,1.216-0.269,2.28-0.805,3.192c-0.536,0.911-1.292,1.611-2.268,2.1
		c-0.977,0.487-2.112,0.731-3.408,0.731c-1.872,0-3.616-0.592-5.232-1.775l0.984-1.632c0.624,0.512,1.272,0.892,1.944,1.14
		c0.672,0.248,1.408,0.372,2.208,0.372c1.312,0,2.359-0.368,3.144-1.104c0.784-0.735,1.177-1.72,1.177-2.951v-1.776
		c-0.449,0.768-1.057,1.364-1.824,1.788c-0.769,0.424-1.648,0.636-2.641,0.636c-1.136,0-2.14-0.26-3.012-0.78
		c-0.873-0.52-1.548-1.243-2.028-2.172c-0.48-0.928-0.72-1.991-0.72-3.191c0-1.185,0.24-2.232,0.72-3.145
		c0.48-0.912,1.156-1.623,2.028-2.136c0.872-0.512,1.875-0.768,3.012-0.768c1.008,0,1.893,0.208,2.652,0.624
		s1.363,1.008,1.813,1.775v-2.328H20.328z M16.127,137.024c0.608-0.368,1.084-0.876,1.429-1.524c0.344-0.647,0.517-1.38,0.517-2.196
		c0-0.831-0.173-1.571-0.517-2.22c-0.345-0.647-0.82-1.155-1.429-1.523c-0.607-0.368-1.304-0.553-2.088-0.553
		c-0.783,0-1.484,0.185-2.1,0.553c-0.616,0.368-1.1,0.876-1.452,1.523c-0.353,0.648-0.528,1.389-0.528,2.22
		c0.016,1.248,0.4,2.272,1.152,3.072c0.751,0.801,1.728,1.2,2.927,1.2C14.823,137.576,15.52,137.393,16.127,137.024z"/>
	<path fill="#FFFFFF" d="M28.416,127.916c0.768-0.472,1.68-0.716,2.736-0.731v2.159c-1.297-0.048-2.345,0.288-3.145,1.009
		c-0.801,0.72-1.256,1.688-1.368,2.903v6.696h-2.231v-12.696h2.231v2.736C27.056,129.08,27.647,128.389,28.416,127.916z"/>
	<path fill="#FFFFFF" d="M40.775,139.952v-1.776c-0.944,1.248-2.424,1.872-4.439,1.872c-0.881,0-1.652-0.168-2.316-0.504
		s-1.176-0.8-1.536-1.392s-0.54-1.256-0.54-1.992c0-1.136,0.42-2.036,1.26-2.7c0.84-0.663,2.012-1.004,3.516-1.02h4.033v-0.601
		c0-0.896-0.276-1.588-0.828-2.076c-0.553-0.487-1.356-0.731-2.412-0.731c-1.281,0-2.584,0.456-3.912,1.368l-0.936-1.536
		c0.911-0.592,1.755-1.021,2.531-1.284c0.775-0.264,1.699-0.396,2.771-0.396c1.584,0,2.809,0.388,3.672,1.164
		c0.865,0.775,1.305,1.859,1.32,3.252l0.024,8.352H40.775z M39.443,137.444c0.729-0.504,1.164-1.172,1.309-2.004v-1.272h-3.721
		c-1.008,0-1.756,0.152-2.244,0.456c-0.488,0.305-0.732,0.784-0.732,1.44s0.248,1.176,0.744,1.56s1.16,0.576,1.992,0.576
		C37.831,138.2,38.715,137.948,39.443,137.444z"/>
	<path fill="#FFFFFF" d="M50.207,124.521c-0.384,0.352-0.576,0.855-0.576,1.512v1.656h3.504v1.704h-3.504v10.56h-2.231v-10.56
		h-1.656v-1.704h1.656v-1.368c0-0.928,0.195-1.716,0.588-2.364c0.392-0.647,0.907-1.136,1.548-1.464
		c0.64-0.328,1.328-0.492,2.064-0.492c0.703,0,1.439,0.192,2.207,0.576l-0.527,1.824c-0.576-0.272-1.12-0.408-1.633-0.408
		C51.071,123.992,50.592,124.168,50.207,124.521z M57.275,122.601c0.264,0.271,0.396,0.615,0.396,1.031
		c0,0.417-0.132,0.761-0.396,1.032c-0.265,0.272-0.597,0.408-0.996,0.408c-0.4,0-0.732-0.136-0.996-0.408
		c-0.264-0.271-0.396-0.615-0.396-1.032c0-0.416,0.133-0.76,0.396-1.031c0.264-0.272,0.596-0.408,0.996-0.408
		C56.679,122.192,57.011,122.328,57.275,122.601z M55.176,127.256h2.231v12.696h-2.231V127.256z"/>
	<path fill="#FFFFFF" d="M69.503,139.952v-1.776c-0.943,1.248-2.424,1.872-4.439,1.872c-0.88,0-1.652-0.168-2.316-0.504
		s-1.176-0.8-1.536-1.392c-0.359-0.592-0.54-1.256-0.54-1.992c0-1.136,0.421-2.036,1.261-2.7c0.84-0.663,2.012-1.004,3.516-1.02
		h4.032v-0.601c0-0.896-0.276-1.588-0.828-2.076c-0.552-0.487-1.356-0.731-2.412-0.731c-1.28,0-2.584,0.456-3.912,1.368
		l-0.936-1.536c0.912-0.592,1.756-1.021,2.532-1.284c0.775-0.264,1.699-0.396,2.771-0.396c1.584,0,2.808,0.388,3.672,1.164
		c0.864,0.775,1.304,1.859,1.32,3.252l0.023,8.352H69.503z M68.171,137.444c0.729-0.504,1.164-1.172,1.309-2.004v-1.272h-3.72
		c-1.009,0-1.757,0.152-2.244,0.456c-0.488,0.305-0.732,0.784-0.732,1.44s0.248,1.176,0.744,1.56s1.16,0.576,1.992,0.576
		C66.56,138.2,67.443,137.948,68.171,137.444z"/>
	<path fill="#FFFFFF" d="M80.891,129.296c-0.632-0.191-1.236-0.288-1.812-0.288c-0.672,0-1.212,0.124-1.62,0.372
		s-0.612,0.628-0.612,1.141c0,0.512,0.229,0.899,0.684,1.164c0.456,0.264,1.148,0.531,2.076,0.804c0.88,0.256,1.6,0.512,2.16,0.768
		c0.56,0.257,1.036,0.633,1.428,1.128c0.393,0.496,0.589,1.152,0.589,1.969c0,1.199-0.453,2.111-1.356,2.735
		c-0.904,0.624-2.028,0.937-3.372,0.937c-0.944,0-1.86-0.152-2.748-0.456s-1.636-0.736-2.244-1.296l0.84-1.632
		c0.528,0.479,1.18,0.863,1.956,1.151s1.532,0.433,2.269,0.433c0.735,0,1.328-0.136,1.775-0.408
		c0.448-0.272,0.673-0.688,0.673-1.248c0-0.576-0.236-1.008-0.708-1.296c-0.473-0.288-1.188-0.576-2.148-0.864
		c-0.849-0.24-1.54-0.483-2.076-0.732c-0.536-0.247-0.992-0.611-1.368-1.092c-0.376-0.479-0.563-1.104-0.563-1.872
		c0-1.184,0.432-2.071,1.296-2.664c0.864-0.592,1.944-0.888,3.24-0.888c0.768,0,1.523,0.108,2.268,0.324s1.388,0.508,1.932,0.876
		l-0.815,1.704C82.103,129.744,81.522,129.488,80.891,129.296z"/>
</g>
</svg>
