<?xml version="1.0" encoding="utf-8"?>
<!-- Generator: Adobe Illustrator 16.0.0, SVG Export Plug-In . SVG Version: 6.00 Build 0)  -->
<!DOCTYPE svg PUBLIC "-//W3C//DTD SVG 1.1//EN" "http://www.w3.org/Graphics/SVG/1.1/DTD/svg11.dtd">
<svg version="1.1"
	 id="svg4" xmlns:dc="http://purl.org/dc/elements/1.1/" xmlns:inkscape="http://www.inkscape.org/namespaces/inkscape" xmlns:svg="http://www.w3.org/2000/svg" xmlns:sodipodi="http://sodipodi.sourceforge.net/DTD/sodipodi-0.dtd" xmlns:rdf="http://www.w3.org/1999/02/22-rdf-syntax-ns#" xmlns:cc="http://creativecommons.org/ns#" sodipodi:docname="sadt.svg" inkscape:version="0.92.5 (2060ec1f9f, 2020-04-08)"
	 xmlns="http://www.w3.org/2000/svg" xmlns:xlink="http://www.w3.org/1999/xlink" x="0px" y="0px" width="256px" height="292px"
	 viewBox="-116 -134 256 292" enable-background="new -116 -134 256 292" xml:space="preserve">
<sodipodi:namedview  pagecolor="#ffffff" inkscape:zoom="9.8333333" gridtolerance="10" guidetolerance="10" id="namedview6" showgrid="false" inkscape:cx="12.20339" objecttolerance="10" borderopacity="1" bordercolor="#666666" inkscape:cy="11.491525" inkscape:pageopacity="0" inkscape:window-y="27" inkscape:pageshadow="2" inkscape:window-maximized="1" inkscape:window-width="1294" inkscape:window-height="704" inkscape:current-layer="svg4" inkscape:window-x="72">
	</sodipodi:namedview>
<path id="path2" fill="#FFFFFF" d="M-44-124v22.4h11.2V55.2c0,24.74,20.06,44.8,44.8,44.8s44.8-20.06,44.8-44.8v-156.8H68V-124H-44
	 M0.8,32.8c-6.721,0-11.2-4.484-11.2-11.2c0-6.715,4.479-11.2,11.2-11.2c6.722,0,11.2,4.485,11.2,11.2
	C12,28.315,7.521,32.8,0.8,32.8 M23.2-12C16.479-12,12-16.479,12-23.2c0-6.721,4.479-11.2,11.2-11.2c6.716,0,11.2,4.479,11.2,11.2
	C34.4-16.479,29.916-12,23.2-12 M34.4-68H-10.4v-33.6H34.4V-68z"/>
<g>
	<path fill="#FFFFFF" d="M-37.092,124.58c-0.84-0.248-1.612-0.372-2.316-0.372c-0.976,0-1.756,0.188-2.34,0.564
		s-0.876,0.892-0.876,1.548c0,0.592,0.176,1.076,0.528,1.452c0.352,0.376,0.783,0.672,1.296,0.888
		c0.512,0.216,1.224,0.468,2.136,0.756c1.136,0.353,2.056,0.688,2.76,1.008c0.704,0.32,1.305,0.797,1.801,1.429
		c0.495,0.632,0.744,1.468,0.744,2.508c0,0.96-0.261,1.8-0.78,2.52c-0.521,0.721-1.248,1.276-2.185,1.668
		c-0.936,0.393-2.012,0.588-3.228,0.588c-1.232,0-2.433-0.239-3.6-0.72c-1.169-0.479-2.177-1.119-3.024-1.92l1.032-1.992
		c0.8,0.784,1.699,1.389,2.7,1.813c0.999,0.424,1.972,0.636,2.916,0.636c1.119,0,2.004-0.22,2.651-0.66
		c0.648-0.439,0.972-1.035,0.972-1.788c0-0.592-0.176-1.08-0.527-1.464c-0.353-0.384-0.796-0.688-1.332-0.912
		c-0.536-0.224-1.26-0.472-2.172-0.744c-1.12-0.336-2.032-0.663-2.736-0.983s-1.3-0.792-1.788-1.416s-0.731-1.448-0.731-2.473
		c0-0.896,0.247-1.688,0.743-2.376c0.496-0.688,1.192-1.215,2.089-1.584c0.896-0.367,1.936-0.552,3.119-0.552
		c1.009,0,1.996,0.148,2.965,0.444c0.968,0.296,1.827,0.692,2.579,1.188l-0.96,2.064C-35.44,125.2-36.252,124.828-37.092,124.58z"/>
	<path fill="#FFFFFF" d="M-17.376,138.992l-1.775-4.08h-8.856l-1.752,4.08h-2.424l7.464-16.8h2.4l7.439,16.8H-17.376z
		 M-27.096,132.824h7.056l-3.552-8.16L-27.096,132.824z"/>
	<path fill="#FFFFFF" d="M-1.164,123.284c1.32,0.729,2.356,1.732,3.108,3.012c0.752,1.28,1.128,2.712,1.128,4.296
		s-0.38,3.017-1.14,4.297c-0.761,1.279-1.805,2.283-3.133,3.012s-2.815,1.092-4.464,1.092h-6.768v-16.8h6.84
		C-3.96,122.192-2.483,122.557-1.164,123.284z M-2.364,136.088c0.952-0.543,1.704-1.296,2.257-2.256
		c0.552-0.96,0.827-2.031,0.827-3.216c0-1.2-0.279-2.28-0.84-3.24c-0.56-0.96-1.324-1.716-2.292-2.268s-2.044-0.828-3.228-0.828
		h-4.488v12.624h4.584C-4.376,136.904-3.315,136.632-2.364,136.088z"/>
	<path fill="#FFFFFF" d="M3.937,122.192h13.128v2.111h-5.424v14.688H9.337v-14.688h-5.4V122.192z"/>
	<path fill="#FFFFFF" d="M33.372,124.58c-0.84-0.248-1.612-0.372-2.316-0.372c-0.976,0-1.756,0.188-2.34,0.564
		s-0.876,0.892-0.876,1.548c0,0.592,0.176,1.076,0.528,1.452c0.352,0.376,0.783,0.672,1.296,0.888
		c0.512,0.216,1.224,0.468,2.136,0.756c1.136,0.353,2.056,0.688,2.76,1.008c0.704,0.32,1.305,0.797,1.801,1.429
		c0.495,0.632,0.744,1.468,0.744,2.508c0,0.96-0.261,1.8-0.78,2.52c-0.521,0.721-1.248,1.276-2.185,1.668
		c-0.936,0.393-2.012,0.588-3.228,0.588c-1.232,0-2.433-0.239-3.6-0.72c-1.169-0.479-2.177-1.119-3.024-1.92l1.032-1.992
		c0.8,0.784,1.699,1.389,2.7,1.813c0.999,0.424,1.972,0.636,2.916,0.636c1.119,0,2.004-0.22,2.651-0.66
		c0.648-0.439,0.972-1.035,0.972-1.788c0-0.592-0.176-1.08-0.527-1.464c-0.353-0.384-0.796-0.688-1.332-0.912
		c-0.536-0.224-1.26-0.472-2.172-0.744c-1.12-0.336-2.032-0.663-2.736-0.983s-1.3-0.792-1.788-1.416s-0.731-1.448-0.731-2.473
		c0-0.896,0.247-1.688,0.743-2.376c0.496-0.688,1.192-1.215,2.089-1.584C29,122.185,30.04,122,31.224,122
		c1.009,0,1.996,0.148,2.965,0.444c0.968,0.296,1.827,0.692,2.579,1.188l-0.96,2.064C35.023,125.2,34.212,124.828,33.372,124.58z"/>
	<path fill="#FFFFFF" d="M44.004,135.765c0.855,0.872,2.036,1.308,3.54,1.308c1.487,0,2.655-0.436,3.504-1.308
		c0.848-0.872,1.271-2.084,1.271-3.637v-9.936h2.305v9.936c0,2.192-0.628,3.912-1.885,5.16c-1.256,1.248-2.987,1.872-5.195,1.872
		c-2.225,0-3.969-0.624-5.232-1.872s-1.896-2.968-1.896-5.16v-9.936h2.304v9.936C42.72,133.681,43.147,134.893,44.004,135.765z"/>
	<path fill="#FFFFFF" d="M66.443,124.58c-0.84-0.248-1.611-0.372-2.315-0.372c-0.977,0-1.756,0.188-2.34,0.564
		c-0.585,0.376-0.876,0.892-0.876,1.548c0,0.592,0.176,1.076,0.527,1.452c0.353,0.376,0.784,0.672,1.296,0.888
		c0.513,0.216,1.225,0.468,2.137,0.756c1.136,0.353,2.056,0.688,2.76,1.008c0.704,0.32,1.304,0.797,1.8,1.429
		s0.744,1.468,0.744,2.508c0,0.96-0.26,1.8-0.78,2.52c-0.52,0.721-1.248,1.276-2.184,1.668c-0.937,0.393-2.013,0.588-3.229,0.588
		c-1.231,0-2.432-0.239-3.6-0.72c-1.168-0.479-2.176-1.119-3.024-1.92l1.032-1.992c0.8,0.784,1.7,1.389,2.7,1.813
		s1.972,0.636,2.916,0.636c1.12,0,2.004-0.22,2.652-0.66c0.647-0.439,0.972-1.035,0.972-1.788c0-0.592-0.176-1.08-0.528-1.464
		c-0.352-0.384-0.796-0.688-1.332-0.912c-0.536-0.224-1.26-0.472-2.172-0.744c-1.12-0.336-2.032-0.663-2.735-0.983
		c-0.705-0.32-1.301-0.792-1.788-1.416c-0.488-0.624-0.732-1.448-0.732-2.473c0-0.896,0.248-1.688,0.744-2.376
		c0.496-0.688,1.191-1.215,2.088-1.584c0.896-0.367,1.936-0.552,3.12-0.552c1.008,0,1.996,0.148,2.964,0.444s1.828,0.692,2.58,1.188
		l-0.96,2.064C68.096,125.2,67.284,124.828,66.443,124.58z"/>
</g>
</svg>
