<?xml version="1.0" encoding="utf-8"?>
<!-- Generator: Adobe Illustrator 16.0.0, SVG Export Plug-In . SVG Version: 6.00 Build 0)  -->
<!DOCTYPE svg PUBLIC "-//W3C//DTD SVG 1.1//EN" "http://www.w3.org/Graphics/SVG/1.1/DTD/svg11.dtd">
<svg version="1.1" id="Layer_1" xmlns="http://www.w3.org/2000/svg" xmlns:xlink="http://www.w3.org/1999/xlink" x="0px" y="0px"
	 width="1024px" height="1024px" viewBox="0 0 1024 1024" enable-background="new 0 0 1024 1024" xml:space="preserve">
<path fill="#0090ED" d="M475.733,647.68l-60.586-60.159l60.586-60.587l60.16,60.587l60.16-60.587l-60.16-60.16l60.16-60.16
	l60.587,60.16l60.16-60.16L596.053,285.867L294.4,587.521l120.747,120.746L475.733,647.68 M131.413,810.667l133.12-132.693
	l-90.453-90.453l421.973-422.4l90.88,90.88l59.733-60.587l-59.733-60.586l59.733-60.16L928,256l-60.16,59.733L807.253,256
	l-60.587,59.733l90.88,90.88L415.147,828.587l-90.453-90.453L131.413,931.84V810.667z"/>
</svg>
