<?xml version="1.0" encoding="utf-8"?>
<!-- Generator: Adobe Illustrator 16.0.0, SVG Export Plug-In . SVG Version: 6.00 Build 0)  -->
<!DOCTYPE svg PUBLIC "-//W3C//DTD SVG 1.1//EN" "http://www.w3.org/Graphics/SVG/1.1/DTD/svg11.dtd">
<svg version="1.1" id="Layer_1" xmlns="http://www.w3.org/2000/svg" xmlns:xlink="http://www.w3.org/1999/xlink" x="0px" y="0px"
	 width="256px" height="292px" viewBox="0 0 256 292" enable-background="new 0 0 256 292" xml:space="preserve">
<path fill="#FFFFFF" d="M113.895,159.742l-15.833-15.722l15.833-15.833l15.722,15.833l15.721-15.833l-15.721-15.721l15.721-15.722
	l15.832,15.722l15.723-15.722l-31.555-31.554l-78.829,78.829l31.553,31.554L113.895,159.742 M23.917,202.334l34.788-34.675
	l-23.638-23.639L145.338,33.638l23.75,23.749l15.609-15.834l-15.609-15.832L184.697,10l47.387,47.387l-15.723,15.609l-15.83-15.609
	l-15.834,15.609l23.748,23.749L98.062,207.018l-23.636-23.639L23.917,234V202.334z"/>
<g>
	<path fill="#FFFFFF" d="M401.482,639.952l-1.777-4.08h-8.855l-1.752,4.08h-2.424l7.465-16.8h2.398l7.441,16.8H401.482z
		 M391.762,633.784h7.057l-3.553-8.16L391.762,633.784z"/>
	<path fill="#FFFFFF" d="M410.842,629.176c-0.832,0-1.572,0.186-2.221,0.554c-0.646,0.367-1.154,0.888-1.523,1.56
		s-0.551,1.448-0.551,2.328s0.18,1.656,0.539,2.328s0.855,1.195,1.488,1.571c0.631,0.377,1.355,0.563,2.172,0.563
		s1.553-0.136,2.207-0.408c0.656-0.271,1.201-0.663,1.633-1.176l1.271,1.296c-0.576,0.72-1.307,1.271-2.195,1.656
		c-0.889,0.384-1.893,0.576-3.012,0.576c-1.232,0-2.328-0.272-3.289-0.816c-0.959-0.544-1.707-1.3-2.244-2.268
		c-0.537-0.969-0.803-2.076-0.803-3.324s0.268-2.36,0.803-3.336c0.537-0.977,1.285-1.736,2.244-2.28
		c0.961-0.544,2.057-0.815,3.289-0.815c1.072,0,2.035,0.164,2.893,0.491c0.854,0.328,1.57,0.806,2.146,1.43l-1.223,1.535
		C413.457,629.664,412.25,629.176,410.842,629.176z"/>
	<path fill="#FFFFFF" d="M421.15,622.601c0.264,0.271,0.396,0.615,0.396,1.031c0,0.417-0.133,0.761-0.396,1.032
		s-0.596,0.408-0.996,0.408c-0.398,0-0.73-0.136-0.996-0.408c-0.264-0.271-0.395-0.615-0.395-1.032c0-0.416,0.131-0.76,0.395-1.031
		c0.266-0.271,0.598-0.407,0.996-0.407C420.555,622.192,420.887,622.328,421.15,622.601z M419.051,627.256h2.232v12.696h-2.232
		V627.256z"/>
	<path fill="#FFFFFF" d="M437.457,622.146v17.808h-2.23v-2.521c-0.48,0.849-1.125,1.5-1.932,1.955
		c-0.809,0.456-1.75,0.686-2.82,0.686c-1.201,0-2.26-0.276-3.18-0.828c-0.922-0.552-1.637-1.32-2.148-2.304
		c-0.512-0.984-0.768-2.108-0.768-3.372c0-1.248,0.256-2.356,0.768-3.324s1.227-1.725,2.148-2.269
		c0.92-0.544,1.971-0.815,3.154-0.815c1.088,0,2.041,0.225,2.857,0.672c0.814,0.448,1.455,1.097,1.92,1.944v-7.633L437.457,622.146
		L437.457,622.146z M433.15,637.576c0.648-0.384,1.156-0.92,1.523-1.608c0.367-0.688,0.553-1.464,0.553-2.327
		c0-0.88-0.186-1.664-0.553-2.353s-0.875-1.225-1.523-1.608s-1.389-0.575-2.221-0.575s-1.572,0.195-2.219,0.589
		c-0.648,0.392-1.156,0.932-1.525,1.62c-0.367,0.688-0.551,1.464-0.551,2.327s0.184,1.641,0.551,2.327
		c0.369,0.688,0.877,1.226,1.525,1.608c0.646,0.383,1.387,0.576,2.219,0.576S432.502,637.96,433.15,637.576z"/>
	<path fill="#FFFFFF" d="M443.182,637.792c0.248,0.256,0.373,0.584,0.373,0.984c0,0.399-0.125,0.73-0.373,0.996
		c-0.248,0.264-0.555,0.396-0.924,0.396c-0.367,0-0.68-0.132-0.936-0.396c-0.256-0.266-0.385-0.597-0.385-0.996
		c0-0.4,0.129-0.729,0.385-0.984c0.256-0.256,0.568-0.384,0.936-0.384C442.627,637.408,442.934,637.536,443.182,637.792z"/>
	<path fill="#FFFFFF" d="M464.758,624.641c1.145,0.992,1.717,2.385,1.717,4.177c0,1.872-0.576,3.323-1.729,4.354
		c-1.152,1.032-2.768,1.548-4.848,1.548h-4.176v5.232h-2.305v-16.8h6.48C461.992,623.152,463.613,623.648,464.758,624.641z
		 M463.113,631.685c0.77-0.632,1.152-1.563,1.152-2.797c0-1.198-0.383-2.106-1.152-2.724c-0.768-0.615-1.871-0.924-3.311-0.924
		l-4.08,0.022v7.368h4.08C461.24,632.632,462.346,632.316,463.113,631.685z"/>
	<path fill="#FFFFFF" d="M478.857,628.924c1.008,1.16,1.512,2.772,1.512,4.836c0,0.32-0.008,0.562-0.023,0.722h-10.033
		c0.176,1.136,0.652,2.039,1.428,2.712c0.777,0.672,1.732,1.008,2.869,1.008c0.752,0,1.451-0.136,2.1-0.408
		c0.648-0.271,1.213-0.655,1.691-1.151l1.225,1.271c-0.623,0.672-1.377,1.191-2.256,1.56c-0.881,0.369-1.855,0.554-2.928,0.554
		c-1.248,0-2.355-0.269-3.324-0.806c-0.969-0.535-1.721-1.291-2.256-2.268c-0.537-0.977-0.805-2.088-0.805-3.336
		s0.268-2.355,0.805-3.324c0.535-0.968,1.283-1.728,2.244-2.28c0.959-0.552,2.055-0.827,3.287-0.827
		C476.361,627.185,477.85,627.765,478.857,628.924z M478.354,632.752c-0.064-1.151-0.449-2.06-1.152-2.724
		c-0.705-0.664-1.633-0.996-2.785-0.996c-1.119,0-2.051,0.336-2.795,1.008s-1.188,1.576-1.332,2.712H478.354z"/>
	<path fill="#FFFFFF" d="M487.426,627.916c0.768-0.472,1.68-0.716,2.734-0.731v2.159c-1.295-0.048-2.344,0.288-3.143,1.009
		c-0.801,0.721-1.256,1.688-1.369,2.903v6.696h-2.232v-12.696h2.232v2.736C486.064,629.08,486.656,628.389,487.426,627.916z"/>
	<path fill="#FFFFFF" d="M495.824,624.521c-0.385,0.353-0.576,0.855-0.576,1.513v1.656h3.504v1.703h-3.504v10.561h-2.232v-10.561
		h-1.656v-1.703h1.656v-1.368c0-0.928,0.195-1.716,0.588-2.364c0.393-0.647,0.908-1.136,1.549-1.464s1.328-0.492,2.064-0.492
		c0.703,0,1.439,0.192,2.207,0.576l-0.527,1.824c-0.576-0.272-1.121-0.408-1.633-0.408
		C496.689,623.992,496.209,624.168,495.824,624.521z"/>
	<path fill="#FFFFFF" d="M512.193,627.256v12.696h-2.256v-2.688c-0.832,1.81-2.4,2.729-4.705,2.762c-1.471,0-2.625-0.437-3.455-1.31
		c-0.832-0.871-1.248-2.075-1.248-3.611v-7.849h2.256v7.248c0,1.072,0.291,1.908,0.875,2.508c0.584,0.602,1.389,0.9,2.412,0.9
		c1.186-0.017,2.125-0.437,2.82-1.26c0.695-0.824,1.045-1.876,1.045-3.156v-6.24H512.193L512.193,627.256z"/>
	<path fill="#FFFFFF" d="M520.545,627.916c0.768-0.472,1.68-0.716,2.734-0.731v2.159c-1.297-0.048-2.344,0.288-3.145,1.009
		s-1.256,1.688-1.367,2.903v6.696h-2.232v-12.696h2.232v2.736C519.184,629.08,519.775,628.389,520.545,627.916z"/>
	<path fill="#FFFFFF" d="M534.355,628c0.984,0.544,1.752,1.3,2.305,2.269s0.828,2.075,0.828,3.323s-0.275,2.36-0.828,3.336
		c-0.553,0.978-1.318,1.736-2.305,2.28c-0.984,0.544-2.107,0.816-3.371,0.816c-1.281,0-2.412-0.272-3.396-0.816
		s-1.752-1.3-2.305-2.268c-0.553-0.969-0.828-2.084-0.828-3.35c0-1.248,0.275-2.354,0.828-3.323s1.32-1.725,2.305-2.269
		c0.982-0.544,2.115-0.815,3.396-0.815C532.246,627.185,533.371,627.456,534.355,628z M528.764,629.704
		c-0.648,0.384-1.152,0.916-1.512,1.596c-0.359,0.682-0.539,1.452-0.539,2.316c0,0.88,0.18,1.664,0.539,2.352
		c0.359,0.688,0.863,1.221,1.512,1.598c0.646,0.375,1.389,0.563,2.221,0.563c0.816,0,1.547-0.188,2.195-0.563
		c0.646-0.377,1.15-0.908,1.512-1.598c0.361-0.688,0.541-1.472,0.541-2.352c0-0.864-0.18-1.637-0.541-2.316
		c-0.359-0.68-0.863-1.212-1.512-1.596s-1.379-0.576-2.195-0.576C530.152,629.128,529.41,629.32,528.764,629.704z"/>
	<path fill="#FFFFFF" d="M545.887,629.176c-0.832,0-1.572,0.186-2.219,0.554c-0.648,0.367-1.156,0.888-1.525,1.56
		c-0.367,0.672-0.551,1.448-0.551,2.328s0.18,1.656,0.539,2.328s0.855,1.195,1.488,1.571s1.355,0.563,2.172,0.563
		c0.814,0,1.553-0.136,2.207-0.408c0.656-0.271,1.201-0.663,1.633-1.176l1.271,1.296c-0.576,0.72-1.309,1.271-2.195,1.656
		c-0.887,0.384-1.893,0.576-3.012,0.576c-1.232,0-2.328-0.272-3.289-0.816c-0.959-0.544-1.709-1.3-2.244-2.268
		c-0.535-0.969-0.805-2.076-0.805-3.324s0.27-2.36,0.805-3.336c0.535-0.977,1.285-1.736,2.244-2.28
		c0.961-0.544,2.057-0.815,3.289-0.815c1.07,0,2.035,0.164,2.893,0.491c0.854,0.328,1.57,0.806,2.146,1.43l-1.225,1.535
		C548.504,629.664,547.295,629.176,545.887,629.176z"/>
	<path fill="#FFFFFF" d="M562.195,628c0.984,0.544,1.752,1.3,2.305,2.269s0.828,2.075,0.828,3.323s-0.275,2.36-0.828,3.336
		c-0.553,0.978-1.318,1.736-2.305,2.28c-0.984,0.544-2.107,0.816-3.371,0.816c-1.281,0-2.412-0.272-3.396-0.816
		s-1.752-1.3-2.305-2.268c-0.553-0.969-0.828-2.084-0.828-3.35c0-1.248,0.275-2.354,0.828-3.323s1.32-1.725,2.305-2.269
		c0.982-0.544,2.115-0.815,3.396-0.815C560.088,627.185,561.211,627.456,562.195,628z M556.604,629.704
		c-0.648,0.384-1.152,0.916-1.512,1.596c-0.359,0.682-0.539,1.452-0.539,2.316c0,0.88,0.18,1.664,0.539,2.352
		c0.359,0.688,0.863,1.221,1.512,1.598c0.646,0.375,1.389,0.563,2.221,0.563c0.816,0,1.547-0.188,2.195-0.563
		c0.646-0.377,1.152-0.908,1.512-1.598c0.361-0.688,0.541-1.472,0.541-2.352c0-0.864-0.18-1.637-0.541-2.316
		c-0.359-0.68-0.863-1.212-1.512-1.596s-1.379-0.576-2.195-0.576C557.99,629.128,557.25,629.32,556.604,629.704z"/>
	<path fill="#FFFFFF" d="M572.455,627.916c0.768-0.472,1.68-0.716,2.734-0.731v2.159c-1.295-0.048-2.344,0.288-3.143,1.009
		c-0.803,0.721-1.258,1.688-1.369,2.903v6.696h-2.232v-12.696h2.232v2.736C571.096,629.08,571.688,628.389,572.455,627.916z"/>
	<path fill="#FFFFFF" d="M584.432,639.112c-0.979,0.624-1.969,0.936-2.977,0.936c-1.01,0-1.824-0.3-2.447-0.898
		c-0.625-0.602-0.938-1.509-0.938-2.726v-7.031h-1.801v-1.703h1.801v-3.408h2.256v3.408h3.889v1.703h-3.889v6.624
		c0,0.704,0.127,1.208,0.385,1.513c0.256,0.304,0.641,0.456,1.15,0.456c0.609,0,1.264-0.2,1.969-0.602L584.432,639.112z"/>
	<path fill="#FFFFFF" d="M594.895,639.952v-1.776c-0.943,1.248-2.424,1.872-4.439,1.872c-0.881,0-1.652-0.168-2.316-0.504
		s-1.176-0.8-1.535-1.392c-0.359-0.593-0.541-1.257-0.541-1.992c0-1.136,0.422-2.036,1.262-2.7c0.84-0.663,2.012-1.004,3.516-1.02
		h4.031v-0.602c0-0.896-0.275-1.588-0.828-2.076c-0.551-0.486-1.355-0.73-2.41-0.73c-1.281,0-2.584,0.456-3.912,1.367l-0.938-1.535
		c0.912-0.593,1.756-1.021,2.533-1.284c0.775-0.265,1.699-0.396,2.771-0.396c1.584,0,2.807,0.389,3.672,1.164
		c0.863,0.775,1.303,1.859,1.318,3.252l0.023,8.353H594.895L594.895,639.952z M593.563,637.444c0.729-0.504,1.164-1.172,1.309-2.004
		v-1.272h-3.721c-1.008,0-1.756,0.152-2.244,0.456c-0.486,0.305-0.73,0.784-0.73,1.439c0,0.656,0.248,1.177,0.744,1.561
		s1.158,0.576,1.99,0.576C591.949,638.2,592.834,637.948,593.563,637.444z"/>
	<path fill="#FFFFFF" d="M611.646,628.492c0.848,0.872,1.271,2.076,1.271,3.612v7.848h-2.23v-7.248c0-1.071-0.301-1.908-0.9-2.508
		c-0.6-0.602-1.428-0.9-2.482-0.9c-1.139,0.018-2.063,0.381-2.773,1.092c-0.711,0.713-1.115,1.638-1.211,2.772v6.792h-2.232v-12.696
		h2.232v2.688c0.848-1.809,2.455-2.729,4.824-2.761C609.631,627.185,610.799,627.62,611.646,628.492z"/>
	<path fill="#FFFFFF" d="M623.719,639.112c-0.979,0.624-1.969,0.936-2.977,0.936c-1.01,0-1.824-0.3-2.447-0.898
		c-0.625-0.602-0.938-1.509-0.938-2.726v-7.031h-1.801v-1.703h1.801v-3.408h2.256v3.408h3.889v1.703h-3.889v6.624
		c0,0.704,0.127,1.208,0.385,1.513c0.256,0.304,0.641,0.456,1.15,0.456c0.609,0,1.264-0.2,1.969-0.602L623.719,639.112z"/>
	<path fill="#FFFFFF" d="M635.814,628.924c1.008,1.16,1.512,2.772,1.512,4.836c0,0.32-0.008,0.562-0.023,0.722h-10.031
		c0.176,1.136,0.652,2.039,1.428,2.712c0.775,0.672,1.732,1.008,2.869,1.008c0.752,0,1.451-0.136,2.1-0.408
		c0.648-0.271,1.213-0.655,1.691-1.151l1.225,1.271c-0.625,0.672-1.377,1.191-2.256,1.56c-0.881,0.369-1.855,0.554-2.928,0.554
		c-1.248,0-2.355-0.269-3.324-0.806c-0.969-0.535-1.721-1.291-2.256-2.268c-0.537-0.977-0.805-2.088-0.805-3.336
		s0.268-2.355,0.805-3.324c0.535-0.968,1.283-1.728,2.244-2.28c0.959-0.552,2.055-0.827,3.287-0.827
		C633.318,627.185,634.807,627.765,635.814,628.924z M635.311,632.752c-0.064-1.151-0.447-2.06-1.152-2.724
		c-0.703-0.664-1.631-0.996-2.783-0.996c-1.119,0-2.053,0.336-2.797,1.008s-1.188,1.576-1.332,2.712H635.311z"/>
</g>
<g>
	<path fill="#FFFFFF" d="M17.481,273.952l-1.775-4.08H6.85l-1.752,4.08H2.674l7.464-16.8h2.4l7.439,16.8H17.481z M7.762,267.784
		h7.056l-3.552-8.16L7.762,267.784z"/>
	<path fill="#FFFFFF" d="M26.842,263.176c-0.832,0-1.571,0.185-2.22,0.553c-0.647,0.368-1.156,0.888-1.523,1.56
		c-0.369,0.672-0.553,1.448-0.553,2.328s0.181,1.656,0.54,2.328c0.36,0.672,0.856,1.196,1.488,1.572s1.355,0.563,2.172,0.563
		s1.552-0.136,2.208-0.408c0.656-0.271,1.2-0.663,1.632-1.176l1.272,1.296c-0.576,0.72-1.309,1.272-2.196,1.656
		s-1.893,0.576-3.012,0.576c-1.232,0-2.328-0.272-3.288-0.816s-1.708-1.3-2.244-2.268s-0.804-2.076-0.804-3.324
		s0.268-2.36,0.804-3.336s1.284-1.736,2.244-2.28s2.056-0.815,3.288-0.815c1.071,0,2.036,0.164,2.892,0.491
		c0.855,0.328,1.572,0.805,2.148,1.429l-1.225,1.536C29.458,263.664,28.25,263.176,26.842,263.176z"/>
	<path fill="#FFFFFF" d="M37.15,256.601c0.264,0.271,0.396,0.615,0.396,1.031c0,0.417-0.132,0.761-0.396,1.032
		c-0.265,0.272-0.597,0.408-0.996,0.408c-0.4,0-0.732-0.136-0.996-0.408c-0.265-0.271-0.396-0.615-0.396-1.032
		c0-0.416,0.132-0.76,0.396-1.031c0.264-0.272,0.596-0.408,0.996-0.408C36.554,256.192,36.886,256.328,37.15,256.601z
		 M35.05,261.256h2.232v12.696H35.05V261.256z"/>
	<path fill="#FFFFFF" d="M53.458,256.145v17.808h-2.232v-2.52c-0.479,0.848-1.124,1.5-1.932,1.955
		c-0.809,0.456-1.749,0.685-2.82,0.685c-1.2,0-2.26-0.276-3.18-0.828c-0.921-0.552-1.637-1.32-2.148-2.304
		c-0.512-0.984-0.768-2.108-0.768-3.372c0-1.248,0.256-2.356,0.768-3.324s1.228-1.724,2.148-2.268
		c0.92-0.544,1.972-0.816,3.155-0.816c1.088,0,2.04,0.225,2.856,0.672c0.816,0.448,1.456,1.097,1.92,1.944v-7.632H53.458z
		 M49.149,271.576c0.648-0.384,1.156-0.92,1.524-1.608c0.368-0.688,0.552-1.464,0.552-2.327c0-0.88-0.184-1.664-0.552-2.353
		c-0.368-0.688-0.876-1.224-1.524-1.608c-0.647-0.384-1.388-0.575-2.22-0.575s-1.572,0.195-2.22,0.588
		c-0.648,0.392-1.156,0.932-1.524,1.62c-0.368,0.688-0.552,1.464-0.552,2.328c0,0.863,0.184,1.64,0.552,2.327
		c0.368,0.688,0.876,1.225,1.524,1.608c0.647,0.384,1.388,0.576,2.22,0.576S48.502,271.96,49.149,271.576z"/>
	<path fill="#FFFFFF" d="M59.182,271.792c0.248,0.256,0.372,0.584,0.372,0.984s-0.124,0.731-0.372,0.996
		c-0.248,0.264-0.557,0.396-0.924,0.396c-0.368,0-0.681-0.132-0.937-0.396c-0.256-0.265-0.384-0.596-0.384-0.996
		s0.128-0.729,0.384-0.984s0.568-0.384,0.937-0.384C58.625,271.408,58.934,271.536,59.182,271.792z"/>
	<path fill="#FFFFFF" d="M80.757,258.641c1.144,0.992,1.716,2.384,1.716,4.176c0,1.872-0.576,3.324-1.728,4.355
		c-1.152,1.032-2.769,1.548-4.849,1.548h-4.176v5.232h-2.304v-16.8h6.479C77.993,257.152,79.612,257.648,80.757,258.641z
		 M79.113,265.685c0.768-0.632,1.151-1.564,1.151-2.797c0-1.199-0.384-2.107-1.151-2.724c-0.769-0.615-1.872-0.924-3.313-0.924
		l-4.08,0.023v7.368h4.08C77.241,266.632,78.345,266.316,79.113,265.685z"/>
	<path fill="#FFFFFF" d="M94.856,262.924c1.008,1.16,1.512,2.772,1.512,4.836c0,0.32-0.008,0.561-0.023,0.721H86.313
		c0.176,1.136,0.651,2.04,1.428,2.712s1.731,1.008,2.868,1.008c0.752,0,1.452-0.136,2.1-0.408c0.648-0.271,1.212-0.655,1.692-1.151
		l1.224,1.271c-0.624,0.672-1.376,1.192-2.256,1.56c-0.88,0.369-1.856,0.553-2.928,0.553c-1.248,0-2.356-0.268-3.324-0.805
		c-0.968-0.535-1.72-1.291-2.256-2.268c-0.536-0.976-0.804-2.088-0.804-3.336s0.268-2.355,0.804-3.324
		c0.536-0.968,1.284-1.728,2.244-2.28c0.96-0.552,2.056-0.827,3.288-0.827C92.36,261.185,93.849,261.765,94.856,262.924z
		 M94.353,266.752c-0.064-1.151-0.448-2.06-1.152-2.724s-1.632-0.996-2.784-0.996c-1.12,0-2.052,0.336-2.796,1.008
		s-1.188,1.576-1.332,2.712H94.353z"/>
	<path fill="#FFFFFF" d="M103.425,261.916c0.768-0.472,1.68-0.716,2.736-0.731v2.159c-1.297-0.048-2.345,0.288-3.145,1.009
		c-0.8,0.72-1.256,1.688-1.368,2.903v6.696h-2.231v-12.696h2.231v2.736C102.064,263.08,102.656,262.389,103.425,261.916z"/>
	<path fill="#FFFFFF" d="M111.824,258.521c-0.384,0.352-0.576,0.855-0.576,1.512v1.656h3.504v1.704h-3.504v10.56h-2.231v-10.56
		h-1.656v-1.704h1.656v-1.368c0-0.928,0.195-1.716,0.588-2.364c0.392-0.647,0.907-1.136,1.548-1.464
		c0.64-0.328,1.328-0.492,2.063-0.492c0.704,0,1.44,0.192,2.208,0.576l-0.527,1.824c-0.576-0.272-1.12-0.408-1.633-0.408
		C112.688,257.992,112.208,258.168,111.824,258.521z"/>
	<path fill="#FFFFFF" d="M128.191,261.256v12.696h-2.256v-2.688c-0.832,1.809-2.4,2.729-4.704,2.761
		c-1.472,0-2.624-0.436-3.456-1.309c-0.832-0.871-1.248-2.075-1.248-3.611v-7.849h2.256v7.248c0,1.072,0.292,1.908,0.876,2.508
		c0.584,0.601,1.389,0.9,2.412,0.9c1.185-0.016,2.124-0.436,2.82-1.26c0.695-0.824,1.044-1.876,1.044-3.156v-6.24H128.191z"/>
	<path fill="#FFFFFF" d="M136.544,261.916c0.768-0.472,1.68-0.716,2.735-0.731v2.159c-1.296-0.048-2.344,0.288-3.144,1.009
		c-0.801,0.72-1.257,1.688-1.368,2.903v6.696h-2.232v-12.696h2.232v2.736C135.184,263.08,135.775,262.389,136.544,261.916z"/>
	<path fill="#FFFFFF" d="M150.355,262c0.984,0.544,1.752,1.3,2.304,2.269c0.553,0.968,0.828,2.075,0.828,3.323
		s-0.275,2.36-0.828,3.336c-0.552,0.977-1.319,1.736-2.304,2.28s-2.108,0.816-3.372,0.816c-1.28,0-2.412-0.272-3.396-0.816
		c-0.984-0.544-1.752-1.3-2.305-2.268c-0.552-0.968-0.828-2.084-0.828-3.349c0-1.248,0.276-2.355,0.828-3.323
		c0.553-0.969,1.32-1.725,2.305-2.269c0.983-0.544,2.115-0.815,3.396-0.815C148.247,261.185,149.371,261.456,150.355,262z
		 M144.764,263.704c-0.648,0.384-1.152,0.916-1.512,1.596c-0.36,0.681-0.54,1.452-0.54,2.316c0,0.88,0.18,1.664,0.54,2.352
		c0.359,0.688,0.863,1.221,1.512,1.597c0.647,0.376,1.388,0.563,2.22,0.563c0.816,0,1.548-0.188,2.196-0.563
		c0.647-0.376,1.151-0.908,1.512-1.597c0.36-0.688,0.54-1.472,0.54-2.352c0-0.864-0.18-1.636-0.54-2.316
		c-0.36-0.68-0.864-1.212-1.512-1.596c-0.648-0.384-1.38-0.576-2.196-0.576C146.151,263.128,145.411,263.32,144.764,263.704z"/>
	<path fill="#FFFFFF" d="M161.887,263.176c-0.832,0-1.572,0.185-2.22,0.553c-0.648,0.368-1.156,0.888-1.524,1.56
		s-0.552,1.448-0.552,2.328s0.18,1.656,0.54,2.328s0.855,1.196,1.488,1.572c0.632,0.376,1.355,0.563,2.172,0.563
		c0.815,0,1.552-0.136,2.208-0.408c0.655-0.271,1.2-0.663,1.632-1.176l1.272,1.296c-0.576,0.72-1.309,1.272-2.196,1.656
		s-1.893,0.576-3.012,0.576c-1.232,0-2.328-0.272-3.288-0.816s-1.709-1.3-2.244-2.268c-0.536-0.968-0.805-2.076-0.805-3.324
		s0.269-2.36,0.805-3.336c0.535-0.976,1.284-1.736,2.244-2.28s2.056-0.815,3.288-0.815c1.071,0,2.035,0.164,2.892,0.491
		c0.855,0.328,1.572,0.805,2.147,1.429l-1.224,1.536C164.503,263.664,163.295,263.176,161.887,263.176z"/>
	<path fill="#FFFFFF" d="M178.194,262c0.984,0.544,1.752,1.3,2.304,2.269c0.553,0.968,0.828,2.075,0.828,3.323
		s-0.275,2.36-0.828,3.336c-0.552,0.977-1.319,1.736-2.304,2.28s-2.108,0.816-3.372,0.816c-1.28,0-2.412-0.272-3.396-0.816
		c-0.984-0.544-1.752-1.3-2.305-2.268c-0.552-0.968-0.828-2.084-0.828-3.349c0-1.248,0.276-2.355,0.828-3.323
		c0.553-0.969,1.32-1.725,2.305-2.269c0.983-0.544,2.115-0.815,3.396-0.815C176.086,261.185,177.21,261.456,178.194,262z
		 M172.603,263.704c-0.648,0.384-1.152,0.916-1.512,1.596c-0.36,0.681-0.54,1.452-0.54,2.316c0,0.88,0.18,1.664,0.54,2.352
		c0.359,0.688,0.863,1.221,1.512,1.597c0.647,0.376,1.388,0.563,2.22,0.563c0.816,0,1.548-0.188,2.196-0.563
		c0.647-0.376,1.151-0.908,1.512-1.597c0.36-0.688,0.54-1.472,0.54-2.352c0-0.864-0.18-1.636-0.54-2.316
		c-0.36-0.68-0.864-1.212-1.512-1.596c-0.648-0.384-1.38-0.576-2.196-0.576C173.99,263.128,173.25,263.32,172.603,263.704z"/>
	<path fill="#FFFFFF" d="M188.455,261.916c0.768-0.472,1.68-0.716,2.735-0.731v2.159c-1.296-0.048-2.344,0.288-3.144,1.009
		c-0.801,0.72-1.257,1.688-1.368,2.903v6.696h-2.232v-12.696h2.232v2.736C187.095,263.08,187.687,262.389,188.455,261.916z"/>
	<path fill="#FFFFFF" d="M200.43,273.112c-0.977,0.624-1.968,0.936-2.976,0.936c-1.009,0-1.824-0.3-2.448-0.899
		c-0.624-0.601-0.937-1.508-0.937-2.725v-7.031h-1.8v-1.704h1.8v-3.408h2.257v3.408h3.888v1.704h-3.888v6.624
		c0,0.704,0.127,1.208,0.384,1.512c0.256,0.304,0.64,0.456,1.151,0.456c0.608,0,1.264-0.2,1.969-0.601L200.43,273.112z"/>
	<path fill="#FFFFFF" d="M210.894,273.952v-1.776c-0.943,1.248-2.424,1.872-4.439,1.872c-0.88,0-1.652-0.168-2.316-0.504
		s-1.176-0.8-1.536-1.392c-0.359-0.592-0.54-1.256-0.54-1.992c0-1.136,0.421-2.036,1.261-2.7c0.84-0.663,2.012-1.004,3.516-1.02
		h4.032v-0.601c0-0.896-0.276-1.588-0.828-2.076c-0.552-0.487-1.356-0.731-2.412-0.731c-1.28,0-2.584,0.456-3.912,1.368
		l-0.936-1.536c0.912-0.592,1.756-1.021,2.532-1.284c0.775-0.264,1.699-0.396,2.771-0.396c1.584,0,2.808,0.388,3.672,1.164
		c0.864,0.775,1.304,1.859,1.32,3.252l0.023,8.352H210.894z M209.562,271.444c0.729-0.504,1.164-1.172,1.309-2.004v-1.272h-3.72
		c-1.009,0-1.757,0.152-2.244,0.456c-0.488,0.305-0.732,0.784-0.732,1.44s0.248,1.176,0.744,1.56s1.16,0.576,1.992,0.576
		C207.95,272.2,208.834,271.948,209.562,271.444z"/>
	<path fill="#FFFFFF" d="M227.646,262.492c0.848,0.872,1.271,2.076,1.271,3.612v7.848h-2.231v-7.248c0-1.071-0.3-1.908-0.9-2.508
		c-0.6-0.601-1.428-0.9-2.483-0.9c-1.137,0.017-2.061,0.381-2.772,1.092c-0.712,0.713-1.116,1.637-1.212,2.772v6.792h-2.232v-12.696
		h2.232v2.688c0.848-1.808,2.456-2.728,4.824-2.76C225.629,261.185,226.797,261.62,227.646,262.492z"/>
	<path fill="#FFFFFF" d="M239.718,273.112c-0.977,0.624-1.968,0.936-2.976,0.936c-1.009,0-1.824-0.3-2.448-0.899
		c-0.624-0.601-0.937-1.508-0.937-2.725v-7.031h-1.8v-1.704h1.8v-3.408h2.257v3.408h3.888v1.704h-3.888v6.624
		c0,0.704,0.127,1.208,0.384,1.512c0.256,0.304,0.64,0.456,1.151,0.456c0.608,0,1.264-0.2,1.969-0.601L239.718,273.112z"/>
	<path fill="#FFFFFF" d="M251.814,262.924c1.008,1.16,1.512,2.772,1.512,4.836c0,0.32-0.008,0.561-0.024,0.721h-10.031
		c0.176,1.136,0.651,2.04,1.428,2.712c0.775,0.672,1.731,1.008,2.868,1.008c0.752,0,1.452-0.136,2.1-0.408
		c0.648-0.271,1.212-0.655,1.692-1.151l1.224,1.271c-0.624,0.672-1.376,1.192-2.256,1.56c-0.88,0.369-1.856,0.553-2.928,0.553
		c-1.248,0-2.356-0.268-3.324-0.805c-0.969-0.535-1.721-1.291-2.256-2.268c-0.536-0.976-0.805-2.088-0.805-3.336
		s0.269-2.355,0.805-3.324c0.535-0.968,1.284-1.728,2.244-2.28c0.96-0.552,2.056-0.827,3.288-0.827
		C249.318,261.185,250.806,261.765,251.814,262.924z M251.311,266.752c-0.064-1.151-0.448-2.06-1.152-2.724
		s-1.632-0.996-2.784-0.996c-1.12,0-2.052,0.336-2.796,1.008s-1.188,1.576-1.332,2.712H251.311z"/>
</g>
</svg>
