<?xml version="1.0" encoding="utf-8"?>
<!-- Generator: Adobe Illustrator 16.0.0, SVG Export Plug-In . SVG Version: 6.00 Build 0)  -->
<!DOCTYPE svg PUBLIC "-//W3C//DTD SVG 1.1//EN" "http://www.w3.org/Graphics/SVG/1.1/DTD/svg11.dtd">
<svg version="1.1" id="Layer_1" xmlns="http://www.w3.org/2000/svg" xmlns:xlink="http://www.w3.org/1999/xlink" x="0px" y="0px"
	 width="256px" height="292px" viewBox="-116 -134 256 292" enable-background="new -116 -134 256 292" xml:space="preserve">
<path fill="#FFFFFF" d="M12.013-124c-9.879,0-17.819,7.945-17.819,17.819c0,6.006,3.053,11.406,7.637,14.563v14.254
	c-9.164,1.323-17.72,4.276-25.456,8.756l-11.301-16.189c1.934-5.295,1.422-11.405-2.039-16.292
	c-3.565-4.992-9.063-7.637-14.662-7.637c-3.564,0-7.129,1.02-10.183,3.257c-8.044,5.603-10.083,16.701-4.38,24.745
	c3.465,4.992,8.964,7.637,14.563,7.637l12.017,17.108c-4.38,4.375-7.841,9.263-10.794,14.662c-2.039-0.815-4.177-1.223-6.314-1.223
	c-4.584,0-9.164,1.73-12.729,5.091c-6.821,7.129-6.821,18.326,0,25.456c2.953,2.75,6.518,4.276,10.183,5.091l0,0
	c0,5.499,0.711,10.799,1.834,15.89l-13.34,3.579c-3.157-2.664-7.229-4.176-11.405-4.176c-1.526,0-3.157,0-4.684,0.637
	c-9.471,2.545-15.08,12.311-12.524,21.866c2.138,8.023,9.571,13.115,17.208,13.115c1.526,0,3.053,0,4.684-0.616
	c5.802-1.631,10.183-5.905,12.017-11.217l15.374-4.156c4.584,8.055,10.694,15.165,17.819,21.07l-11.202,20.366
	c-5.598,0.825-10.689,3.987-13.643,9.376c-4.684,8.651-1.427,19.45,7.229,24.134c2.65,1.422,5.603,2.138,8.452,2.138
	c6.314,0,12.425-3.36,15.682-9.367c2.849-5.289,2.75-11.405,0.204-16.388l10.894-20.066c8.249,3.263,17.208,5.092,26.679,5.092
	c0.611,0,1.223,0,1.835,0c-1.327,2.645-1.835,5.707-1.835,8.96c0.815,9.367,8.552,16.497,17.819,16.497c0.408,0,0.915,0,1.322,0
	c9.875-0.816,17.213-9.369,16.497-19.144c-0.407-5.091-2.953-9.574-6.622-12.519c4.793-2.147,9.366-4.872,13.643-8.055
	l23.825,23.826c-1.014,5.708,0.616,11.515,4.793,15.891c3.56,3.359,8.144,5.091,12.728,5.091s9.169-1.731,12.729-5.091
	c6.821-7.13,6.821-18.327,0-25.457c-3.56-3.36-8.145-5.092-12.729-5.092c-1.014,0-2.038,0-3.161,0.3L69.03,35.757
	c4.973-6.613,8.87-14.171,11.287-22.294h11.285c3.173,4.584,8.572,7.638,14.578,7.638c9.904,0,17.819-7.937,17.819-17.82
	c0-9.875-7.915-17.82-17.819-17.82c-6.006,0-11.405,3.053-14.578,7.637H83.29c0-15.985-5.091-30.547-14.26-42.664l13.644-13.647
	c1.123,0.308,2.147,0.308,3.161,0.308c4.584,0,9.169-1.73,12.729-5.091c6.822-7.025,6.822-18.326,0-25.456
	c-3.56-3.361-8.145-5.091-12.729-5.091c-4.583,0-9.167,1.73-12.728,5.091c-4.176,4.38-5.808,10.182-4.793,15.885L54.672-63.925
	c-9.367-7.025-20.365-11.708-32.477-13.439v-14.254c4.584-3.157,7.637-8.557,7.637-14.563C29.832-116.055,21.896-124,12.013-124
	 M12.013,44.01c-28.101,0-50.912-22.811-50.912-50.912s22.811-50.912,50.912-50.912c28.102,0,50.912,22.811,50.912,50.912
	S40.114,44.01,12.013,44.01 M-3.261-37.449c-8.452,0-15.273,6.821-15.273,15.274c0,8.452,6.821,15.273,15.273,15.273
	c8.453,0,15.274-6.821,15.274-15.273C12.013-30.628,5.191-37.449-3.261-37.449 M32.378,3.281c-5.599,0-10.183,4.584-10.183,10.182
	c0,5.599,4.584,10.183,10.183,10.183s10.183-4.584,10.183-10.183C42.561,7.865,37.977,3.281,32.378,3.281z"/>
<g>
	<path fill="#FFFFFF" d="M-101.385,125.636c-0.84-0.248-1.612-0.372-2.316-0.372c-0.976,0-1.756,0.188-2.34,0.564
		c-0.584,0.376-0.876,0.892-0.876,1.548c0,0.592,0.176,1.076,0.528,1.452s0.784,0.672,1.296,0.888s1.224,0.468,2.136,0.756
		c1.136,0.353,2.056,0.688,2.76,1.008c0.704,0.32,1.304,0.797,1.8,1.429c0.496,0.632,0.744,1.468,0.744,2.508
		c0,0.96-0.26,1.8-0.78,2.52c-0.52,0.721-1.248,1.276-2.184,1.668c-0.936,0.393-2.012,0.588-3.228,0.588
		c-1.232,0-2.432-0.239-3.6-0.72c-1.168-0.479-2.176-1.119-3.024-1.92l1.032-1.992c0.8,0.784,1.7,1.389,2.7,1.813
		c1,0.424,1.972,0.636,2.916,0.636c1.12,0,2.004-0.22,2.652-0.66c0.648-0.439,0.972-1.035,0.972-1.788
		c0-0.592-0.176-1.08-0.528-1.464s-0.796-0.688-1.332-0.912c-0.536-0.224-1.26-0.472-2.172-0.744
		c-1.12-0.336-2.032-0.663-2.736-0.983c-0.705-0.32-1.3-0.792-1.788-1.416c-0.488-0.624-0.732-1.448-0.732-2.473
		c0-0.896,0.248-1.688,0.744-2.376c0.496-0.688,1.192-1.215,2.088-1.584c0.896-0.367,1.936-0.552,3.12-0.552
		c1.008,0,1.996,0.148,2.964,0.444c0.968,0.296,1.828,0.692,2.58,1.188l-0.96,2.064
		C-99.733,126.256-100.545,125.884-101.385,125.636z"/>
	<path fill="#FFFFFF" d="M-94.137,122.696c0.264,0.271,0.396,0.615,0.396,1.031c0,0.417-0.132,0.761-0.396,1.032
		c-0.264,0.272-0.596,0.408-0.996,0.408c-0.4,0-0.732-0.136-0.996-0.408c-0.264-0.271-0.396-0.615-0.396-1.032
		c0-0.416,0.132-0.76,0.396-1.031c0.264-0.272,0.596-0.408,0.996-0.408C-94.733,122.288-94.401,122.424-94.137,122.696z
		 M-96.237,127.352h2.232v12.696h-2.232V127.352z"/>
	<path fill="#FFFFFF" d="M-81.142,128.588c0.848,0.872,1.272,2.076,1.272,3.612v7.848h-2.232V132.8c0-1.071-0.3-1.908-0.9-2.508
		c-0.6-0.601-1.428-0.9-2.484-0.9c-1.136,0.017-2.06,0.381-2.772,1.092c-0.712,0.713-1.116,1.637-1.212,2.772v6.792h-2.232v-12.696
		h2.232v2.688c0.848-1.808,2.456-2.728,4.824-2.76C-83.158,127.28-81.99,127.716-81.142,128.588z"/>
	<path fill="#FFFFFF" d="M-71.11,139.208c-0.976,0.624-1.968,0.936-2.976,0.936c-1.008,0-1.824-0.3-2.448-0.899
		c-0.624-0.601-0.936-1.508-0.936-2.725v-7.031h-1.8v-1.704h1.8v-3.408h2.256v3.408h3.888v1.704h-3.888v6.624
		c0,0.704,0.128,1.208,0.384,1.512s0.64,0.456,1.152,0.456c0.608,0,1.264-0.2,1.968-0.601L-71.11,139.208z"/>
	<path fill="#FFFFFF" d="M-61.954,128.096c0.984,0.544,1.752,1.3,2.304,2.269c0.552,0.968,0.828,2.075,0.828,3.323
		s-0.276,2.36-0.828,3.336c-0.552,0.977-1.32,1.736-2.304,2.28s-2.108,0.816-3.372,0.816c-1.28,0-2.412-0.272-3.396-0.816
		s-1.752-1.3-2.304-2.268c-0.552-0.968-0.828-2.084-0.828-3.349c0-1.248,0.276-2.355,0.828-3.323
		c0.552-0.969,1.32-1.725,2.304-2.269s2.116-0.815,3.396-0.815C-64.062,127.28-62.938,127.552-61.954,128.096z M-67.545,129.8
		c-0.648,0.384-1.152,0.916-1.512,1.596c-0.36,0.681-0.54,1.452-0.54,2.316c0,0.88,0.18,1.664,0.54,2.352
		c0.36,0.688,0.864,1.221,1.512,1.597s1.388,0.563,2.22,0.563c0.816,0,1.548-0.188,2.196-0.563s1.152-0.908,1.512-1.597
		c0.36-0.688,0.54-1.472,0.54-2.352c0-0.864-0.18-1.636-0.54-2.316c-0.36-0.68-0.864-1.212-1.512-1.596s-1.38-0.576-2.196-0.576
		C-66.158,129.224-66.897,129.416-67.545,129.8z"/>
	<path fill="#FFFFFF" d="M-37.918,128.6c0.832,0.88,1.248,2.08,1.248,3.601v7.848h-2.256V132.8c0-1.071-0.292-1.912-0.876-2.52
		c-0.584-0.608-1.388-0.912-2.412-0.912c-1.2,0.032-2.144,0.456-2.832,1.271c-0.688,0.816-1.032,1.864-1.032,3.145v6.264h-2.256
		V132.8c0-1.071-0.288-1.912-0.864-2.52c-0.576-0.608-1.384-0.912-2.424-0.912c-1.2,0.032-2.148,0.456-2.844,1.271
		c-0.696,0.816-1.044,1.864-1.044,3.145v6.264h-2.232v-12.696h2.232v2.664c0.832-1.792,2.408-2.703,4.728-2.735
		c1.167,0,2.14,0.279,2.916,0.84c0.776,0.56,1.3,1.344,1.572,2.352c0.784-2.096,2.432-3.159,4.944-3.191
		C-39.895,127.28-38.75,127.72-37.918,128.6z"/>
	<path fill="#FFFFFF" d="M-26.975,140.048v-1.776c-0.944,1.248-2.424,1.872-4.44,1.872c-0.88,0-1.652-0.168-2.316-0.504
		c-0.664-0.336-1.176-0.8-1.536-1.392s-0.54-1.256-0.54-1.992c0-1.136,0.42-2.036,1.26-2.7c0.84-0.663,2.012-1.004,3.516-1.02h4.032
		v-0.601c0-0.896-0.276-1.588-0.828-2.076c-0.552-0.487-1.356-0.731-2.412-0.731c-1.28,0-2.584,0.456-3.912,1.368l-0.936-1.536
		c0.912-0.592,1.755-1.021,2.532-1.284c0.776-0.264,1.7-0.396,2.772-0.396c1.584,0,2.808,0.388,3.672,1.164
		c0.864,0.775,1.304,1.859,1.32,3.252l0.024,8.352H-26.975z M-28.307,137.54c0.728-0.504,1.164-1.172,1.308-2.004v-1.272h-3.72
		c-1.008,0-1.756,0.152-2.244,0.456c-0.488,0.305-0.732,0.784-0.732,1.44s0.248,1.176,0.744,1.56
		c0.496,0.384,1.16,0.576,1.992,0.576C-29.919,138.296-29.035,138.044-28.307,137.54z M-28.703,122l2.304,1.008l-2.976,2.352
		l-1.896-0.239L-28.703,122z"/>
	<path fill="#FFFFFF" d="M-16.006,139.208c-0.976,0.624-1.968,0.936-2.976,0.936c-1.008,0-1.824-0.3-2.448-0.899
		c-0.624-0.601-0.936-1.508-0.936-2.725v-7.031h-1.8v-1.704h1.8v-3.408h2.256v3.408h3.888v1.704h-3.888v6.624
		c0,0.704,0.128,1.208,0.384,1.512s0.64,0.456,1.152,0.456c0.608,0,1.264-0.2,1.968-0.601L-16.006,139.208z"/>
	<path fill="#FFFFFF" d="M-13.234,122.696c0.264,0.271,0.396,0.615,0.396,1.031c0,0.417-0.132,0.761-0.396,1.032
		c-0.264,0.272-0.596,0.408-0.996,0.408c-0.4,0-0.732-0.136-0.996-0.408c-0.264-0.271-0.396-0.615-0.396-1.032
		c0-0.416,0.132-0.76,0.396-1.031c0.264-0.272,0.596-0.408,0.996-0.408C-13.831,122.288-13.499,122.424-13.234,122.696z
		 M-15.334,127.352h2.232v12.696h-2.232V127.352z"/>
	<path fill="#FFFFFF" d="M-5.519,129.271c-0.832,0-1.572,0.185-2.22,0.553s-1.156,0.888-1.524,1.56
		c-0.369,0.672-0.552,1.448-0.552,2.328s0.18,1.656,0.54,2.328s0.856,1.196,1.488,1.572s1.356,0.563,2.172,0.563
		c0.816,0,1.552-0.136,2.208-0.408c0.656-0.271,1.2-0.663,1.632-1.176l1.272,1.296c-0.576,0.72-1.308,1.272-2.196,1.656
		c-0.888,0.384-1.893,0.576-3.012,0.576c-1.232,0-2.328-0.272-3.288-0.816s-1.708-1.3-2.244-2.268
		c-0.537-0.968-0.804-2.076-0.804-3.324s0.268-2.36,0.804-3.336c0.536-0.976,1.284-1.736,2.244-2.28s2.056-0.815,3.288-0.815
		c1.072,0,2.036,0.164,2.892,0.491c0.855,0.328,1.572,0.805,2.148,1.429l-1.224,1.536C-2.902,129.76-4.111,129.271-5.519,129.271z"
		/>
	<path fill="#FFFFFF" d="M8.749,128.096c0.984,0.544,1.752,1.3,2.304,2.269c0.552,0.968,0.828,2.075,0.828,3.323
		s-0.276,2.36-0.828,3.336c-0.552,0.977-1.32,1.736-2.304,2.28s-2.108,0.816-3.372,0.816c-1.28,0-2.412-0.272-3.396-0.816
		s-1.752-1.3-2.304-2.268c-0.552-0.968-0.828-2.084-0.828-3.349c0-1.248,0.276-2.355,0.828-3.323
		c0.552-0.969,1.32-1.725,2.304-2.269s2.116-0.815,3.396-0.815C6.641,127.28,7.765,127.552,8.749,128.096z M3.157,129.8
		c-0.648,0.384-1.152,0.916-1.512,1.596c-0.36,0.681-0.54,1.452-0.54,2.316c0,0.88,0.18,1.664,0.54,2.352
		c0.36,0.688,0.864,1.221,1.512,1.597s1.388,0.563,2.22,0.563c0.816,0,1.548-0.188,2.196-0.563s1.152-0.908,1.512-1.597
		c0.36-0.688,0.54-1.472,0.54-2.352c0-0.864-0.18-1.636-0.54-2.316c-0.36-0.68-0.864-1.212-1.512-1.596s-1.38-0.576-2.196-0.576
		C4.545,129.224,3.805,129.416,3.157,129.8z"/>
	<path fill="#FFFFFF" d="M28.271,140.048l-3.336-5.28c-0.383,0.032-0.695,0.048-0.936,0.048h-4.271v5.232h-2.305v-16.8H24
		c2.127,0,3.771,0.492,4.932,1.476c1.16,0.984,1.74,2.38,1.74,4.188c0,1.36-0.316,2.504-0.947,3.432
		c-0.633,0.929-1.541,1.601-2.725,2.016l3.912,5.688H28.271z M24,132.728c1.439,0,2.543-0.315,3.313-0.947
		c0.768-0.632,1.152-1.564,1.152-2.797c0-1.199-0.385-2.107-1.152-2.724c-0.77-0.615-1.873-0.924-3.313-0.924h-4.271v7.392H24z"/>
	<path fill="#FFFFFF" d="M42.072,129.02c1.008,1.16,1.512,2.772,1.512,4.836c0,0.32-0.008,0.561-0.023,0.721H33.529
		c0.176,1.136,0.65,2.04,1.428,2.712c0.775,0.672,1.73,1.008,2.867,1.008c0.752,0,1.453-0.136,2.1-0.408
		c0.648-0.271,1.213-0.655,1.693-1.151l1.223,1.271c-0.623,0.672-1.375,1.192-2.256,1.56c-0.879,0.369-1.855,0.553-2.928,0.553
		c-1.248,0-2.355-0.268-3.324-0.805c-0.969-0.535-1.721-1.291-2.256-2.268c-0.535-0.976-0.805-2.088-0.805-3.336
		s0.27-2.355,0.805-3.324c0.535-0.968,1.285-1.728,2.244-2.28c0.961-0.552,2.057-0.827,3.289-0.827
		C39.576,127.28,41.064,127.86,42.072,129.02z M41.568,132.848c-0.064-1.151-0.447-2.06-1.152-2.724
		c-0.703-0.664-1.631-0.996-2.783-0.996c-1.121,0-2.053,0.336-2.797,1.008s-1.188,1.576-1.332,2.712H41.568z"/>
	<path fill="#FFFFFF" d="M49.789,129.392c-0.633-0.191-1.236-0.288-1.813-0.288c-0.672,0-1.211,0.124-1.619,0.372
		s-0.613,0.628-0.613,1.141c0,0.512,0.229,0.899,0.684,1.164c0.457,0.264,1.148,0.531,2.076,0.804c0.881,0.256,1.6,0.512,2.16,0.768
		c0.561,0.257,1.037,0.633,1.428,1.128c0.393,0.496,0.59,1.152,0.59,1.969c0,1.199-0.453,2.111-1.357,2.735
		s-2.027,0.937-3.371,0.937c-0.945,0-1.861-0.152-2.748-0.456c-0.889-0.304-1.637-0.736-2.244-1.296l0.84-1.632
		c0.527,0.479,1.18,0.863,1.955,1.151c0.777,0.288,1.533,0.433,2.27,0.433c0.734,0,1.328-0.136,1.775-0.408s0.672-0.688,0.672-1.248
		c0-0.576-0.236-1.008-0.707-1.296c-0.473-0.288-1.189-0.576-2.148-0.864c-0.85-0.24-1.541-0.483-2.076-0.732
		c-0.537-0.247-0.992-0.611-1.369-1.092c-0.375-0.479-0.563-1.104-0.563-1.872c0-1.184,0.432-2.071,1.295-2.664
		c0.865-0.592,1.945-0.888,3.24-0.888c0.768,0,1.523,0.108,2.268,0.324s1.389,0.508,1.932,0.876l-0.814,1.704
		C51,129.84,50.42,129.584,49.789,129.392z"/>
	<path fill="#FFFFFF" d="M63.816,128.096c0.928,0.544,1.648,1.305,2.16,2.28s0.768,2.096,0.768,3.36
		c0,1.247-0.252,2.355-0.756,3.323c-0.504,0.969-1.215,1.721-2.135,2.256c-0.922,0.537-1.973,0.805-3.156,0.805
		c-1.072,0-2.016-0.225-2.832-0.672c-0.816-0.448-1.457-1.088-1.92-1.92v7.176h-2.232v-17.353h2.232v2.521
		c0.463-0.832,1.1-1.472,1.908-1.92c0.807-0.448,1.738-0.672,2.795-0.672C61.832,127.28,62.889,127.552,63.816,128.096z
		 M62.412,137.6c0.648-0.384,1.152-0.92,1.512-1.607c0.361-0.688,0.541-1.464,0.541-2.328c0-0.848-0.184-1.616-0.553-2.305
		c-0.367-0.688-0.871-1.224-1.512-1.607s-1.367-0.576-2.184-0.576s-1.549,0.192-2.195,0.576c-0.648,0.384-1.156,0.92-1.525,1.607
		c-0.367,0.688-0.551,1.457-0.551,2.305c0,0.88,0.184,1.66,0.551,2.34c0.369,0.681,0.877,1.212,1.525,1.596
		c0.646,0.384,1.379,0.576,2.195,0.576S61.766,137.983,62.412,137.6z"/>
	<path fill="#FFFFFF" d="M69.924,122.696c0.264,0.271,0.396,0.615,0.396,1.031c0,0.417-0.133,0.761-0.396,1.032
		c-0.264,0.272-0.596,0.408-0.996,0.408s-0.732-0.136-0.996-0.408c-0.264-0.271-0.395-0.615-0.395-1.032
		c0-0.416,0.131-0.76,0.395-1.031c0.264-0.272,0.596-0.408,0.996-0.408S69.66,122.424,69.924,122.696z M67.824,127.352h2.232v12.696
		h-2.232V127.352z"/>
	<path fill="#FFFFFF" d="M76.369,128.012c0.768-0.472,1.68-0.716,2.734-0.731v2.159c-1.295-0.048-2.344,0.288-3.143,1.009
		c-0.801,0.72-1.258,1.688-1.369,2.903v6.696h-2.232v-12.696h2.232v2.736C75.008,129.176,75.6,128.484,76.369,128.012z"/>
	<path fill="#FFFFFF" d="M86.688,140.048v-1.776c-0.943,1.248-2.424,1.872-4.439,1.872c-0.879,0-1.652-0.168-2.316-0.504
		s-1.176-0.8-1.535-1.392s-0.541-1.256-0.541-1.992c0-1.136,0.422-2.036,1.262-2.7c0.84-0.663,2.012-1.004,3.516-1.02h4.031v-0.601
		c0-0.896-0.275-1.588-0.828-2.076c-0.551-0.487-1.355-0.731-2.412-0.731c-1.279,0-2.584,0.456-3.912,1.368l-0.936-1.536
		c0.912-0.592,1.756-1.021,2.533-1.284c0.775-0.264,1.699-0.396,2.771-0.396c1.584,0,2.807,0.388,3.672,1.164
		c0.863,0.775,1.303,1.859,1.32,3.252l0.023,8.352H86.688z M85.355,137.54c0.729-0.504,1.164-1.172,1.309-2.004v-1.272h-3.719
		c-1.01,0-1.758,0.152-2.244,0.456c-0.488,0.305-0.732,0.784-0.732,1.44s0.248,1.176,0.744,1.56s1.16,0.576,1.992,0.576
		C83.744,138.296,84.629,138.044,85.355,137.54z"/>
	<path fill="#FFFFFF" d="M97.656,139.208c-0.977,0.624-1.969,0.936-2.977,0.936s-1.824-0.3-2.447-0.899
		c-0.625-0.601-0.938-1.508-0.938-2.725v-7.031h-1.799v-1.704h1.799v-3.408h2.258v3.408h3.887v1.704h-3.887v6.624
		c0,0.704,0.127,1.208,0.383,1.512s0.641,0.456,1.152,0.456c0.607,0,1.264-0.2,1.969-0.601L97.656,139.208z"/>
	<path fill="#FFFFFF" d="M106.811,128.096c0.984,0.544,1.752,1.3,2.305,2.269c0.553,0.968,0.828,2.075,0.828,3.323
		s-0.275,2.36-0.828,3.336c-0.553,0.977-1.32,1.736-2.305,2.28s-2.107,0.816-3.371,0.816c-1.281,0-2.412-0.272-3.396-0.816
		s-1.752-1.3-2.305-2.268c-0.551-0.968-0.828-2.084-0.828-3.349c0-1.248,0.277-2.355,0.828-3.323
		c0.553-0.969,1.32-1.725,2.305-2.269s2.115-0.815,3.396-0.815C104.703,127.28,105.826,127.552,106.811,128.096z M101.219,129.8
		c-0.648,0.384-1.152,0.916-1.512,1.596c-0.359,0.681-0.539,1.452-0.539,2.316c0,0.88,0.18,1.664,0.539,2.352
		c0.359,0.688,0.863,1.221,1.512,1.597s1.389,0.563,2.221,0.563c0.816,0,1.547-0.188,2.195-0.563s1.152-0.908,1.512-1.597
		c0.361-0.688,0.541-1.472,0.541-2.352c0-0.864-0.18-1.636-0.541-2.316c-0.359-0.68-0.863-1.212-1.512-1.596
		s-1.379-0.576-2.195-0.576C102.607,129.224,101.867,129.416,101.219,129.8z M104.76,122l2.303,1.008l-2.975,2.352l-1.896-0.239
		L104.76,122z"/>
	<path fill="#FFFFFF" d="M115.031,128.012c0.768-0.472,1.68-0.716,2.734-0.731v2.159c-1.295-0.048-2.344,0.288-3.143,1.009
		c-0.801,0.72-1.258,1.688-1.369,2.903v6.696h-2.232v-12.696h2.232v2.736C113.67,129.176,114.262,128.484,115.031,128.012z"/>
	<path fill="#FFFFFF" d="M120.25,122.696c0.264,0.271,0.396,0.615,0.396,1.031c0,0.417-0.133,0.761-0.396,1.032
		c-0.264,0.272-0.596,0.408-0.996,0.408s-0.732-0.136-0.996-0.408c-0.264-0.271-0.395-0.615-0.395-1.032
		c0-0.416,0.131-0.76,0.395-1.031c0.264-0.272,0.596-0.408,0.996-0.408S119.986,122.424,120.25,122.696z M118.15,127.352h2.232
		v12.696h-2.232V127.352z"/>
	<path fill="#FFFFFF" d="M131.338,128.096c0.984,0.544,1.752,1.3,2.303,2.269c0.553,0.968,0.828,2.075,0.828,3.323
		s-0.275,2.36-0.828,3.336c-0.551,0.977-1.318,1.736-2.303,2.28s-2.109,0.816-3.373,0.816c-1.279,0-2.412-0.272-3.395-0.816
		c-0.984-0.544-1.752-1.3-2.305-2.268s-0.828-2.084-0.828-3.349c0-1.248,0.275-2.355,0.828-3.323
		c0.553-0.969,1.32-1.725,2.305-2.269c0.982-0.544,2.115-0.815,3.395-0.815C129.229,127.28,130.354,127.552,131.338,128.096z
		 M125.746,129.8c-0.648,0.384-1.152,0.916-1.512,1.596c-0.361,0.681-0.541,1.452-0.541,2.316c0,0.88,0.18,1.664,0.541,2.352
		c0.359,0.688,0.863,1.221,1.512,1.597c0.646,0.376,1.387,0.563,2.219,0.563c0.816,0,1.549-0.188,2.197-0.563
		c0.646-0.376,1.15-0.908,1.512-1.597c0.359-0.688,0.539-1.472,0.539-2.352c0-0.864-0.18-1.636-0.539-2.316
		c-0.361-0.68-0.865-1.212-1.512-1.596c-0.648-0.384-1.381-0.576-2.197-0.576C127.133,129.224,126.393,129.416,125.746,129.8z"/>
</g>
</svg>
