<?xml version="1.0" standalone="no"?>
<!DOCTYPE svg PUBLIC "-//W3C//DTD SVG 20010904//EN"
 "http://www.w3.org/TR/2001/REC-SVG-20010904/DTD/svg10.dtd">
<svg version="1.0" xmlns="http://www.w3.org/2000/svg"
 width="700.000000pt" height="700.000000pt" viewBox="0 0 700.000000 700.000000"
 preserveAspectRatio="xMidYMid meet">
<metadata>
Created by potrace 1.11, written by Peter Selinger 2001-2013
</metadata>
<g transform="translate(0.000000,700.000000) scale(0.100000,-0.100000)"
fill="#000000" stroke="none">
<path d="M2690 6802 c-123 -9 -214 -68 -263 -172 -22 -45 -22 -48 -25 -893
l-2 -847 62 46 c129 95 296 182 453 237 63 22 121 39 127 36 2 0 15 4 31 10
29 11 33 12 132 30 104 18 156 22 295 22 138 1 180 -3 320 -26 105 -17 286
-73 405 -125 11 -5 26 -10 34 -12 14 -4 -354 -378 -371 -378 -6 0 -33 7 -61
15 -124 36 -376 51 -507 31 -19 -3 -48 -8 -65 -10 -114 -18 -319 -99 -430
-168 -332 -209 -548 -544 -602 -933 -10 -65 -9 -264 0 -340 52 -418 344 -812
737 -994 63 -29 197 -76 247 -86 12 -3 35 -8 51 -11 101 -21 360 -27 432 -10
14 3 36 8 50 10 100 16 243 67 356 126 260 136 469 362 586 633 62 143 102
322 107 475 l1 32 243 0 243 0 -2 -42 c-18 -267 -49 -413 -129 -613 -59 -148
-119 -256 -218 -393 l-38 -52 835 0 c810 0 837 1 889 20 87 33 162 119 182
209 10 45 10 1696 0 1741 -23 105 -123 205 -226 225 -18 4 -1160 8 -1479 5
l-34 0 39 -40 39 -40 -902 -902 -902 -902 -435 434 -435 434 173 173 172 173
262 -262 263 -263 635 635 635 635 -2 955 c-3 946 -3 955 -24 1000 -30 65 -95
125 -162 151 -56 21 -65 21 -872 22 -448 1 -831 1 -850 -1z"/>
<path d="M497 4604 c-1 -1 -21 -4 -45 -8 -119 -16 -222 -110 -247 -224 -8 -41
-9 -1694 0 -1742 14 -77 82 -162 162 -201 l48 -24 848 -3 847 -2 -49 67 c-70
96 -151 242 -195 353 -21 52 -42 102 -46 111 -10 20 -67 250 -74 299 -24 170
-24 414 0 534 2 12 9 50 15 86 37 213 180 532 321 713 l30 37 -44 1 c-122 1
-1570 4 -1571 3z"/>
<path d="M2400 2084 c-1 -16 -1 -388 -1 -827 0 -557 4 -810 12 -840 12 -47 43
-101 74 -133 29 -29 104 -71 142 -79 58 -12 1714 -8 1759 4 41 11 115 58 146
94 10 11 28 40 40 66 l23 46 3 610 c1 336 1 717 0 848 l-3 239 -25 -22 c-96
-84 -356 -222 -515 -274 -486 -157 -973 -108 -1435 145 -35 19 -174 110 -180
118 -3 3 -13 12 -22 20 -16 12 -18 11 -18 -15z"/>
</g>
</svg>
