<?xml version="1.0" encoding="utf-8"?>
<!-- Generator: Adobe Illustrator 16.0.0, SVG Export Plug-In . SVG Version: 6.00 Build 0)  -->
<!DOCTYPE svg PUBLIC "-//W3C//DTD SVG 1.1//EN" "http://www.w3.org/Graphics/SVG/1.1/DTD/svg11.dtd">
<svg version="1.1" id="Layer_1" xmlns="http://www.w3.org/2000/svg" xmlns:xlink="http://www.w3.org/1999/xlink" x="0px" y="0px"
	 width="24px" height="24px" viewBox="0 0 24 24" enable-background="new 0 0 24 24" xml:space="preserve">
<g>
	<path fill="#1565C0" d="M5.917,12c0-1.426,0.497-2.736,1.321-3.774H1.68c-0.55,0-1,0.45-1,1v5.547c0,0.55,0.45,1,1,1h5.559
		C6.414,14.735,5.917,13.426,5.917,12z"/>
	<path fill="#1565C0" d="M22.32,8.227h-4.989L17.604,8.5l-6.187,6.186l-2.978-2.978l1.175-1.183l1.803,1.802l4.356-4.356V1.68
		c0-0.55-0.45-1-1-1H9.227c-0.55,0-1,0.45-1,1v5.558C9.265,6.414,10.575,5.917,12,5.917c0.8,0,1.573,0.152,2.294,0.451l0.346,0.143
		l-1.284,1.284l-0.142-0.041C12.816,7.641,12.407,7.583,12,7.583c-2.436,0-4.417,1.981-4.417,4.417c0,2.435,1.981,4.417,4.417,4.417
		c2.435,0,4.417-1.981,4.417-4.417h0.25h0.25h0.665h0.25h0.25c0,1.425-0.496,2.735-1.321,3.773h5.56c0.55,0,1-0.45,1-1V9.227
		C23.32,8.677,22.87,8.227,22.32,8.227z"/>
	<path fill="#1565C0" d="M12,18.082c-1.426,0-2.736-0.496-3.774-1.32v5.559c0,0.55,0.45,1,1,1h5.547c0.55,0,1-0.45,1-1v-5.56
		C14.735,17.586,13.426,18.082,12,18.082z"/>
</g>
</svg>
