<?xml version="1.0" encoding="utf-8"?>
<!-- Generator: Adobe Illustrator 16.0.0, SVG Export Plug-In . SVG Version: 6.00 Build 0)  -->
<!DOCTYPE svg PUBLIC "-//W3C//DTD SVG 1.1//EN" "http://www.w3.org/Graphics/SVG/1.1/DTD/svg11.dtd">
<svg version="1.1" id="Layer_1" xmlns="http://www.w3.org/2000/svg" xmlns:xlink="http://www.w3.org/1999/xlink" x="0px" y="0px"
	 width="24px" height="24px" viewBox="0 0 24 24" enable-background="new 0 0 24 24" xml:space="preserve">
<g>
	<path fill="#F57C00" d="M18.069,10.5c0.63,0,1.25,0.09,1.84,0.25c0.75-1.25,1.16-2.45,1.16-3.75c0-3.09-2.42-5.5-5.5-5.5
		c-1.74,0-3.41,0.81-4.5,2.08c-1.09-1.27-2.76-2.08-4.5-2.08c-3.08,0-5.5,2.41-5.5,5.5c0,3.77,3.4,6.859,8.55,11.53l1.45,1.319
		l0.32-0.289c-0.2-0.66-0.32-1.351-0.32-2.061C11.069,13.641,14.21,10.5,18.069,10.5z"/>
	<path fill="#F57C00" d="M19.946,22.486h-3.777v-5.037h-3.048l4.937-4.936l4.937,4.936h-3.048V22.486z"/>
</g>
</svg>
