<?xml version="1.0" encoding="utf-8"?>
<!-- Generator: Adobe Illustrator 16.0.0, SVG Export Plug-In . SVG Version: 6.00 Build 0)  -->
<!DOCTYPE svg PUBLIC "-//W3C//DTD SVG 1.1//EN" "http://www.w3.org/Graphics/SVG/1.1/DTD/svg11.dtd">
<svg version="1.1" id="Layer_1" xmlns="http://www.w3.org/2000/svg" xmlns:xlink="http://www.w3.org/1999/xlink" x="0px" y="0px"
	 width="24px" height="24px" viewBox="0 0 24 24" enable-background="new 0 0 24 24" xml:space="preserve">
<g>
	<g transform="translate(1.000000, 6.000000)">
		<path fill="#0090ED" d="M12.508-2.909l0.096,0.002l6.162,0.385l0.396,0.02c0.819,0.049,1.347,0.136,1.642,0.292l0.051,0.028
			c0.551,0.338,0.727,1.063,0.387,1.616c-0.34,0.553-1.063,0.728-1.616,0.388c-0.272-0.167-0.579-0.567-0.983-1.248L18.54-1.594
			l-5.996-0.375c-0.165-0.01-0.323,0.068-0.416,0.203l-0.032,0.053L11.68-0.9l0.01,0.005c0.403,0.227,0.685,0.645,0.719,1.132
			l0.003,0.098v13.164c0,0.778-0.632,1.411-1.41,1.411c-0.751,0-1.364-0.588-1.407-1.329L9.59,13.499V0.335
			c0-0.501,0.261-0.94,0.655-1.191L10.321-0.9l0,0L9.906-1.712C9.83-1.861,9.682-1.957,9.519-1.967L9.458-1.968L3.461-1.594
			L3.44-1.556C3.021-0.841,2.707-0.409,2.43-0.211L2.378-0.178c-0.554,0.34-1.277,0.165-1.616-0.388
			C0.423-1.119,0.596-1.843,1.149-2.182c0.288-0.175,0.831-0.27,1.705-0.321l0.378-0.019l6.166-0.385
			c0.529-0.033,1.03,0.233,1.3,0.684l0.044,0.082L11-1.637l0.258-0.503C11.499-2.613,11.984-2.907,12.508-2.909z M11-0.134
			c-0.242,0-0.44,0.181-0.467,0.416l-0.001,0.054V13.5c0,0.26,0.209,0.471,0.469,0.471c0.242,0,0.44-0.183,0.467-0.416l0.001-0.055
			V0.335C11.469,0.076,11.259-0.134,11-0.134z M19.691-1.515l0.076,0.117c0.162,0.237,0.283,0.38,0.344,0.419
			c0.113,0.067,0.257,0.033,0.324-0.078c0.068-0.111,0.035-0.255-0.076-0.323c-0.063-0.037-0.227-0.076-0.483-0.112L19.691-1.515z
			 M2.311-1.515L2.126-1.492C1.866-1.457,1.703-1.417,1.641-1.38C1.529-1.312,1.495-1.168,1.564-1.057
			c0.067,0.111,0.211,0.146,0.323,0.078C1.943-1.014,2.046-1.133,2.185-1.33l0.098-0.142L2.311-1.515z"/>
	</g>
</g>
</svg>
