<?xml version="1.0" encoding="utf-8"?>
<!-- Generator: Adobe Illustrator 16.0.0, SVG Export Plug-In . SVG Version: 6.00 Build 0)  -->
<!DOCTYPE svg PUBLIC "-//W3C//DTD SVG 1.1//EN" "http://www.w3.org/Graphics/SVG/1.1/DTD/svg11.dtd">
<svg version="1.1" id="Layer_1" xmlns="http://www.w3.org/2000/svg" xmlns:xlink="http://www.w3.org/1999/xlink" x="0px" y="0px"
	 width="24px" height="24px" viewBox="0 0 24 24" enable-background="new 0 0 24 24" xml:space="preserve">
<path fill="#0090ED" d="M22,10c0-4.4-3.6-8-8-8v8H22 M14.2,11H22c0,1.8-0.6,3.5-1.7,4.9c0.7,0.6,1.101,1.5,1.2,2.398L14.2,11
	 M20.8,22.7l1.3-1.3L2.4,1.7L1.1,3l8,8H7.4L6.5,9H3v2h2.2c0,0,1.9,4.1,2.1,4.4c-1,0.5-1.7,1.5-1.8,2.6c-0.3,1.9,1.1,3.7,3,4
	s3.7-1.1,4-3h2.1c0.102,0.4,0.2,0.8,0.4,1.2c0.9,1.7,3.1,2.3,4.7,1.399L20.8,22.7 M10.5,18.5c0,0.8-0.7,1.5-1.5,1.5
	s-1.5-0.7-1.5-1.5S8.2,17,9,17S10.5,17.7,10.5,18.5 M18.1,20c-0.898,0-1.6-0.7-1.6-1.5v-0.1L18.1,20z"/>
</svg>
