<?xml version="1.0" encoding="utf-8"?>
<!-- Generator: Adobe Illustrator 16.0.0, SVG Export Plug-In . SVG Version: 6.00 Build 0)  -->
<!DOCTYPE svg PUBLIC "-//W3C//DTD SVG 1.1//EN" "http://www.w3.org/Graphics/SVG/1.1/DTD/svg11.dtd">
<svg version="1.1" id="Layer_1" xmlns="http://www.w3.org/2000/svg" xmlns:xlink="http://www.w3.org/1999/xlink" x="0px" y="0px"
	 width="24px" height="24px" viewBox="0 0 24 24" enable-background="new 0 0 24 24" xml:space="preserve">
<path fill="#F57C00" d="M6,1v2H5C3.89,3,3,3.89,3,5v14c0,1.109,0.9,2,2,2h14c1.109,0,2-0.891,2-2V5c0-1.1-0.891-2-2-2h-1V1h-2v2H8V1
	H6 M5,8h14v11H5V7 M11,9v5h2V9H11 M11,16v2h2v-2H11z"/>
</svg>
