<?xml version="1.0" encoding="utf-8"?>
<!-- Generator: Adobe Illustrator 16.0.0, SVG Export Plug-In . SVG Version: 6.00 Build 0)  -->
<!DOCTYPE svg PUBLIC "-//W3C//DTD SVG 1.1//EN" "http://www.w3.org/Graphics/SVG/1.1/DTD/svg11.dtd">
<svg version="1.1" id="Layer_1" xmlns="http://www.w3.org/2000/svg" xmlns:xlink="http://www.w3.org/1999/xlink" x="0px" y="0px"
	 width="24px" height="24px" viewBox="0 0 24 24" enable-background="new 0 0 24 24" xml:space="preserve">
<g>
	<path fill="#FFFFFF" d="M5.576,12c0-1.505,0.525-2.889,1.395-3.985H1.103c-0.581,0-1.056,0.475-1.056,1.056v5.857
		c0,0.58,0.475,1.057,1.056,1.057h5.87C6.101,14.887,5.576,13.506,5.576,12z"/>
	<path fill="#FFFFFF" d="M22.898,8.016h-5.27l0.289,0.288l-6.534,6.532l-3.145-3.145l1.241-1.249l1.903,1.903l4.601-4.6V1.103
		c0-0.581-0.477-1.056-1.057-1.056H9.071c-0.581,0-1.056,0.475-1.056,1.056v5.868C9.112,6.101,10.495,5.576,12,5.576
		c0.844,0,1.661,0.16,2.422,0.477l0.367,0.151l-1.357,1.355l-0.15-0.043c-0.42-0.119-0.852-0.18-1.282-0.18
		c-2.572,0-4.664,2.092-4.664,4.664c0,2.573,2.092,4.663,4.664,4.663c2.573,0,4.663-2.09,4.663-4.663h0.266h0.264h0.703h0.264h0.264
		c0,1.504-0.523,2.887-1.396,3.985h5.873c0.58,0,1.055-0.477,1.055-1.057V9.071C23.953,8.491,23.477,8.016,22.898,8.016z"/>
	<path fill="#FFFFFF" d="M12,18.422c-1.505,0-2.889-0.523-3.985-1.395v5.871c0,0.58,0.475,1.055,1.056,1.055h5.857
		c0.58,0,1.057-0.475,1.057-1.055v-5.871C14.887,17.898,13.506,18.422,12,18.422z"/>
</g>
</svg>
