<?xml version="1.0" encoding="utf-8"?>
<!-- Generator: Adobe Illustrator 16.0.0, SVG Export Plug-In . SVG Version: 6.00 Build 0)  -->
<!DOCTYPE svg PUBLIC "-//W3C//DTD SVG 1.1//EN" "http://www.w3.org/Graphics/SVG/1.1/DTD/svg11.dtd">
<svg version="1.1" id="Layer_1" xmlns="http://www.w3.org/2000/svg" xmlns:xlink="http://www.w3.org/1999/xlink" x="0px" y="0px"
	 width="24px" height="24px" viewBox="0 0 24 24" enable-background="new 0 0 24 24" xml:space="preserve">
<path fill="#795548" d="M12,20c4.418,0,8-3.582,8-8s-3.582-8-8-8s-8,3.582-8,8S7.582,20,12,20 M12,2c5.523,0,10,4.477,10,10
	c0,5.523-4.477,10-10,10C6.47,22,2,17.5,2,12C2,6.477,6.477,2,12,2 M12.5,7v5.25l4.5,2.67l-0.75,1.23L11,13V7H12.5z"/>
</svg>
