<?xml version="1.0" encoding="utf-8"?>
<!-- Generator: Adobe Illustrator 16.0.0, SVG Export Plug-In . SVG Version: 6.00 Build 0)  -->
<!DOCTYPE svg PUBLIC "-//W3C//DTD SVG 1.1//EN" "http://www.w3.org/Graphics/SVG/1.1/DTD/svg11.dtd">
<svg version="1.1" id="Layer_1" xmlns="http://www.w3.org/2000/svg" xmlns:xlink="http://www.w3.org/1999/xlink" x="0px" y="0px"
	 width="24px" height="24px" viewBox="0 0 24 24" enable-background="new 0 0 24 24" xml:space="preserve">
<path fill="#0090ED" d="M4.22,11.29l7.07-7.07c2.351-2.34,6.14-2.34,8.489,0c2.341,2.34,2.341,6.14,0,8.49l-7.069,7.069
	c-2.35,2.341-6.15,2.341-8.49,0C1.88,17.43,1.88,13.641,4.22,11.29 M5.64,12.71c-1.05,1.04-1.4,2.53-1.04,3.86l5.99-5.98l4.24,4.24
	l3.529-3.54c1.57-1.56,1.57-4.09,0-5.65c-1.56-1.57-4.09-1.57-5.649,0L5.64,12.71z"/>
</svg>
