<?xml version="1.0" encoding="utf-8"?>
<!-- Generator: Adobe Illustrator 16.0.0, SVG Export Plug-In . SVG Version: 6.00 Build 0)  -->
<!DOCTYPE svg PUBLIC "-//W3C//DTD SVG 1.1//EN" "http://www.w3.org/Graphics/SVG/1.1/DTD/svg11.dtd">
<svg version="1.1" id="Layer_1" xmlns="http://www.w3.org/2000/svg" xmlns:xlink="http://www.w3.org/1999/xlink" x="0px" y="0px"
	 width="24px" height="24px" viewBox="0 0 24 24" enable-background="new 0 0 24 24" xml:space="preserve">
<path fill="#455A64" d="M13,3c3.9,0,7,3.1,7,7c0,2.8-1.6,5.2-4,6.3V21H9v-3H8c-1.1,0-2-0.9-2-2v-3H4.5c-0.4,0-0.7-0.5-0.4-0.8L6,9.7
	C6.2,5.9,9.2,3,13,3 M13,1C8.4,1,4.6,4.4,4.1,8.9L2.5,11c-0.6,0.8-0.6,1.8-0.2,2.6c0.4,0.7,1,1.2,1.7,1.301V16c0,1.9,1.3,3.4,3,3.9
	V23h11v-5.5c2.5-1.7,4-4.4,4-7.5C22,5,18,1,13,1 M10,10c-0.6,0-1-0.4-1-1s0.4-1,1-1s1,0.4,1,1S10.6,10,10,10 M13,10
	c-0.6,0-1-0.4-1-1s0.4-1,1-1c0.6,0,1,0.4,1,1S13.6,10,13,10 M16,10c-0.5,0-1-0.4-1-1s0.5-1,1-1s1,0.4,1,1S16.5,10,16,10z"/>
</svg>
