<?xml version="1.0" encoding="utf-8"?>
<!-- Generator: Adobe Illustrator 16.0.0, SVG Export Plug-In . SVG Version: 6.00 Build 0)  -->
<!DOCTYPE svg PUBLIC "-//W3C//DTD SVG 1.1//EN" "http://www.w3.org/Graphics/SVG/1.1/DTD/svg11.dtd">
<svg version="1.1" id="Layer_1" xmlns="http://www.w3.org/2000/svg" xmlns:xlink="http://www.w3.org/1999/xlink" x="0px" y="0px"
	 width="24px" height="24px" viewBox="0 0 24 24" enable-background="new 0 0 24 24" xml:space="preserve">
<path fill="#455A64" d="M13,2v8h8C21,5.582,17.418,2,13,2 M19.32,15.891C20.37,14.54,21,12.84,21,11H6.44L5.5,9H2v2h2.22
	c0,0,1.89,4.07,2.12,4.42C5.24,16,4.5,17.17,4.5,18.5C4.5,20.434,6.067,22,8,22c1.76,0,3.22-1.3,3.46-3h2.08c0.239,1.7,1.7,3,3.46,3
	c1.934,0,3.5-1.566,3.5-3.5C20.5,17.46,20.04,16.529,19.32,15.891 M8,20c-0.829,0-1.5-0.672-1.5-1.5S7.171,17,8,17
	s1.5,0.672,1.5,1.5S8.829,20,8,20 M17,20c-0.828,0-1.5-0.672-1.5-1.5S16.172,17,17,17s1.5,0.672,1.5,1.5S17.828,20,17,20z"/>
</svg>
