<?xml version="1.0" encoding="utf-8"?>
<!-- Generator: Adobe Illustrator 16.0.0, SVG Export Plug-In . SVG Version: 6.00 Build 0)  -->
<!DOCTYPE svg PUBLIC "-//W3C//DTD SVG 1.1//EN" "http://www.w3.org/Graphics/SVG/1.1/DTD/svg11.dtd">
<svg version="1.1" id="Layer_1" xmlns="http://www.w3.org/2000/svg" xmlns:xlink="http://www.w3.org/1999/xlink" x="0px" y="0px"
	 width="24px" height="24px" viewBox="0 0 24 24" enable-background="new 0 0 24 24" xml:space="preserve">
<path fill="#0090ED" d="M19.283,2.636H4.717c-1.154,0-2.081,0.925-2.081,2.08v14.566c0,1.155,0.927,2.082,2.081,2.082h14.566
	c1.155,0,2.081-0.927,2.081-2.082V4.716C21.364,3.561,20.438,2.636,19.283,2.636 M17.307,13.04H13.04v1.04h4.162
	c0,0-0.063,3.122-1.561,3.122c-1.404,0-1.04-1.592-2.602-2.082v2.082c0,0.572-0.468,1.04-1.04,1.04c-0.572,0-1.04-0.468-1.04-1.04
	V15.12c-1.561,0.49-1.197,2.082-2.602,2.082c-1.498,0-1.56-3.122-1.56-3.122h4.162v-1.04H6.694C6.641,12.717,6.631,12.363,6.589,12
	h4.371v-1.041H6.6c0.021-0.343,0.105-0.697,0.198-1.041h4.162V8.878H7.151c0.167-0.364,0.323-0.718,0.51-1.04h3.299V6.797
	c0-0.572,0.468-1.041,1.04-1.041c0.572,0,1.04,0.468,1.04,1.041v1.041h3.299c0.188,0.322,0.344,0.676,0.51,1.04H13.04v1.041h4.162
	c0.104,0.343,0.177,0.697,0.198,1.041h-4.36V12h4.371C17.369,12.363,17.358,12.717,17.307,13.04z"/>
</svg>
