<?xml version="1.0" encoding="utf-8"?>
<!-- Generator: Adobe Illustrator 16.0.0, SVG Export Plug-In . SVG Version: 6.00 Build 0)  -->
<!DOCTYPE svg PUBLIC "-//W3C//DTD SVG 1.1//EN" "http://www.w3.org/Graphics/SVG/1.1/DTD/svg11.dtd">
<svg version="1.1"
	 id="svg4" xmlns:inkscape="http://www.inkscape.org/namespaces/inkscape" xmlns:svg="http://www.w3.org/2000/svg" xmlns:dc="http://purl.org/dc/elements/1.1/" xmlns:sodipodi="http://sodipodi.sourceforge.net/DTD/sodipodi-0.dtd" xmlns:rdf="http://www.w3.org/1999/02/22-rdf-syntax-ns#" xmlns:cc="http://creativecommons.org/ns#" inkscape:version="0.92.5 (2060ec1f9f, 2020-04-08)" sodipodi:docname="sadt.svg"
	 xmlns="http://www.w3.org/2000/svg" xmlns:xlink="http://www.w3.org/1999/xlink" x="0px" y="0px" width="24px" height="24px"
	 viewBox="0 0 24 24" enable-background="new 0 0 24 24" xml:space="preserve">
<sodipodi:namedview  inkscape:cy="11.491525" inkscape:cx="12.20339" inkscape:zoom="9.8333333" showgrid="false" guidetolerance="10" gridtolerance="10" pagecolor="#ffffff" borderopacity="1" bordercolor="#666666" objecttolerance="10" id="namedview6" inkscape:current-layer="svg4" inkscape:window-maximized="1" inkscape:window-y="27" inkscape:window-x="72" inkscape:window-height="704" inkscape:window-width="1294" inkscape:pageshadow="2" inkscape:pageopacity="0">
	</sodipodi:namedview>
<path id="path2" fill="#0090ED" d="M7,2v2h1v14c0,2.209,1.791,4,4,4s4-1.791,4-4V4h1V2H7 M11,16c-0.6,0-1-0.4-1-1s0.4-1,1-1
	s1,0.4,1,1S11.6,16,11,16 M13,12c-0.6,0-1-0.4-1-1s0.4-1,1-1c0.6,0,1,0.4,1,1S13.6,12,13,12 M14,7h-4V4h4V7z"/>
</svg>
