<?xml version="1.0" encoding="utf-8"?>
<!-- Generator: Adobe Illustrator 16.0.0, SVG Export Plug-In . SVG Version: 6.00 Build 0)  -->
<!DOCTYPE svg PUBLIC "-//W3C//DTD SVG 1.1//EN" "http://www.w3.org/Graphics/SVG/1.1/DTD/svg11.dtd">
<svg version="1.1" id="Layer_1" xmlns="http://www.w3.org/2000/svg" xmlns:xlink="http://www.w3.org/1999/xlink" x="0px" y="0px"
	 width="256px" height="256px" viewBox="0 0 256 256" enable-background="new 0 0 256 256" xml:space="preserve">
<path fill="#0090ED" d="M202.666,32H158.08C153.6,19.626,141.867,10.667,128,10.667c-13.867,0-25.6,8.96-30.08,21.333H53.333
	C41.6,32,32,41.6,32,53.333v149.333C32,214.4,41.6,224,53.333,224h149.333C214.4,224,224,214.4,224,202.666V53.333
	C224,41.6,214.4,32,202.666,32 M74.667,85.333H96V128H85.333V96H74.667V85.333 M106.667,181.334V192h-32v-9.813L96,160H74.667
	v-10.666h24c4.374,0,8,3.626,8,8c0,2.133-0.853,4.159-2.24,5.546l-17.813,18.454H106.667 M117.333,42.667
	C117.333,36.8,122.133,32,128,32c5.867,0,10.666,4.8,10.666,10.667S133.867,53.333,128,53.333
	C122.133,53.333,117.333,48.533,117.333,42.667 M181.334,181.334H128V160h53.334V181.334 M181.334,117.333H128V96h53.334V117.333z"
	/>
</svg>
