<?xml version="1.0" encoding="utf-8"?>
<!-- Generator: Adobe Illustrator 16.0.0, SVG Export Plug-In . SVG Version: 6.00 Build 0)  -->
<!DOCTYPE svg PUBLIC "-//W3C//DTD SVG 1.1//EN" "http://www.w3.org/Graphics/SVG/1.1/DTD/svg11.dtd">
<svg version="1.1" id="Layer_1" xmlns="http://www.w3.org/2000/svg" xmlns:xlink="http://www.w3.org/1999/xlink" x="0px" y="0px"
	 width="24px" height="24px" viewBox="0 0 24 24" enable-background="new 0 0 24 24" xml:space="preserve">
<path fill="#0090ED" d="M12,0.5c-0.97,0-1.75,0.78-1.75,1.75c0,0.59,0.3,1.12,0.75,1.43v1.4C10.1,5.21,9.26,5.5,8.5,5.94L7.39,4.35
	c0.19-0.52,0.14-1.12-0.2-1.6C6.84,2.26,6.3,2,5.75,2c-0.35,0-0.7,0.1-1,0.32C3.96,2.87,3.76,3.96,4.32,4.75
	C4.66,5.24,5.2,5.5,5.75,5.5l1.18,1.68C6.5,7.61,6.16,8.09,5.87,8.62C5.67,8.54,5.46,8.5,5.25,8.5C4.8,8.5,4.35,8.67,4,9
	c-0.67,0.7-0.67,1.8,0,2.5c0.29,0.27,0.64,0.42,1,0.5l0,0c0,0.54,0.07,1.061,0.18,1.561l-1.31,0.351
	c-0.31-0.261-0.71-0.41-1.12-0.41c-0.15,0-0.31,0-0.46,0.062c-0.93,0.25-1.481,1.209-1.23,2.148C1.27,16.5,2,17,2.75,17
	c0.15,0,0.3,0,0.46-0.061c0.57-0.16,1-0.58,1.18-1.101L5.9,15.43c0.45,0.791,1.05,1.489,1.75,2.069l-1.1,2
	C6,19.58,5.5,19.891,5.21,20.42c-0.46,0.85-0.14,1.91,0.71,2.37C6.18,22.93,6.47,23,6.75,23c0.62,0,1.22-0.33,1.54-0.92
	c0.28-0.52,0.27-1.12,0.02-1.609L9.38,18.5C10.19,18.82,11.07,19,12,19c0.06,0,0.12,0,0.18,0C12.05,19.26,12,19.561,12,19.88
	c0.08,0.92,0.84,1.62,1.75,1.62c0.04,0,0.09,0,0.13,0c0.97-0.08,1.69-0.92,1.62-1.88c-0.04-0.5-0.29-0.94-0.65-1.229
	c0.471-0.211,0.92-0.479,1.34-0.791l2.34,2.34C18.43,20.5,18.59,21.07,19,21.5c0.35,0.33,0.8,0.5,1.25,0.5s0.9-0.17,1.25-0.5
	c0.67-0.7,0.67-1.8,0-2.5c-0.35-0.33-0.8-0.5-1.25-0.5c-0.1,0-0.2,0-0.311,0.029l-2.34-2.34c0.489-0.649,0.871-1.391,1.109-2.189
	h1.109c0.311,0.45,0.841,0.75,1.431,0.75c0.972,0,1.75-0.779,1.75-1.75c0-0.97-0.778-1.75-1.75-1.75c-0.59,0-1.12,0.3-1.431,0.75H19
	c0-1.57-0.5-3-1.4-4.19l1.34-1.34C19.05,6.5,19.15,6.5,19.25,6.5c0.45,0,0.9-0.17,1.25-0.5c0.67-0.69,0.67-1.8,0-2.5
	C20.15,3.17,19.7,3,19.25,3S18.35,3.17,18,3.5c-0.41,0.43-0.57,1-0.471,1.56l-1.34,1.34c-0.92-0.69-2-1.15-3.189-1.32v-1.4
	c0.45-0.31,0.75-0.84,0.75-1.43C13.75,1.28,12.971,0.5,12,0.5 M12,17c-2.76,0-5-2.24-5-5c0-2.76,2.24-5,5-5s5,2.24,5,5
	C17,14.76,14.76,17,12,17 M10.5,9C9.67,9,9,9.67,9,10.5S9.67,12,10.5,12s1.5-0.67,1.5-1.5S11.33,9,10.5,9 M14,13c-0.55,0-1,0.45-1,1
	s0.45,1,1,1s1-0.45,1-1S14.55,13,14,13z"/>
</svg>
